MulatAbay-Bold.ufo
<glyph name="exclam" format="2">
  <advance width="557"/>
  <unicode hex="0021"/>
  <note>
uni0021
</note>
  <outline>
    <contour>
      <point x="165" y="447" type="line"/>
      <point x="405" y="447" type="line"/>
      <point x="439" y="1456" type="line"/>
      <point x="131" y="1456" type="line"/>
    </contour>
    <contour>
      <point x="285" y="-16" type="curve" smooth="yes"/>
      <point x="382.333" y="-16"/>
      <point x="447" y="48"/>
      <point x="447" y="136" type="curve" smooth="yes"/>
      <point x="447" y="225.333"/>
      <point x="382.333" y="289"/>
      <point x="285" y="289" type="curve" smooth="yes"/>
      <point x="189" y="289"/>
      <point x="124" y="224"/>
      <point x="124" y="136" type="curve" smooth="yes"/>
      <point x="124" y="48"/>
      <point x="189" y="-16"/>
    </contour>
  </outline>
</glyph>
<glyph name="ampersand" format="2">
  <advance width="1344"/>
  <unicode hex="0026"/>
  <note>
uni0026
</note>
  <outline>
    <contour>
      <point x="547" y="-20" type="curve" smooth="yes"/>
      <point x="686.333" y="-20"/>
      <point x="809.667" y="15.333"/>
      <point x="917" y="86" type="curve"/>
      <point x="992" y="0" type="line"/>
      <point x="1320" y="0" type="line"/>
      <point x="1102" y="253" type="line"/>
      <point x="1189.333" y="370.333"/>
      <point x="1233" y="523.667"/>
      <point x="1233" y="713" type="curve"/>
      <point x="987" y="713" type="line"/>
      <point x="987" y="619.667"/>
      <point x="967.333" y="534.333"/>
      <point x="928" y="457" type="curve"/>
      <point x="677" y="749" type="line"/>
      <point x="789" y="830" type="line" smooth="yes"/>
      <point x="906.333" y="918.667"/>
      <point x="965" y="1021"/>
      <point x="965" y="1137" type="curve" smooth="yes"/>
      <point x="965" y="1330.333"/>
      <point x="810.333" y="1476"/>
      <point x="593" y="1476" type="curve" smooth="yes"/>
      <point x="350.333" y="1476"/>
      <point x="196" y="1319.667"/>
      <point x="196" y="1093" type="curve" smooth="yes"/>
      <point x="196" y="982.333"/>
      <point x="248.333" y="886"/>
      <point x="335" y="770" type="curve"/>
      <point x="133.667" y="630"/>
      <point x="71" y="526.667"/>
      <point x="71" y="392" type="curve" smooth="yes"/>
      <point x="71" y="145.333"/>
      <point x="259" y="-20"/>
    </contour>
    <contour>
      <point x="561" y="212" type="curve" smooth="yes"/>
      <point x="442.333" y="212"/>
      <point x="361" y="292"/>
      <point x="361" y="408" type="curve" smooth="yes"/>
      <point x="361" y="476.667"/>
      <point x="390.667" y="536.333"/>
      <point x="450" y="587" type="curve"/>
      <point x="471" y="602" type="line"/>
      <point x="758" y="270" type="line"/>
      <point x="696" y="231.333"/>
      <point x="630.333" y="212"/>
    </contour>
    <contour>
      <point x="543" y="908" type="line"/>
      <point x="484.333" y="984"/>
      <point x="455" y="1047"/>
      <point x="455" y="1097" type="curve" smooth="yes"/>
      <point x="455" y="1185"/>
      <point x="509.333" y="1243"/>
      <point x="592" y="1243" type="curve" smooth="yes"/>
      <point x="669.333" y="1243"/>
      <point x="724" y="1185.667"/>
      <point x="724" y="1119" type="curve" smooth="yes"/>
      <point x="724" y="1052.333"/>
      <point x="698.667" y="1009.667"/>
      <point x="620" y="959" type="curve" smooth="yes"/>
    </contour>
  </outline>
</glyph>
<glyph name="quotesingle" format="2">
  <advance width="331"/>
  <unicode hex="0027"/>
  <note>
uni0027
</note>
  <outline>
    <contour>
      <point x="63" y="985" type="line"/>
      <point x="226" y="985" type="line"/>
      <point x="275" y="1389" type="line"/>
      <point x="275" y="1536" type="line"/>
      <point x="63" y="1536" type="line"/>
    </contour>
  </outline>
</glyph>
<glyph name="asterisk" format="2">
  <advance width="928"/>
  <unicode hex="002A"/>
  <note>
uni002A
</note>
  <outline>
    <contour>
      <point x="646" y="572" type="line"/>
      <point x="805" y="685" type="line"/>
      <point x="595" y="951" type="line"/>
      <point x="915" y="1040" type="line"/>
      <point x="856" y="1223" type="line"/>
      <point x="553" y="1100" type="line"/>
      <point x="573" y="1456" type="line"/>
      <point x="377" y="1456" type="line"/>
      <point x="397" y="1107" type="line"/>
      <point x="86" y="1232" type="line"/>
      <point x="27" y="1051" type="line"/>
      <point x="341" y="962" type="line"/>
      <point x="125" y="690" type="line"/>
      <point x="284" y="582" type="line"/>
      <point x="464" y="864" type="line"/>
    </contour>
  </outline>
</glyph>
<glyph name="nine" format="2">
  <advance width="1175"/>
  <unicode hex="0039"/>
  <note>
uni0039
</note>
  <outline>
    <contour>
      <point x="303" y="-14" type="line"/>
      <point x="374" y="-13" type="line" smooth="yes"/>
      <point x="816.667" y="5.667"/>
      <point x="1068" y="295.667"/>
      <point x="1068" y="781" type="curve" smooth="yes"/>
      <point x="1068" y="888" type="line" smooth="yes"/>
      <point x="1066" y="1213"/>
      <point x="892" y="1476"/>
      <point x="575" y="1476" type="curve" smooth="yes"/>
      <point x="324" y="1476"/>
      <point x="200" y="1324"/>
      <point x="140" y="1185" type="curve" smooth="yes"/>
      <point x="95" y="1079"/>
      <point x="86" y="980"/>
      <point x="86" y="961" type="curve" smooth="yes"/>
      <point x="86" y="661"/>
      <point x="253.667" y="471"/>
      <point x="511" y="471" type="curve" smooth="yes"/>
      <point x="611.667" y="471"/>
      <point x="699.667" y="508"/>
      <point x="775" y="582" type="curve"/>
      <point x="754.333" y="357.333"/>
      <point x="618.333" y="239.333"/>
      <point x="367" y="228" type="curve" smooth="yes"/>
      <point x="303" y="227" type="line"/>
    </contour>
    <contour>
      <point x="582" y="692" type="curve" smooth="yes"/>
      <point x="450" y="692"/>
      <point x="374" y="805.333"/>
      <point x="374" y="964" type="curve" smooth="yes"/>
      <point x="374" y="1124"/>
      <point x="457" y="1243"/>
      <point x="573" y="1243" type="curve" smooth="yes"/>
      <point x="698.333" y="1243"/>
      <point x="779" y="1130"/>
      <point x="779" y="934" type="curve" smooth="yes"/>
      <point x="779" y="815" type="line"/>
      <point x="744.333" y="747"/>
      <point x="675.333" y="692"/>
    </contour>
  </outline>
</glyph>
<glyph name="B" format="2">
  <advance width="1307"/>
  <unicode hex="0042"/>
  <note>
uni0042
</note>
  <outline>
    <contour>
      <point x="130" y="0" type="line"/>
      <point x="696" y="0" type="line" smooth="yes"/>
      <point x="1026.667" y="2.667"/>
      <point x="1212" y="148"/>
      <point x="1212" y="428" type="curve" smooth="yes"/>
      <point x="1212" y="592"/>
      <point x="1120.333" y="711.667"/>
      <point x="971" y="749" type="curve"/>
      <point x="1101.667" y="799.667"/>
      <point x="1179" y="914.333"/>
      <point x="1179" y="1057" type="curve" smooth="yes"/>
      <point x="1179" y="1318.333"/>
      <point x="993.333" y="1456"/>
      <point x="640" y="1456" type="curve" smooth="yes"/>
      <point x="130" y="1456" type="line"/>
    </contour>
    <contour>
      <point x="430" y="241" type="line"/>
      <point x="430" y="634" type="line"/>
      <point x="705" y="634" type="line" smooth="yes"/>
      <point x="843" y="632"/>
      <point x="912" y="564.333"/>
      <point x="912" y="431" type="curve" smooth="yes"/>
      <point x="912" y="312.333"/>
      <point x="828.333" y="241"/>
      <point x="687" y="241" type="curve" smooth="yes"/>
    </contour>
    <contour>
      <point x="430" y="846" type="line"/>
      <point x="430" y="1213" type="line"/>
      <point x="640" y="1213" type="line" smooth="yes"/>
      <point x="805.333" y="1213"/>
      <point x="879" y="1159"/>
      <point x="879" y="1027" type="curve" smooth="yes"/>
      <point x="879" y="909"/>
      <point x="803.333" y="848.667"/>
      <point x="652" y="846" type="curve" smooth="yes"/>
    </contour>
  </outline>
</glyph>
<glyph name="E" format="2">
  <advance width="1152"/>
  <unicode hex="0045"/>
  <note>
uni0045
</note>
  <outline>
    <contour>
      <point x="130" y="0" type="line"/>
      <point x="1106" y="0" type="line"/>
      <point x="1106" y="241" type="line"/>
      <point x="430" y="241" type="line"/>
      <point x="430" y="631" type="line"/>
      <point x="1006" y="631" type="line"/>
      <point x="1006" y="866" type="line"/>
      <point x="430" y="866" type="line"/>
      <point x="430" y="1213" type="line"/>
      <point x="1104" y="1213" type="line"/>
      <point x="1104" y="1456" type="line"/>
      <point x="130" y="1456" type="line"/>
    </contour>
  </outline>
</glyph>
<glyph name="F" format="2">
  <advance width="1122"/>
  <unicode hex="0046"/>
  <note>
uni0046
</note>
  <outline>
    <contour>
      <point x="130" y="0" type="line"/>
      <point x="430" y="0" type="line"/>
      <point x="430" y="595" type="line"/>
      <point x="1006" y="595" type="line"/>
      <point x="1006" y="837" type="line"/>
      <point x="430" y="837" type="line"/>
      <point x="430" y="1213" type="line"/>
      <point x="1078" y="1213" type="line"/>
      <point x="1078" y="1456" type="line"/>
      <point x="130" y="1456" type="line"/>
    </contour>
  </outline>
</glyph>
<glyph name="O" format="2">
  <advance width="1414"/>
  <unicode hex="004F"/>
  <note>
uni004F
</note>
  <outline>
    <contour>
      <point x="708" y="-20" type="curve" smooth="yes"/>
      <point x="952" y="-20"/>
      <point x="1148.667" y="102"/>
      <point x="1250" y="318" type="curve" smooth="yes"/>
      <point x="1300.667" y="426"/>
      <point x="1326" y="551.667"/>
      <point x="1326" y="695" type="curve" smooth="yes"/>
      <point x="1326" y="760" type="line" smooth="yes"/>
      <point x="1326" y="1045.333"/>
      <point x="1218.167" y="1271.833"/>
      <point x="1029.5" y="1388.5" type="curve" smooth="yes"/>
      <point x="935.167" y="1446.833"/>
      <point x="827.333" y="1476"/>
      <point x="706" y="1476" type="curve" smooth="yes"/>
      <point x="463.333" y="1476"/>
      <point x="266.833" y="1355.5"/>
      <point x="163.5" y="1137.5" type="curve" smooth="yes"/>
      <point x="111.833" y="1028.5"/>
      <point x="86" y="902.333"/>
      <point x="86" y="759" type="curve" smooth="yes"/>
      <point x="86" y="687" type="line" smooth="yes"/>
      <point x="87.333" y="407"/>
      <point x="195.667" y="183"/>
      <point x="385" y="67" type="curve" smooth="yes"/>
      <point x="479.667" y="9"/>
      <point x="587.333" y="-20"/>
    </contour>
    <contour>
      <point x="708" y="226" type="curve" smooth="yes"/>
      <point x="502.667" y="226"/>
      <point x="390" y="397.667"/>
      <point x="390" y="695" type="curve" smooth="yes"/>
      <point x="390" y="766" type="line" smooth="yes"/>
      <point x="391.333" y="1068.667"/>
      <point x="504.667" y="1228"/>
      <point x="706" y="1228" type="curve" smooth="yes"/>
      <point x="908.667" y="1228"/>
      <point x="1022" y="1066.333"/>
      <point x="1022" y="761" type="curve" smooth="yes"/>
      <point x="1022" y="690" type="line" smooth="yes"/>
      <point x="1020.667" y="387.333"/>
      <point x="909.333" y="226"/>
    </contour>
  </outline>
</glyph>
<glyph name="S" format="2">
  <advance width="1259"/>
  <unicode hex="0053"/>
  <note>
uni0053
</note>
  <outline>
    <contour>
      <point x="658" y="-20" type="curve" smooth="yes"/>
      <point x="980.667" y="-20"/>
      <point x="1186" y="132"/>
      <point x="1186" y="384" type="curve" smooth="yes"/>
      <point x="1186" y="610.667"/>
      <point x="1037.333" y="756.333"/>
      <point x="696" y="859" type="curve" smooth="yes"/>
      <point x="510.667" y="915"/>
      <point x="414" y="973.333"/>
      <point x="414" y="1068" type="curve" smooth="yes"/>
      <point x="414" y="1169.333"/>
      <point x="499.333" y="1237"/>
      <point x="646" y="1237" type="curve" smooth="yes"/>
      <point x="798" y="1237"/>
      <point x="886" y="1159.333"/>
      <point x="886" y="1026" type="curve"/>
      <point x="1186" y="1026" type="line"/>
      <point x="1186" y="1200.667"/>
      <point x="1091.667" y="1344.167"/>
      <point x="929" y="1419.5" type="curve" smooth="yes"/>
      <point x="847.667" y="1457.167"/>
      <point x="755" y="1476"/>
      <point x="651" y="1476" type="curve" smooth="yes"/>
      <point x="444.333" y="1476"/>
      <point x="269.167" y="1402.833"/>
      <point x="180.5" y="1279.5" type="curve" smooth="yes"/>
      <point x="136.167" y="1217.833"/>
      <point x="114" y="1147.667"/>
      <point x="114" y="1069" type="curve" smooth="yes"/>
      <point x="114" y="917.667"/>
      <point x="196.667" y="797.333"/>
      <point x="362" y="708" type="curve" smooth="yes"/>
      <point x="532" y="616"/>
      <point x="885" y="583"/>
      <point x="885" y="382" type="curve" smooth="yes"/>
      <point x="885" y="278"/>
      <point x="800.667" y="217"/>
      <point x="658" y="217" type="curve" smooth="yes"/>
      <point x="466" y="217"/>
      <point x="370" y="297.333"/>
      <point x="370" y="458" type="curve"/>
      <point x="69" y="458" type="line"/>
      <point x="69" y="270"/>
      <point x="168" y="123.5"/>
      <point x="352" y="41.5" type="curve" smooth="yes"/>
      <point x="444" y="0.5"/>
      <point x="546" y="-20"/>
    </contour>
  </outline>
</glyph>
<glyph name="W" format="2">
  <advance width="1791"/>
  <unicode hex="0057"/>
  <note>
uni0057
</note>
  <outline>
    <contour>
      <point x="358" y="0" type="line"/>
      <point x="660" y="0" type="line"/>
      <point x="897" y="974" type="line"/>
      <point x="1134" y="0" type="line"/>
      <point x="1436" y="0" type="line"/>
      <point x="1759" y="1456" type="line"/>
      <point x="1460" y="1456" type="line"/>
      <point x="1264" y="420" type="line"/>
      <point x="1025" y="1456" type="line"/>
      <point x="771" y="1456" type="line"/>
      <point x="531" y="422" type="line"/>
      <point x="334" y="1456" type="line"/>
      <point x="35" y="1456" type="line"/>
    </contour>
  </outline>
</glyph>
<glyph name="X" format="2">
  <advance width="1301"/>
  <unicode hex="0058"/>
  <note>
uni0058
</note>
  <outline>
    <contour>
      <point x="22" y="0" type="line"/>
      <point x="371" y="0" type="line"/>
      <point x="651" y="510" type="line"/>
      <point x="931" y="0" type="line"/>
      <point x="1280" y="0" type="line"/>
      <point x="845" y="734" type="line"/>
      <point x="1269" y="1456" type="line"/>
      <point x="924" y="1456" type="line"/>
      <point x="651" y="954" type="line"/>
      <point x="378" y="1456" type="line"/>
      <point x="33" y="1456" type="line"/>
      <point x="457" y="734" type="line"/>
    </contour>
  </outline>
</glyph>
<glyph name="i" format="2">
  <advance width="543"/>
  <unicode hex="0069"/>
  <note>
uni0069
</note>
  <outline>
    <contour>
      <point x="126" y="0" type="line"/>
      <point x="416" y="0" type="line"/>
      <point x="416" y="1082" type="line"/>
      <point x="126" y="1082" type="line"/>
    </contour>
    <contour>
      <point x="271" y="1212" type="curve" smooth="yes"/>
      <point x="368.333" y="1212"/>
      <point x="433" y="1274"/>
      <point x="433" y="1362" type="curve" smooth="yes"/>
      <point x="433" y="1448.667"/>
      <point x="369.667" y="1511"/>
      <point x="271" y="1511" type="curve" smooth="yes"/>
      <point x="171" y="1511"/>
      <point x="109" y="1448.667"/>
      <point x="109" y="1362" type="curve" smooth="yes"/>
      <point x="109" y="1274"/>
      <point x="173.667" y="1212"/>
    </contour>
  </outline>
</glyph>
<glyph name="n" format="2">
  <advance width="1147"/>
  <unicode hex="006E"/>
  <note>
uni006E
</note>
  <outline>
    <contour>
      <point x="105" y="0" type="line"/>
      <point x="394" y="0" type="line"/>
      <point x="394" y="763" type="line"/>
      <point x="434.667" y="832.333"/>
      <point x="495.667" y="867"/>
      <point x="577" y="867" type="curve" smooth="yes"/>
      <point x="701" y="867"/>
      <point x="750" y="814.667"/>
      <point x="750" y="692" type="curve" smooth="yes"/>
      <point x="750" y="0" type="line"/>
      <point x="1039" y="0" type="line"/>
      <point x="1039" y="699" type="line" smooth="yes"/>
      <point x="1036.333" y="967"/>
      <point x="926.333" y="1102"/>
      <point x="697" y="1102" type="curve" smooth="yes"/>
      <point x="567" y="1102"/>
      <point x="463.333" y="1053.667"/>
      <point x="386" y="957" type="curve"/>
      <point x="377" y="1082" type="line"/>
      <point x="105" y="1082" type="line"/>
    </contour>
  </outline>
</glyph>
<glyph name="braceright" format="2">
  <advance width="676"/>
  <unicode hex="007D"/>
  <note>
uni007D
</note>
  <outline>
    <contour>
      <point x="90" y="-360" type="line"/>
      <point x="324.667" y="-294"/>
      <point x="444.667" y="-144.333"/>
      <point x="450" y="89" type="curve" smooth="yes"/>
      <point x="450" y="306" type="line" smooth="yes"/>
      <point x="450" y="445.333"/>
      <point x="509.333" y="515"/>
      <point x="628" y="515" type="curve"/>
      <point x="628" y="722" type="line"/>
      <point x="512" y="722"/>
      <point x="452.667" y="788.333"/>
      <point x="450" y="921" type="curve" smooth="yes"/>
      <point x="450" y="1136" type="line" smooth="yes"/>
      <point x="448.667" y="1381.333"/>
      <point x="328.667" y="1530.333"/>
      <point x="90" y="1597" type="curve"/>
      <point x="34" y="1436" type="line"/>
      <point x="135.333" y="1398"/>
      <point x="187.333" y="1301.333"/>
      <point x="190" y="1146" type="curve" smooth="yes"/>
      <point x="190" y="937" type="line" smooth="yes"/>
      <point x="190" y="783"/>
      <point x="251" y="676.667"/>
      <point x="373" y="618" type="curve"/>
      <point x="251" y="559.333"/>
      <point x="190" y="454.667"/>
      <point x="190" y="304" type="curve" smooth="yes"/>
      <point x="190" y="92" type="line" smooth="yes"/>
      <point x="187.333" y="-65.333"/>
      <point x="135.333" y="-162"/>
      <point x="34" y="-198" type="curve"/>
    </contour>
  </outline>
</glyph>
<glyph name="yen" format="2">
  <advance width="1098"/>
  <unicode hex="00A5"/>
  <note>
uni00A5
</note>
  <outline>
    <contour>
      <point x="395" y="0" type="line"/>
      <point x="695" y="0" type="line"/>
      <point x="695" y="278" type="line"/>
      <point x="983" y="278" type="line"/>
      <point x="983" y="452" type="line"/>
      <point x="695" y="452" type="line"/>
      <point x="695" y="567" type="line"/>
      <point x="983" y="567" type="line"/>
      <point x="983" y="742" type="line"/>
      <point x="765" y="742" type="line"/>
      <point x="1087" y="1456" type="line"/>
      <point x="774" y="1456" type="line"/>
      <point x="550" y="892" type="line"/>
      <point x="325" y="1456" type="line"/>
      <point x="10" y="1456" type="line"/>
      <point x="333" y="742" type="line"/>
      <point x="89" y="742" type="line"/>
      <point x="89" y="567" type="line"/>
      <point x="395" y="567" type="line"/>
      <point x="395" y="452" type="line"/>
      <point x="89" y="452" type="line"/>
      <point x="89" y="278" type="line"/>
      <point x="395" y="278" type="line"/>
    </contour>
  </outline>
</glyph>
<glyph name="registered" format="2">
  <advance width="1606"/>
  <unicode hex="00AE"/>
  <note>
uni00AE
</note>
  <outline>
    <contour>
      <point x="796" y="-20" type="curve" smooth="yes"/>
      <point x="1050.667" y="-20"/>
      <point x="1284.333" y="120.167"/>
      <point x="1411" y="351.5" type="curve" smooth="yes"/>
      <point x="1474.333" y="467.167"/>
      <point x="1506" y="593"/>
      <point x="1506" y="729" type="curve" smooth="yes"/>
      <point x="1506" y="998.333"/>
      <point x="1374.167" y="1243.833"/>
      <point x="1153.5" y="1376.5" type="curve" smooth="yes"/>
      <point x="1043.167" y="1442.833"/>
      <point x="924" y="1476"/>
      <point x="796" y="1476" type="curve" smooth="yes"/>
      <point x="540" y="1476"/>
      <point x="304.167" y="1334.667"/>
      <point x="179.5" y="1104" type="curve" smooth="yes"/>
      <point x="117.167" y="988.667"/>
      <point x="86" y="863.667"/>
      <point x="86" y="729" type="curve" smooth="yes"/>
      <point x="86" y="458.333"/>
      <point x="219.167" y="213.333"/>
      <point x="438.5" y="80" type="curve" smooth="yes"/>
      <point x="548.167" y="13.333"/>
      <point x="667.333" y="-20"/>
    </contour>
    <contour>
      <point x="796" y="104" type="curve" smooth="yes"/>
      <point x="582.667" y="104"/>
      <point x="388.833" y="223"/>
      <point x="285.5" y="415" type="curve" smooth="yes"/>
      <point x="233.833" y="511"/>
      <point x="208" y="615.667"/>
      <point x="208" y="729" type="curve" smooth="yes"/>
      <point x="210" y="919"/>
      <point x="292" y="1084"/>
      <point x="414" y="1196" type="curve" smooth="yes"/>
      <point x="520" y="1293"/>
      <point x="656" y="1351"/>
      <point x="796" y="1351" type="curve" smooth="yes"/>
      <point x="1013" y="1351"/>
      <point x="1208" y="1227.5"/>
      <point x="1308" y="1037.5" type="curve" smooth="yes"/>
      <point x="1358" y="942.5"/>
      <point x="1383" y="839.667"/>
      <point x="1383" y="729" type="curve" smooth="yes"/>
      <point x="1383" y="506.333"/>
      <point x="1276.833" y="302.333"/>
      <point x="1093.5" y="189" type="curve" smooth="yes"/>
      <point x="1001.833" y="132.333"/>
      <point x="902.667" y="104"/>
    </contour>
    <contour>
      <point x="501" y="316" type="line"/>
      <point x="652" y="316" type="line"/>
      <point x="652" y="653" type="line"/>
      <point x="810" y="653" type="line" smooth="yes"/>
      <point x="912.667" y="653"/>
      <point x="953" y="611.333"/>
      <point x="953" y="510" type="curve" smooth="yes"/>
      <point x="953" y="403.333"/>
      <point x="957.333" y="338.667"/>
      <point x="966" y="316" type="curve"/>
      <point x="1121" y="316" type="line"/>
      <point x="1121" y="332" type="line"/>
      <point x="1105.865" y="366.811"/>
      <point x="1104" y="414.475"/>
      <point x="1104" y="505" type="curve" smooth="yes"/>
      <point x="1104" y="614.333"/>
      <point x="1075.333" y="687.667"/>
      <point x="994" y="729" type="curve"/>
      <point x="1069.333" y="770.333"/>
      <point x="1107" y="828.333"/>
      <point x="1107" y="903" type="curve" smooth="yes"/>
      <point x="1107" y="1071"/>
      <point x="983.333" y="1166"/>
      <point x="782" y="1166" type="curve" smooth="yes"/>
      <point x="501" y="1166" type="line"/>
    </contour>
    <contour>
      <point x="652" y="787" type="line"/>
      <point x="652" y="1033" type="line"/>
      <point x="793" y="1033" type="line" smooth="yes"/>
      <point x="917" y="1033"/>
      <point x="957" y="996.333"/>
      <point x="957" y="903" type="curve" smooth="yes"/>
      <point x="957" y="833.667"/>
      <point x="886.667" y="787"/>
      <point x="788" y="787" type="curve" smooth="yes"/>
    </contour>
  </outline>
</glyph>
<glyph name="Thorn" format="2">
  <advance width="1246"/>
  <unicode hex="00DE"/>
  <note>
uni00DE
</note>
  <outline>
    <contour>
      <point x="133" y="0" type="line"/>
      <point x="422" y="0" type="line"/>
      <point x="422" y="287" type="line"/>
      <point x="664" y="287" type="line" smooth="yes"/>
      <point x="984" y="293.667"/>
      <point x="1181" y="468.667"/>
      <point x="1181" y="738" type="curve" smooth="yes"/>
      <point x="1181" y="916.667"/>
      <point x="1092.833" y="1058.5"/>
      <point x="933.5" y="1132.5" type="curve" smooth="yes"/>
      <point x="853.833" y="1169.5"/>
      <point x="760" y="1188.333"/>
      <point x="652" y="1189" type="curve" smooth="yes"/>
      <point x="422" y="1189" type="line"/>
      <point x="422" y="1456" type="line"/>
      <point x="133" y="1456" type="line"/>
    </contour>
    <contour>
      <point x="422" y="520" type="line"/>
      <point x="422" y="956" type="line"/>
      <point x="653" y="956" type="line" smooth="yes"/>
      <point x="802.333" y="953.333"/>
      <point x="892" y="866.667"/>
      <point x="892" y="736" type="curve" smooth="yes"/>
      <point x="892" y="605.333"/>
      <point x="801" y="520"/>
      <point x="645" y="520" type="curve" smooth="yes"/>
    </contour>
  </outline>
</glyph>
<glyph name="germandbls" format="2">
  <advance width="1292"/>
  <unicode hex="00DF"/>
  <note>
uni00DF
</note>
  <outline>
    <contour>
      <point x="779" y="-20" type="curve" smooth="yes"/>
      <point x="904" y="-20"/>
      <point x="1004" y="6"/>
      <point x="1078" y="55" type="curve" smooth="yes"/>
      <point x="1173" y="119"/>
      <point x="1224" y="221"/>
      <point x="1224" y="354" type="curve" smooth="yes"/>
      <point x="1224" y="452.667"/>
      <point x="1173.667" y="546.667"/>
      <point x="1073" y="636" type="curve" smooth="yes"/>
      <point x="1022" y="681"/>
      <point x="924" y="760"/>
      <point x="924" y="830" type="curve" smooth="yes"/>
      <point x="924" y="881.333"/>
      <point x="941.833" y="936"/>
      <point x="977.5" y="994" type="curve" smooth="yes"/>
      <point x="1013.167" y="1052"/>
      <point x="1031" y="1117"/>
      <point x="1031" y="1189" type="curve" smooth="yes"/>
      <point x="1031" y="1417"/>
      <point x="863.667" y="1559"/>
      <point x="609" y="1559" type="curve" smooth="yes"/>
      <point x="307.667" y="1559"/>
      <point x="135" y="1394.333"/>
      <point x="135" y="1101" type="curve" smooth="yes"/>
      <point x="135" y="0" type="line"/>
      <point x="424" y="0" type="line"/>
      <point x="424" y="1114" type="line" smooth="yes"/>
      <point x="427.333" y="1256"/>
      <point x="482" y="1327"/>
      <point x="588" y="1327" type="curve" smooth="yes"/>
      <point x="678.667" y="1327"/>
      <point x="745" y="1267.333"/>
      <point x="745" y="1174" type="curve" smooth="yes"/>
      <point x="745" y="1121.333"/>
      <point x="726.667" y="1064.833"/>
      <point x="690" y="1004.5" type="curve" smooth="yes"/>
      <point x="653.333" y="944.167"/>
      <point x="635" y="882"/>
      <point x="635" y="818" type="curve" smooth="yes"/>
      <point x="635" y="718"/>
      <point x="685" y="628"/>
      <point x="785" y="548" type="curve" smooth="yes"/>
      <point x="894.333" y="460"/>
      <point x="936" y="410.333"/>
      <point x="936" y="349" type="curve" smooth="yes"/>
      <point x="936" y="265"/>
      <point x="878.333" y="213"/>
      <point x="773" y="213" type="curve" smooth="yes"/>
      <point x="692.333" y="213"/>
      <point x="619.333" y="230.333"/>
      <point x="554" y="265" type="curve"/>
      <point x="500" y="36" type="line"/>
      <point x="553.333" y="4"/>
      <point x="671" y="-20"/>
    </contour>
  </outline>
</glyph>
<glyph name="eth" format="2">
  <advance width="1178"/>
  <unicode hex="00F0"/>
  <note>
uni00F0
</note>
  <outline>
    <contour>
      <point x="587" y="-20" type="curve" smooth="yes"/>
      <point x="783" y="-20"/>
      <point x="949.833" y="85.333"/>
      <point x="1038.5" y="268" type="curve" smooth="yes"/>
      <point x="1082.833" y="359.333"/>
      <point x="1105" y="462.333"/>
      <point x="1105" y="577" type="curve" smooth="yes"/>
      <point x="1105" y="651" type="line" smooth="yes"/>
      <point x="1104.333" y="912.333"/>
      <point x="1019" y="1130.333"/>
      <point x="849" y="1305" type="curve"/>
      <point x="988" y="1394" type="line"/>
      <point x="911" y="1508" type="line"/>
      <point x="740" y="1399" type="line"/>
      <point x="621.333" y="1487"/>
      <point x="482.667" y="1547"/>
      <point x="324" y="1579" type="curve"/>
      <point x="233" y="1355" type="line"/>
      <point x="331.667" y="1329"/>
      <point x="419.667" y="1292"/>
      <point x="497" y="1244" type="curve"/>
      <point x="345" y="1147" type="line"/>
      <point x="423" y="1033" type="line"/>
      <point x="614" y="1155" type="line"/>
      <point x="692" y="1079.667"/>
      <point x="747.333" y="991.333"/>
      <point x="780" y="890" type="curve"/>
      <point x="708" y="940.667"/>
      <point x="626.667" y="966"/>
      <point x="536" y="966" type="curve" smooth="yes"/>
      <point x="261.333" y="966"/>
      <point x="84" y="776"/>
      <point x="84" y="468" type="curve" smooth="yes"/>
      <point x="84" y="286.667"/>
      <point x="174.667" y="128.167"/>
      <point x="328" y="43.5" type="curve" smooth="yes"/>
      <point x="404.667" y="1.167"/>
      <point x="491" y="-20"/>
    </contour>
    <contour>
      <point x="591" y="213" type="curve" smooth="yes"/>
      <point x="460.333" y="213"/>
      <point x="373" y="318.667"/>
      <point x="373" y="468" type="curve" smooth="yes"/>
      <point x="373" y="640"/>
      <point x="450.333" y="746"/>
      <point x="601" y="746" type="curve" smooth="yes"/>
      <point x="699" y="746"/>
      <point x="770.667" y="718.333"/>
      <point x="816" y="663" type="curve"/>
      <point x="816" y="552" type="line" smooth="yes"/>
      <point x="816" y="341.333"/>
      <point x="728.333" y="213"/>
    </contour>
  </outline>
</glyph>
<glyph name="OE" format="2">
  <advance width="1983"/>
  <unicode hex="0152"/>
  <note>
uni0152
</note>
  <outline>
    <contour>
      <point x="702" y="-20" type="curve" smooth="yes"/>
      <point x="782.667" y="-20"/>
      <point x="878.667" y="-13.333"/>
      <point x="990" y="0" type="curve"/>
      <point x="1876" y="0" type="line"/>
      <point x="1876" y="241" type="line"/>
      <point x="1201" y="241" type="line"/>
      <point x="1201" y="631" type="line"/>
      <point x="1776" y="631" type="line"/>
      <point x="1776" y="866" type="line"/>
      <point x="1201" y="866" type="line"/>
      <point x="1201" y="1213" type="line"/>
      <point x="1874" y="1213" type="line"/>
      <point x="1874" y="1456" type="line"/>
      <point x="990" y="1456" type="line"/>
      <point x="878.667" y="1469.333"/>
      <point x="782" y="1476"/>
      <point x="700" y="1476" type="curve" smooth="yes"/>
      <point x="136.679" y="1473.432"/>
      <point x="96" y="934"/>
      <point x="96" y="880" type="curve" smooth="yes"/>
      <point x="96" y="563" type="line" smooth="yes"/>
      <point x="106.051" y="33.051"/>
      <point x="638" y="-20"/>
    </contour>
    <contour>
      <point x="702" y="212" type="curve" smooth="yes"/>
      <point x="502" y="212"/>
      <point x="385" y="341.333"/>
      <point x="385" y="576" type="curve" smooth="yes"/>
      <point x="385" y="885" type="line" smooth="yes"/>
      <point x="386.333" y="1115.667"/>
      <point x="500" y="1243"/>
      <point x="700" y="1243" type="curve" smooth="yes"/>
      <point x="758.667" y="1243"/>
      <point x="825.333" y="1238.333"/>
      <point x="900" y="1229" type="curve"/>
      <point x="900" y="225" type="line"/>
      <point x="830.667" y="216.333"/>
      <point x="764.667" y="212"/>
    </contour>
  </outline>
</glyph>
<glyph name="dieresistonos" format="2">
  <advance width="1123"/>
  <unicode hex="0385"/>
  <note>
uni0385
</note>
  <outline>
    <contour>
      <point x="464" y="1419" type="line"/>
      <point x="612" y="1419" type="line"/>
      <point x="766" y="1751" type="line"/>
      <point x="507" y="1751" type="line"/>
    </contour>
    <contour>
      <point x="241" y="1239" type="curve" smooth="yes"/>
      <point x="323.667" y="1239"/>
      <point x="379" y="1295.667"/>
      <point x="379" y="1365" type="curve" smooth="yes"/>
      <point x="379" y="1434.333"/>
      <point x="323.667" y="1492"/>
      <point x="241" y="1492" type="curve" smooth="yes"/>
      <point x="158.333" y="1492"/>
      <point x="102" y="1434.333"/>
      <point x="102" y="1365" type="curve" smooth="yes"/>
      <point x="102" y="1294.333"/>
      <point x="159.667" y="1239"/>
    </contour>
    <contour>
      <point x="857" y="1238" type="curve" smooth="yes"/>
      <point x="939.667" y="1238"/>
      <point x="996" y="1295.667"/>
      <point x="996" y="1365" type="curve" smooth="yes"/>
      <point x="996" y="1437"/>
      <point x="934.333" y="1492"/>
      <point x="857" y="1492" type="curve" smooth="yes"/>
      <point x="778.333" y="1492"/>
      <point x="719" y="1435.667"/>
      <point x="719" y="1365" type="curve" smooth="yes"/>
      <point x="719" y="1295.667"/>
      <point x="774.333" y="1238"/>
    </contour>
  </outline>
</glyph>
<glyph name="ha-ethiopic" format="2">
  <advance width="1264"/>
  <unicode hex="1200"/>
  <outline>
    <contour>
      <point x="642" y="-28" type="curve"/>
      <point x="897" y="-28"/>
      <point x="1097" y="110"/>
      <point x="1097" y="368" type="curve" smooth="yes"/>
      <point x="1097" y="1083" type="line" name="❌"/>
      <point x="809" y="1083" type="line" name="❌"/>
      <point x="809" y="367" type="line" smooth="yes"/>
      <point x="809" y="290"/>
      <point x="750" y="215"/>
      <point x="648" y="215" type="curve" smooth="yes"/>
      <point x="583" y="215"/>
      <point x="453" y="235"/>
      <point x="453" y="367" type="curve" smooth="yes"/>
      <point x="453" y="1083" type="line" name="❌"/>
      <point x="164" y="1083" type="line" name="❌"/>
      <point x="164" y="335" type="line" smooth="yes"/>
      <point x="164" y="126"/>
      <point x="378" y="-10"/>
    </contour>
  </outline>
</glyph>
<glyph name="hu-ethiopic" format="2">
  <advance width="1264"/>
  <unicode hex="1201"/>
  <outline>
    <contour>
      <point x="642" y="-28" type="curve"/>
      <point x="897" y="-28"/>
      <point x="1097" y="110"/>
      <point x="1097" y="368" type="curve" smooth="yes"/>
      <point x="1097" y="1083" type="line" name="❌"/>
      <point x="809" y="1083" type="line" name="❌"/>
      <point x="809" y="367" type="line" smooth="yes"/>
      <point x="809" y="290"/>
      <point x="750" y="215"/>
      <point x="648" y="215" type="curve" smooth="yes"/>
      <point x="583" y="215"/>
      <point x="453" y="235"/>
      <point x="453" y="367" type="curve" smooth="yes"/>
      <point x="453" y="1083" type="line" name="❌"/>
      <point x="164" y="1083" type="line" name="❌"/>
      <point x="164" y="335" type="line" smooth="yes"/>
      <point x="164" y="126"/>
      <point x="378" y="-10"/>
    </contour>
    <contour>
      <point x="1197" y="499" type="curve" smooth="yes"/>
      <point x="1289" y="499"/>
      <point x="1345" y="555"/>
      <point x="1345" y="635" type="curve" smooth="yes"/>
      <point x="1345" y="715"/>
      <point x="1289" y="772"/>
      <point x="1197" y="772" type="curve" smooth="yes" name="❌"/>
      <point x="1108" y="772"/>
      <point x="1049" y="715"/>
      <point x="1049" y="635" type="curve" smooth="yes"/>
      <point x="1049" y="555"/>
      <point x="1106" y="499"/>
    </contour>
  </outline>
</glyph>
<glyph name="hi-ethiopic" format="2">
  <advance width="1264"/>
  <unicode hex="1202"/>
  <outline>
    <contour>
      <point x="642" y="-28" type="curve"/>
      <point x="897" y="-28"/>
      <point x="1097" y="110"/>
      <point x="1097" y="368" type="curve" smooth="yes"/>
      <point x="1097" y="1083" type="line" name="❌"/>
      <point x="809" y="1083" type="line" name="❌"/>
      <point x="809" y="367" type="line" smooth="yes"/>
      <point x="809" y="290"/>
      <point x="750" y="215"/>
      <point x="648" y="215" type="curve" smooth="yes"/>
      <point x="583" y="215"/>
      <point x="453" y="235"/>
      <point x="453" y="367" type="curve" smooth="yes"/>
      <point x="453" y="1083" type="line" name="❌"/>
      <point x="164" y="1083" type="line" name="❌"/>
      <point x="164" y="335" type="line" smooth="yes"/>
      <point x="164" y="126"/>
      <point x="378" y="-10"/>
    </contour>
    <contour>
      <point x="1254" y="-417" type="curve" smooth="yes"/>
      <point x="1346" y="-417"/>
      <point x="1402" y="-361"/>
      <point x="1402" y="-281" type="curve" smooth="yes"/>
      <point x="1402" y="-201"/>
      <point x="1346" y="-144"/>
      <point x="1254" y="-144" type="curve" smooth="yes"/>
      <point x="1165" y="-144"/>
      <point x="1106" y="-201"/>
      <point x="1106" y="-281" type="curve" smooth="yes"/>
      <point x="1106" y="-361"/>
      <point x="1163" y="-417"/>
    </contour>
    <contour>
      <point x="814" y="-417" type="line"/>
      <point x="1104" y="-417" type="line"/>
      <point x="1104" y="-13" type="line"/>
      <point x="814" y="-13" type="line"/>
    </contour>
  </outline>
</glyph>
<glyph name="haa-ethiopic" format="2">
  <advance width="1264"/>
  <unicode hex="1203"/>
  <outline>
    <contour>
      <point x="642" y="-28" type="curve"/>
      <point x="897" y="-28"/>
      <point x="1097" y="110"/>
      <point x="1097" y="368" type="curve" smooth="yes"/>
      <point x="1097" y="1083" type="line" name="❌"/>
      <point x="809" y="1083" type="line" name="❌"/>
      <point x="809" y="367" type="line" smooth="yes"/>
      <point x="809" y="290"/>
      <point x="750" y="215"/>
      <point x="648" y="215" type="curve" smooth="yes"/>
      <point x="583" y="215"/>
      <point x="453" y="235"/>
      <point x="453" y="367" type="curve" smooth="yes"/>
      <point x="453" y="1083" type="line" name="❌"/>
      <point x="164" y="1083" type="line" name="❌"/>
      <point x="164" y="335" type="line" smooth="yes"/>
      <point x="164" y="126"/>
      <point x="378" y="-10"/>
    </contour>
    <contour>
      <point x="814" y="-417" type="line"/>
      <point x="1104" y="-417" type="line"/>
      <point x="1104" y="-13" type="line"/>
      <point x="814" y="-13" type="line"/>
    </contour>
  </outline>
</glyph>
<glyph name="hee-ethiopic" format="2">
  <advance width="1264"/>
  <unicode hex="1204"/>
  <outline>
    <contour>
      <point x="642" y="-28" type="curve"/>
      <point x="897" y="-28"/>
      <point x="1097" y="110"/>
      <point x="1097" y="368" type="curve" smooth="yes"/>
      <point x="1097" y="1083" type="line" name="❌"/>
      <point x="809" y="1083" type="line" name="❌"/>
      <point x="809" y="367" type="line" smooth="yes"/>
      <point x="809" y="290"/>
      <point x="750" y="215"/>
      <point x="648" y="215" type="curve" smooth="yes"/>
      <point x="583" y="215"/>
      <point x="453" y="235"/>
      <point x="453" y="367" type="curve" smooth="yes"/>
      <point x="453" y="1083" type="line" name="❌"/>
      <point x="164" y="1083" type="line" name="❌"/>
      <point x="164" y="335" type="line" smooth="yes"/>
      <point x="164" y="126"/>
      <point x="378" y="-10"/>
    </contour>
    <contour>
      <point x="872" y="-477" type="curve" smooth="yes"/>
      <point x="1044" y="-477"/>
      <point x="1174" y="-358"/>
      <point x="1174" y="-205" type="curve" smooth="yes"/>
      <point x="1174" y="-46"/>
      <point x="1039" y="73"/>
      <point x="872" y="73" type="curve" smooth="yes"/>
      <point x="704" y="73"/>
      <point x="570" y="-49"/>
      <point x="570" y="-205" type="curve" smooth="yes"/>
      <point x="570" y="-355"/>
      <point x="697" y="-477"/>
    </contour>
    <contour>
      <point x="922" y="-435" type="curve" smooth="yes"/>
      <point x="803" y="-435"/>
      <point x="730" y="-350"/>
      <point x="730" y="-244" type="curve" smooth="yes"/>
      <point x="730" y="-136"/>
      <point x="806" y="-51"/>
      <point x="922" y="-51" type="curve" smooth="yes"/>
      <point x="1038" y="-51"/>
      <point x="1114" y="-136"/>
      <point x="1114" y="-244" type="curve" smooth="yes"/>
      <point x="1114" y="-350"/>
      <point x="1041" y="-435"/>
    </contour>
  </outline>
</glyph>
<glyph name="he-ethiopic" format="2">
  <advance width="1264"/>
  <unicode hex="1205"/>
  <outline>
    <contour>
      <point x="642" y="-28" type="curve"/>
      <point x="897" y="-28"/>
      <point x="1097" y="110"/>
      <point x="1097" y="368" type="curve" smooth="yes"/>
      <point x="1097" y="1083" type="line" name="❌"/>
      <point x="809" y="1083" type="line" name="❌"/>
      <point x="809" y="367" type="line" smooth="yes"/>
      <point x="809" y="290"/>
      <point x="750" y="215"/>
      <point x="648" y="215" type="curve" smooth="yes"/>
      <point x="583" y="215"/>
      <point x="453" y="235"/>
      <point x="453" y="367" type="curve" smooth="yes"/>
      <point x="453" y="1083" type="line" name="❌"/>
      <point x="164" y="1083" type="line" name="❌"/>
      <point x="164" y="335" type="line" smooth="yes"/>
      <point x="164" y="126"/>
      <point x="378" y="-10"/>
    </contour>
    <contour>
      <point x="532" y="642" type="curve" smooth="yes"/>
      <point x="624" y="642"/>
      <point x="680" y="698"/>
      <point x="680" y="778" type="curve" smooth="yes"/>
      <point x="680" y="858"/>
      <point x="624" y="915"/>
      <point x="532" y="915" type="curve" smooth="yes"/>
      <point x="443" y="915"/>
      <point x="384" y="858"/>
      <point x="384" y="778" type="curve" smooth="yes"/>
      <point x="384" y="698"/>
      <point x="441" y="642"/>
    </contour>
  </outline>
</glyph>
<glyph name="hoa-ethiopic" format="2">
  <advance width="1264"/>
  <unicode hex="1207"/>
  <outline>
    <contour>
      <point x="642" y="-28" type="curve"/>
      <point x="897" y="-28"/>
      <point x="1097" y="110"/>
      <point x="1097" y="368" type="curve" smooth="yes"/>
      <point x="1097" y="1083" type="line" name="❌"/>
      <point x="809" y="1083" type="line" name="❌"/>
      <point x="809" y="367" type="line" smooth="yes"/>
      <point x="809" y="290"/>
      <point x="750" y="215"/>
      <point x="648" y="215" type="curve" smooth="yes"/>
      <point x="583" y="215"/>
      <point x="453" y="235"/>
      <point x="453" y="367" type="curve" smooth="yes"/>
      <point x="453" y="1083" type="line" name="❌"/>
      <point x="164" y="1083" type="line" name="❌"/>
      <point x="164" y="335" type="line" smooth="yes"/>
      <point x="164" y="126"/>
      <point x="378" y="-10"/>
    </contour>
    <contour>
      <point x="856" y="971" type="curve" smooth="yes"/>
      <point x="1024" y="971"/>
      <point x="1158" y="1093"/>
      <point x="1158" y="1249" type="curve" smooth="yes"/>
      <point x="1158" y="1399"/>
      <point x="1031" y="1521"/>
      <point x="856" y="1521" type="curve" smooth="yes"/>
      <point x="684" y="1521"/>
      <point x="554" y="1402"/>
      <point x="554" y="1249" type="curve" smooth="yes"/>
      <point x="554" y="1090"/>
      <point x="689" y="971"/>
    </contour>
    <contour>
      <point x="806" y="1095" type="curve" smooth="yes"/>
      <point x="690" y="1095"/>
      <point x="614" y="1180"/>
      <point x="614" y="1288" type="curve" smooth="yes"/>
      <point x="614" y="1394"/>
      <point x="687" y="1479"/>
      <point x="806" y="1479" type="curve" smooth="yes"/>
      <point x="925" y="1479"/>
      <point x="998" y="1394"/>
      <point x="998" y="1288" type="curve" smooth="yes"/>
      <point x="998" y="1180"/>
      <point x="922" y="1095"/>
    </contour>
    <contour>
      <point x="49" y="539" type="curve" smooth="yes"/>
      <point x="141" y="539"/>
      <point x="197" y="595"/>
      <point x="197" y="675" type="curve" smooth="yes"/>
      <point x="197" y="755"/>
      <point x="141" y="812"/>
      <point x="49" y="812" type="curve" smooth="yes"/>
      <point x="-40" y="812"/>
      <point x="-99" y="755"/>
      <point x="-99" y="675" type="curve" smooth="yes"/>
      <point x="-99" y="595"/>
      <point x="-42" y="539"/>
    </contour>
  </outline>
</glyph>
<glyph name="la-ethiopic" format="2">
  <advance width="1266"/>
  <unicode hex="1208"/>
  <outline>
    <contour>
      <point x="164" y="0" type="line"/>
      <point x="453" y="0" type="line"/>
      <point x="453" y="769" type="line"/>
      <point x="491" y="834"/>
      <point x="552" y="867"/>
      <point x="637" y="867" type="curve" smooth="yes"/>
      <point x="761" y="867"/>
      <point x="810" y="809"/>
      <point x="810" y="685" type="curve" smooth="yes"/>
      <point x="810" y="0" type="line"/>
      <point x="1099" y="0" type="line"/>
      <point x="1099" y="708" type="line" smooth="yes"/>
      <point x="1099" y="981"/>
      <point x="979" y="1102"/>
      <point x="742" y="1102" type="curve" smooth="yes"/>
      <point x="626" y="1102"/>
      <point x="530" y="1056"/>
      <point x="453" y="964" type="curve"/>
      <point x="453" y="1536" type="line"/>
      <point x="164" y="1536" type="line"/>
    </contour>
  </outline>
</glyph>
<glyph name="li-ethiopic" format="2">
  <advance width="1266"/>
  <unicode hex="120A"/>
  <outline>
    <contour>
      <point x="164" y="0" type="line"/>
      <point x="453" y="0" type="line"/>
      <point x="453" y="769" type="line"/>
      <point x="491" y="834"/>
      <point x="552" y="867"/>
      <point x="637" y="867" type="curve" smooth="yes"/>
      <point x="761" y="867"/>
      <point x="810" y="809"/>
      <point x="810" y="685" type="curve" smooth="yes"/>
      <point x="810" y="0" type="line"/>
      <point x="1099" y="0" type="line"/>
      <point x="1099" y="708" type="line" smooth="yes"/>
      <point x="1099" y="981"/>
      <point x="979" y="1102"/>
      <point x="742" y="1102" type="curve" smooth="yes"/>
      <point x="626" y="1102"/>
      <point x="530" y="1056"/>
      <point x="453" y="964" type="curve"/>
      <point x="453" y="1536" type="line"/>
      <point x="164" y="1536" type="line"/>
    </contour>
    <contour>
      <point x="1203" y="3" type="curve" smooth="yes"/>
      <point x="1295" y="3"/>
      <point x="1351" y="59"/>
      <point x="1351" y="139" type="curve" smooth="yes"/>
      <point x="1351" y="219"/>
      <point x="1295" y="276"/>
      <point x="1203" y="276" type="curve" smooth="yes"/>
      <point x="1114" y="276"/>
      <point x="1055" y="219"/>
      <point x="1055" y="139" type="curve" smooth="yes"/>
      <point x="1055" y="59"/>
      <point x="1112" y="3"/>
    </contour>
  </outline>
</glyph>
<glyph name="lee-ethiopic" format="2">
  <advance width="1266"/>
  <unicode hex="120C"/>
  <outline>
    <contour>
      <point x="164" y="0" type="line"/>
      <point x="453" y="0" type="line"/>
      <point x="453" y="769" type="line"/>
      <point x="491" y="834"/>
      <point x="552" y="867"/>
      <point x="637" y="867" type="curve" smooth="yes"/>
      <point x="761" y="867"/>
      <point x="810" y="809"/>
      <point x="810" y="685" type="curve" smooth="yes"/>
      <point x="810" y="0" type="line"/>
      <point x="1099" y="0" type="line"/>
      <point x="1099" y="708" type="line" smooth="yes"/>
      <point x="1099" y="981"/>
      <point x="979" y="1102"/>
      <point x="742" y="1102" type="curve" smooth="yes"/>
      <point x="626" y="1102"/>
      <point x="530" y="1056"/>
      <point x="453" y="964" type="curve"/>
      <point x="453" y="1536" type="line"/>
      <point x="164" y="1536" type="line"/>
    </contour>
    <contour>
      <point x="858" y="-411" type="curve" smooth="yes"/>
      <point x="1030" y="-411"/>
      <point x="1160" y="-292"/>
      <point x="1160" y="-139" type="curve" smooth="yes"/>
      <point x="1160" y="20"/>
      <point x="1025" y="139"/>
      <point x="858" y="139" type="curve" smooth="yes"/>
      <point x="690" y="139"/>
      <point x="556" y="17"/>
      <point x="556" y="-139" type="curve" smooth="yes"/>
      <point x="556" y="-289"/>
      <point x="683" y="-411"/>
    </contour>
    <contour>
      <point x="908" y="-369" type="curve" smooth="yes"/>
      <point x="789" y="-369"/>
      <point x="716" y="-284"/>
      <point x="716" y="-178" type="curve" smooth="yes"/>
      <point x="716" y="-70"/>
      <point x="792" y="15"/>
      <point x="908" y="15" type="curve" smooth="yes"/>
      <point x="1024" y="15"/>
      <point x="1100" y="-70"/>
      <point x="1100" y="-178" type="curve" smooth="yes"/>
      <point x="1100" y="-284"/>
      <point x="1027" y="-369"/>
    </contour>
  </outline>
</glyph>
<glyph name="le-ethiopic" format="2">
  <advance width="1266"/>
  <unicode hex="120D"/>
  <outline>
    <contour>
      <point x="164" y="0" type="line"/>
      <point x="453" y="0" type="line"/>
      <point x="453" y="769" type="line"/>
      <point x="491" y="834"/>
      <point x="552" y="867"/>
      <point x="637" y="867" type="curve" smooth="yes"/>
      <point x="761" y="867"/>
      <point x="810" y="809"/>
      <point x="810" y="685" type="curve" smooth="yes"/>
      <point x="810" y="0" type="line"/>
      <point x="1099" y="0" type="line"/>
      <point x="1099" y="708" type="line" smooth="yes"/>
      <point x="1099" y="981"/>
      <point x="979" y="1102"/>
      <point x="742" y="1102" type="curve" smooth="yes"/>
      <point x="626" y="1102"/>
      <point x="530" y="1056"/>
      <point x="453" y="964" type="curve"/>
      <point x="453" y="1536" type="line"/>
      <point x="164" y="1536" type="line"/>
    </contour>
    <contour>
      <point x="467" y="-302" type="curve" smooth="yes"/>
      <point x="639" y="-302"/>
      <point x="769" y="-183"/>
      <point x="769" y="-30" type="curve" smooth="yes"/>
      <point x="769" y="129"/>
      <point x="634" y="248"/>
      <point x="467" y="248" type="curve" smooth="yes"/>
      <point x="299" y="248"/>
      <point x="165" y="126"/>
      <point x="165" y="-30" type="curve" smooth="yes"/>
      <point x="165" y="-180"/>
      <point x="292" y="-302"/>
    </contour>
    <contour>
      <point x="587" y="-216" type="curve" smooth="yes"/>
      <point x="496" y="-216"/>
      <point x="439" y="-150"/>
      <point x="439" y="-69" type="curve" smooth="yes"/>
      <point x="439" y="14"/>
      <point x="498" y="80"/>
      <point x="587" y="80" type="curve" smooth="yes"/>
      <point x="676" y="80"/>
      <point x="735" y="14"/>
      <point x="735" y="-69" type="curve" smooth="yes"/>
      <point x="735" y="-150"/>
      <point x="678" y="-216"/>
    </contour>
  </outline>
</glyph>
<glyph name="lo-ethiopic" format="2">
  <advance width="1266"/>
  <unicode hex="120E"/>
  <outline>
    <contour>
      <point x="164" y="0" type="line"/>
      <point x="453" y="0" type="line"/>
      <point x="453" y="769" type="line"/>
      <point x="491" y="834"/>
      <point x="552" y="867"/>
      <point x="637" y="867" type="curve" smooth="yes"/>
      <point x="761" y="867"/>
      <point x="810" y="809"/>
      <point x="810" y="685" type="curve" smooth="yes"/>
      <point x="810" y="0" type="line"/>
      <point x="1099" y="0" type="line"/>
      <point x="1099" y="708" type="line" smooth="yes"/>
      <point x="1099" y="981"/>
      <point x="979" y="1102"/>
      <point x="742" y="1102" type="curve" smooth="yes"/>
      <point x="626" y="1102"/>
      <point x="530" y="1056"/>
      <point x="453" y="964" type="curve"/>
      <point x="453" y="1536" type="line"/>
      <point x="164" y="1536" type="line"/>
    </contour>
    <contour>
      <point x="979" y="263" type="curve" smooth="yes"/>
      <point x="1147" y="263"/>
      <point x="1281" y="385"/>
      <point x="1281" y="541" type="curve" smooth="yes"/>
      <point x="1281" y="691"/>
      <point x="1154" y="813"/>
      <point x="979" y="813" type="curve" smooth="yes"/>
      <point x="807" y="813"/>
      <point x="677" y="694"/>
      <point x="677" y="541" type="curve" smooth="yes"/>
      <point x="677" y="382"/>
      <point x="812" y="263"/>
    </contour>
    <contour>
      <point x="929" y="387" type="curve" smooth="yes"/>
      <point x="813" y="387"/>
      <point x="737" y="472"/>
      <point x="737" y="580" type="curve" smooth="yes"/>
      <point x="737" y="686"/>
      <point x="810" y="771"/>
      <point x="929" y="771" type="curve" smooth="yes"/>
      <point x="1048" y="771"/>
      <point x="1121" y="686"/>
      <point x="1121" y="580" type="curve" smooth="yes"/>
      <point x="1121" y="472"/>
      <point x="1045" y="387"/>
    </contour>
  </outline>
</glyph>
<glyph name="lwa-ethiopic" format="2">
  <advance width="1266"/>
  <unicode hex="120F"/>
  <outline>
    <contour>
      <point x="164" y="0" type="line"/>
      <point x="453" y="0" type="line"/>
      <point x="453" y="769" type="line"/>
      <point x="491" y="834"/>
      <point x="552" y="867"/>
      <point x="637" y="867" type="curve" smooth="yes"/>
      <point x="761" y="867"/>
      <point x="810" y="809"/>
      <point x="810" y="685" type="curve" smooth="yes"/>
      <point x="810" y="0" type="line"/>
      <point x="1099" y="0" type="line"/>
      <point x="1099" y="708" type="line" smooth="yes"/>
      <point x="1099" y="981"/>
      <point x="979" y="1102"/>
      <point x="742" y="1102" type="curve" smooth="yes"/>
      <point x="626" y="1102"/>
      <point x="530" y="1056"/>
      <point x="453" y="964" type="curve"/>
      <point x="453" y="1536" type="line"/>
      <point x="164" y="1536" type="line"/>
    </contour>
    <contour>
      <point x="577" y="-372" type="line"/>
      <point x="1095" y="-372" type="line"/>
      <point x="1095" y="-468" type="line"/>
      <point x="1269" y="-468" type="line"/>
      <point x="1269" y="-181" type="line"/>
      <point x="1099" y="-181" type="line"/>
      <point x="1099" y="-16" type="line"/>
      <point x="871" y="-16" type="line"/>
      <point x="871" y="-181" type="line"/>
      <point x="577" y="-181" type="line"/>
    </contour>
  </outline>
</glyph>
<glyph name="maa-ethiopic" format="2">
  <advance width="1851"/>
  <unicode hex="121B"/>
  <outline>
    <contour>
      <point x="319" y="0" type="curve" smooth="yes"/>
      <point x="587" y="0" type="line" smooth="yes"/>
      <point x="790" y="0"/>
      <point x="863" y="133"/>
      <point x="863" y="240" type="curve" smooth="yes"/>
      <point x="863" y="764" type="line" smooth="yes"/>
      <point x="863" y="852"/>
      <point x="988" y="868"/>
      <point x="988" y="769" type="curve" smooth="yes"/>
      <point x="988" y="234" type="line" smooth="yes"/>
      <point x="988" y="128"/>
      <point x="1043" y="0"/>
      <point x="1255" y="0" type="curve" smooth="yes"/>
      <point x="1514" y="0" type="line" smooth="yes"/>
      <point x="1602" y="0"/>
      <point x="1683" y="68"/>
      <point x="1683" y="169" type="curve" smooth="yes"/>
      <point x="1683" y="725" type="line" smooth="yes"/>
      <point x="1683" y="976"/>
      <point x="1603" y="1102"/>
      <point x="1361" y="1102" type="curve" smooth="yes"/>
      <point x="1164" y="1102"/>
      <point x="1074" y="1075"/>
      <point x="1004" y="979" type="curve"/>
      <point x="802" y="976" type="line"/>
      <point x="736" y="1067"/>
      <point x="672" y="1100"/>
      <point x="538" y="1102" type="curve" smooth="yes"/>
      <point x="200" y="1107"/>
      <point x="165" y="967"/>
      <point x="165" y="800" type="curve" smooth="yes"/>
      <point x="165" y="166" type="line" smooth="yes"/>
      <point x="165" y="33"/>
      <point x="246" y="0"/>
    </contour>
    <contour>
      <point x="439" y="195" type="line"/>
      <point x="439" y="718" type="line" smooth="yes"/>
      <point x="439" y="832"/>
      <point x="450" y="876"/>
      <point x="548" y="876" type="curve" smooth="yes"/>
      <point x="618" y="876"/>
      <point x="627" y="806"/>
      <point x="627" y="718" type="curve" smooth="yes"/>
      <point x="627" y="329" type="line" smooth="yes"/>
      <point x="627" y="266"/>
      <point x="625" y="195"/>
      <point x="510" y="195" type="curve" smooth="yes"/>
    </contour>
    <contour>
      <point x="1421" y="195" type="line"/>
      <point x="1303" y="195" type="line" smooth="yes"/>
      <point x="1209" y="195"/>
      <point x="1211" y="272"/>
      <point x="1211" y="361" type="curve" smooth="yes"/>
      <point x="1211" y="718" type="line" smooth="yes"/>
      <point x="1211" y="834"/>
      <point x="1219" y="876"/>
      <point x="1317" y="876" type="curve" smooth="yes"/>
      <point x="1413" y="876"/>
      <point x="1421" y="809"/>
      <point x="1421" y="718" type="curve" smooth="yes"/>
    </contour>
    <contour>
      <point x="1290" y="-406" type="line"/>
      <point x="1580" y="-406" type="line"/>
      <point x="1580" y="-2" type="line"/>
      <point x="1290" y="-2" type="line"/>
    </contour>
  </outline>
</glyph>
<glyph name="mee-ethiopic" format="2">
  <advance width="1851"/>
  <unicode hex="121C"/>
  <outline>
    <contour>
      <point x="319" y="0" type="curve" smooth="yes"/>
      <point x="587" y="0" type="line" smooth="yes"/>
      <point x="790" y="0"/>
      <point x="863" y="133"/>
      <point x="863" y="240" type="curve" smooth="yes"/>
      <point x="863" y="764" type="line" smooth="yes"/>
      <point x="863" y="852"/>
      <point x="988" y="868"/>
      <point x="988" y="769" type="curve" smooth="yes"/>
      <point x="988" y="234" type="line" smooth="yes"/>
      <point x="988" y="128"/>
      <point x="1043" y="0"/>
      <point x="1255" y="0" type="curve" smooth="yes"/>
      <point x="1514" y="0" type="line" smooth="yes"/>
      <point x="1602" y="0"/>
      <point x="1683" y="68"/>
      <point x="1683" y="169" type="curve" smooth="yes"/>
      <point x="1683" y="725" type="line" smooth="yes"/>
      <point x="1683" y="976"/>
      <point x="1603" y="1102"/>
      <point x="1361" y="1102" type="curve" smooth="yes"/>
      <point x="1164" y="1102"/>
      <point x="1074" y="1075"/>
      <point x="1004" y="979" type="curve"/>
      <point x="802" y="976" type="line"/>
      <point x="736" y="1067"/>
      <point x="672" y="1100"/>
      <point x="538" y="1102" type="curve" smooth="yes"/>
      <point x="200" y="1107"/>
      <point x="165" y="967"/>
      <point x="165" y="800" type="curve" smooth="yes"/>
      <point x="165" y="166" type="line" smooth="yes"/>
      <point x="165" y="33"/>
      <point x="246" y="0"/>
    </contour>
    <contour>
      <point x="439" y="195" type="line"/>
      <point x="439" y="718" type="line" smooth="yes"/>
      <point x="439" y="832"/>
      <point x="450" y="876"/>
      <point x="548" y="876" type="curve" smooth="yes"/>
      <point x="618" y="876"/>
      <point x="627" y="806"/>
      <point x="627" y="718" type="curve" smooth="yes"/>
      <point x="627" y="329" type="line" smooth="yes"/>
      <point x="627" y="266"/>
      <point x="625" y="195"/>
      <point x="510" y="195" type="curve" smooth="yes"/>
    </contour>
    <contour>
      <point x="1421" y="195" type="line"/>
      <point x="1303" y="195" type="line" smooth="yes"/>
      <point x="1209" y="195"/>
      <point x="1211" y="272"/>
      <point x="1211" y="361" type="curve" smooth="yes"/>
      <point x="1211" y="718" type="line" smooth="yes"/>
      <point x="1211" y="834"/>
      <point x="1219" y="876"/>
      <point x="1317" y="876" type="curve" smooth="yes"/>
      <point x="1413" y="876"/>
      <point x="1421" y="809"/>
      <point x="1421" y="718" type="curve" smooth="yes"/>
    </contour>
    <contour>
      <point x="1438" y="-477" type="curve" smooth="yes"/>
      <point x="1610" y="-477"/>
      <point x="1740" y="-358"/>
      <point x="1740" y="-205" type="curve" smooth="yes"/>
      <point x="1740" y="-46"/>
      <point x="1605" y="73"/>
      <point x="1438" y="73" type="curve" smooth="yes"/>
      <point x="1270" y="73"/>
      <point x="1136" y="-49"/>
      <point x="1136" y="-205" type="curve" smooth="yes"/>
      <point x="1136" y="-355"/>
      <point x="1263" y="-477"/>
    </contour>
    <contour>
      <point x="1488" y="-435" type="curve" smooth="yes"/>
      <point x="1369" y="-435"/>
      <point x="1296" y="-350"/>
      <point x="1296" y="-244" type="curve" smooth="yes"/>
      <point x="1296" y="-136"/>
      <point x="1372" y="-51"/>
      <point x="1488" y="-51" type="curve" smooth="yes"/>
      <point x="1604" y="-51"/>
      <point x="1680" y="-136"/>
      <point x="1680" y="-244" type="curve" smooth="yes"/>
      <point x="1680" y="-350"/>
      <point x="1607" y="-435"/>
    </contour>
  </outline>
</glyph>
<glyph name="szaa-ethiopic" format="2">
  <advance width="1880"/>
  <unicode hex="1223"/>
  <outline>
    <contour>
      <point x="582" y="-20" type="curve" smooth="yes"/>
      <point x="757" y="-20"/>
      <point x="871" y="-15"/>
      <point x="978" y="166" type="curve"/>
      <point x="1082" y="-30"/>
      <point x="1191" y="-20"/>
      <point x="1306" y="-20" type="curve" smooth="yes"/>
      <point x="1484" y="-20"/>
      <point x="1713" y="112"/>
      <point x="1713" y="376" type="curve" smooth="yes"/>
      <point x="1713" y="1082" type="line"/>
      <point x="1425" y="1082" type="line"/>
      <point x="1425" y="380" type="line" smooth="yes"/>
      <point x="1425" y="285"/>
      <point x="1375" y="213"/>
      <point x="1276" y="213" type="curve" smooth="yes"/>
      <point x="1125" y="213"/>
      <point x="1082" y="275"/>
      <point x="1082" y="362" type="curve" smooth="yes"/>
      <point x="1082" y="1082" type="line"/>
      <point x="794" y="1082" type="line"/>
      <point x="794" y="355" type="line" smooth="yes"/>
      <point x="794" y="240"/>
      <point x="724" y="208"/>
      <point x="609" y="213" type="curve" smooth="yes"/>
      <point x="478" y="219"/>
      <point x="453" y="266"/>
      <point x="453" y="398" type="curve" smooth="yes"/>
      <point x="453" y="1082" type="line"/>
      <point x="164" y="1082" type="line"/>
      <point x="164" y="399" type="line" smooth="yes"/>
      <point x="164" y="162"/>
      <point x="308" y="-20"/>
    </contour>
    <contour>
      <point x="1258" y="-436" type="line"/>
      <point x="1548" y="-436" type="line"/>
      <point x="1548" y="-32" type="line"/>
      <point x="1258" y="-32" type="line"/>
    </contour>
  </outline>
</glyph>
<glyph name="szee-ethiopic" format="2">
  <advance width="1880"/>
  <unicode hex="1224"/>
  <outline>
    <contour>
      <point x="582" y="-20" type="curve" smooth="yes"/>
      <point x="757" y="-20"/>
      <point x="871" y="-15"/>
      <point x="978" y="166" type="curve"/>
      <point x="1082" y="-30"/>
      <point x="1191" y="-20"/>
      <point x="1306" y="-20" type="curve" smooth="yes"/>
      <point x="1484" y="-20"/>
      <point x="1713" y="112"/>
      <point x="1713" y="376" type="curve" smooth="yes"/>
      <point x="1713" y="1082" type="line"/>
      <point x="1425" y="1082" type="line"/>
      <point x="1425" y="380" type="line" smooth="yes"/>
      <point x="1425" y="285"/>
      <point x="1375" y="213"/>
      <point x="1276" y="213" type="curve" smooth="yes"/>
      <point x="1125" y="213"/>
      <point x="1082" y="275"/>
      <point x="1082" y="362" type="curve" smooth="yes"/>
      <point x="1082" y="1082" type="line"/>
      <point x="794" y="1082" type="line"/>
      <point x="794" y="355" type="line" smooth="yes"/>
      <point x="794" y="240"/>
      <point x="724" y="208"/>
      <point x="609" y="213" type="curve" smooth="yes"/>
      <point x="478" y="219"/>
      <point x="453" y="266"/>
      <point x="453" y="398" type="curve" smooth="yes"/>
      <point x="453" y="1082" type="line"/>
      <point x="164" y="1082" type="line"/>
      <point x="164" y="399" type="line" smooth="yes"/>
      <point x="164" y="162"/>
      <point x="308" y="-20"/>
    </contour>
    <contour>
      <point x="1461" y="-477" type="curve" smooth="yes"/>
      <point x="1633" y="-477"/>
      <point x="1763" y="-358"/>
      <point x="1763" y="-205" type="curve" smooth="yes"/>
      <point x="1763" y="-46"/>
      <point x="1628" y="73"/>
      <point x="1461" y="73" type="curve" smooth="yes"/>
      <point x="1293" y="73"/>
      <point x="1159" y="-49"/>
      <point x="1159" y="-205" type="curve" smooth="yes"/>
      <point x="1159" y="-355"/>
      <point x="1286" y="-477"/>
    </contour>
    <contour>
      <point x="1511" y="-435" type="curve" smooth="yes"/>
      <point x="1392" y="-435"/>
      <point x="1319" y="-350"/>
      <point x="1319" y="-244" type="curve" smooth="yes"/>
      <point x="1319" y="-136"/>
      <point x="1395" y="-51"/>
      <point x="1511" y="-51" type="curve" smooth="yes"/>
      <point x="1627" y="-51"/>
      <point x="1703" y="-136"/>
      <point x="1703" y="-244" type="curve" smooth="yes"/>
      <point x="1703" y="-350"/>
      <point x="1630" y="-435"/>
    </contour>
  </outline>
</glyph>
<glyph name="sze-ethiopic" format="2">
  <advance width="1880"/>
  <unicode hex="1225"/>
  <outline>
    <contour>
      <point x="582" y="-20" type="curve" smooth="yes"/>
      <point x="757" y="-20"/>
      <point x="871" y="-15"/>
      <point x="978" y="166" type="curve"/>
      <point x="1082" y="-30"/>
      <point x="1191" y="-20"/>
      <point x="1306" y="-20" type="curve" smooth="yes"/>
      <point x="1484" y="-20"/>
      <point x="1713" y="112"/>
      <point x="1713" y="376" type="curve" smooth="yes"/>
      <point x="1713" y="1082" type="line"/>
      <point x="1425" y="1082" type="line"/>
      <point x="1425" y="380" type="line" smooth="yes"/>
      <point x="1425" y="285"/>
      <point x="1375" y="213"/>
      <point x="1276" y="213" type="curve" smooth="yes"/>
      <point x="1125" y="213"/>
      <point x="1082" y="275"/>
      <point x="1082" y="362" type="curve" smooth="yes"/>
      <point x="1082" y="1082" type="line"/>
      <point x="794" y="1082" type="line"/>
      <point x="794" y="355" type="line" smooth="yes"/>
      <point x="794" y="240"/>
      <point x="724" y="208"/>
      <point x="609" y="213" type="curve" smooth="yes"/>
      <point x="478" y="219"/>
      <point x="453" y="266"/>
      <point x="453" y="398" type="curve" smooth="yes"/>
      <point x="453" y="1082" type="line"/>
      <point x="164" y="1082" type="line"/>
      <point x="164" y="399" type="line" smooth="yes"/>
      <point x="164" y="162"/>
      <point x="308" y="-20"/>
    </contour>
    <contour>
      <point x="138" y="-380" type="line"/>
      <point x="438" y="-380" type="line"/>
      <point x="438" y="-26" type="line"/>
      <point x="138" y="-26" type="line"/>
    </contour>
  </outline>
</glyph>
<glyph name="szwa-ethiopic" format="2">
  <advance width="1880"/>
  <unicode hex="1227"/>
  <outline>
    <contour>
      <point x="582" y="-20" type="curve" smooth="yes"/>
      <point x="757" y="-20"/>
      <point x="871" y="-15"/>
      <point x="978" y="166" type="curve"/>
      <point x="1082" y="-30"/>
      <point x="1191" y="-20"/>
      <point x="1306" y="-20" type="curve" smooth="yes"/>
      <point x="1484" y="-20"/>
      <point x="1713" y="112"/>
      <point x="1713" y="376" type="curve" smooth="yes"/>
      <point x="1713" y="1082" type="line"/>
      <point x="1425" y="1082" type="line"/>
      <point x="1425" y="380" type="line" smooth="yes"/>
      <point x="1425" y="285"/>
      <point x="1375" y="213"/>
      <point x="1276" y="213" type="curve" smooth="yes"/>
      <point x="1125" y="213"/>
      <point x="1082" y="275"/>
      <point x="1082" y="362" type="curve" smooth="yes"/>
      <point x="1082" y="1082" type="line"/>
      <point x="794" y="1082" type="line"/>
      <point x="794" y="355" type="line" smooth="yes"/>
      <point x="794" y="240"/>
      <point x="724" y="208"/>
      <point x="609" y="213" type="curve" smooth="yes"/>
      <point x="478" y="219"/>
      <point x="453" y="266"/>
      <point x="453" y="398" type="curve" smooth="yes"/>
      <point x="453" y="1082" type="line"/>
      <point x="164" y="1082" type="line"/>
      <point x="164" y="399" type="line" smooth="yes"/>
      <point x="164" y="162"/>
      <point x="308" y="-20"/>
    </contour>
    <contour>
      <point x="1092" y="-368" type="line"/>
      <point x="1610" y="-368" type="line"/>
      <point x="1610" y="-464" type="line"/>
      <point x="1784" y="-464" type="line"/>
      <point x="1784" y="-177" type="line"/>
      <point x="1614" y="-177" type="line"/>
      <point x="1614" y="-12" type="line"/>
      <point x="1386" y="-12" type="line"/>
      <point x="1386" y="-177" type="line"/>
      <point x="1092" y="-177" type="line"/>
    </contour>
  </outline>
</glyph>
<glyph name="ra-ethiopic" format="2">
  <advance width="1101"/>
  <unicode hex="1228"/>
  <outline>
    <contour>
      <point x="568" y="-20" type="curve" smooth="yes"/>
      <point x="770" y="-20"/>
      <point x="995" y="141"/>
      <point x="1017" y="316" type="curve"/>
      <point x="900" y="316" type="line"/>
      <point x="878" y="225"/>
      <point x="768" y="177"/>
      <point x="667" y="174" type="curve" smooth="yes"/>
      <point x="472" y="168"/>
      <point x="474" y="270"/>
      <point x="474" y="517" type="curve" smooth="yes"/>
      <point x="474" y="1082" type="line"/>
      <point x="186" y="1082" type="line"/>
      <point x="186" y="524" type="line" smooth="yes"/>
      <point x="186" y="187"/>
      <point x="275" y="-20"/>
    </contour>
  </outline>
</glyph>
<glyph name="ree-ethiopic" format="2">
  <advance width="1101"/>
  <unicode hex="122C"/>
  <outline>
    <contour>
      <point x="568" y="-20" type="curve" smooth="yes"/>
      <point x="770" y="-20"/>
      <point x="995" y="141"/>
      <point x="1017" y="316" type="curve"/>
      <point x="900" y="316" type="line"/>
      <point x="878" y="225"/>
      <point x="768" y="177"/>
      <point x="667" y="174" type="curve" smooth="yes"/>
      <point x="472" y="168"/>
      <point x="474" y="270"/>
      <point x="474" y="517" type="curve" smooth="yes"/>
      <point x="474" y="1082" type="line"/>
      <point x="186" y="1082" type="line"/>
      <point x="186" y="524" type="line" smooth="yes"/>
      <point x="186" y="187"/>
      <point x="275" y="-20"/>
    </contour>
    <contour>
      <point x="1093" y="252" type="curve" smooth="yes"/>
      <point x="1265" y="252"/>
      <point x="1395" y="371"/>
      <point x="1395" y="524" type="curve" smooth="yes"/>
      <point x="1395" y="683"/>
      <point x="1260" y="802"/>
      <point x="1093" y="802" type="curve" smooth="yes"/>
      <point x="925" y="802"/>
      <point x="791" y="680"/>
      <point x="791" y="524" type="curve" smooth="yes"/>
      <point x="791" y="374"/>
      <point x="918" y="252"/>
    </contour>
    <contour>
      <point x="1143" y="294" type="curve" smooth="yes"/>
      <point x="1024" y="294"/>
      <point x="951" y="379"/>
      <point x="951" y="485" type="curve" smooth="yes"/>
      <point x="951" y="593"/>
      <point x="1027" y="678"/>
      <point x="1143" y="678" type="curve" smooth="yes"/>
      <point x="1259" y="678"/>
      <point x="1335" y="593"/>
      <point x="1335" y="485" type="curve" smooth="yes"/>
      <point x="1335" y="379"/>
      <point x="1262" y="294"/>
    </contour>
  </outline>
</glyph>
<glyph name="saa-ethiopic" format="2">
  <advance width="1264"/>
  <unicode hex="1233"/>
  <outline>
    <contour>
      <point x="165" y="0" type="line"/>
      <point x="454" y="0" type="line"/>
      <point x="454" y="716" type="line" smooth="yes"/>
      <point x="454" y="848"/>
      <point x="584" y="868"/>
      <point x="649" y="868" type="curve" smooth="yes"/>
      <point x="751" y="868"/>
      <point x="810" y="793"/>
      <point x="810" y="716" type="curve" smooth="yes"/>
      <point x="810" y="0" type="line"/>
      <point x="1099" y="0" type="line"/>
      <point x="1099" y="715" type="line" smooth="yes"/>
      <point x="1099" y="973"/>
      <point x="898" y="1111"/>
      <point x="643" y="1111" type="curve"/>
      <point x="379" y="1093"/>
      <point x="165" y="957"/>
      <point x="165" y="748" type="curve" smooth="yes"/>
    </contour>
    <contour>
      <point x="810" y="-406" type="line"/>
      <point x="1100" y="-406" type="line"/>
      <point x="1100" y="-2" type="line"/>
      <point x="810" y="-2" type="line"/>
    </contour>
    <contour>
      <point x="546" y="1115" type="line"/>
      <point x="783" y="1115" type="line"/>
      <point x="783" y="1425" type="line"/>
      <point x="546" y="1425" type="line"/>
    </contour>
  </outline>
</glyph>
<glyph name="se-ethiopic" format="2">
  <advance width="1264"/>
  <unicode hex="1235"/>
  <outline>
    <contour>
      <point x="165" y="0" type="line"/>
      <point x="454" y="0" type="line"/>
      <point x="454" y="716" type="line" smooth="yes"/>
      <point x="454" y="848"/>
      <point x="584" y="868"/>
      <point x="649" y="868" type="curve" smooth="yes"/>
      <point x="751" y="868"/>
      <point x="810" y="793"/>
      <point x="810" y="716" type="curve" smooth="yes"/>
      <point x="810" y="0" type="line"/>
      <point x="1099" y="0" type="line"/>
      <point x="1099" y="715" type="line" smooth="yes"/>
      <point x="1099" y="973"/>
      <point x="898" y="1111"/>
      <point x="643" y="1111" type="curve"/>
      <point x="379" y="1093"/>
      <point x="165" y="957"/>
      <point x="165" y="748" type="curve" smooth="yes"/>
    </contour>
    <contour>
      <point x="766" y="1184" type="line"/>
      <point x="569" y="1494" type="line"/>
      <point x="254" y="1494" type="line"/>
      <point x="531" y="1184" type="line"/>
    </contour>
  </outline>
</glyph>
<glyph name="qhee-ethiopic" format="2">
  <advance width="1882"/>
  <unicode hex="1254"/>
  <outline>
    <contour>
      <point x="551" y="-20" type="curve" smooth="yes"/>
      <point x="605" y="-20"/>
      <point x="753" y="-16"/>
      <point x="846" y="0" type="curve"/>
      <point x="1034" y="0" type="line"/>
      <point x="1127" y="-16"/>
      <point x="1275" y="-20"/>
      <point x="1329" y="-20" type="curve" smooth="yes"/>
      <point x="1580" y="-20"/>
      <point x="1754" y="205"/>
      <point x="1754" y="536" type="curve" smooth="yes"/>
      <point x="1754" y="882"/>
      <point x="1582" y="1102"/>
      <point x="1327" y="1102" type="curve" smooth="yes"/>
      <point x="1274" y="1102"/>
      <point x="1106" y="1097"/>
      <point x="1063" y="1082" type="curve"/>
      <point x="817" y="1082" type="line"/>
      <point x="774" y="1097"/>
      <point x="606" y="1102"/>
      <point x="553" y="1102" type="curve" smooth="yes"/>
      <point x="298" y="1102"/>
      <point x="126" y="882"/>
      <point x="126" y="536" type="curve" smooth="yes"/>
      <point x="126" y="205"/>
      <point x="300" y="-20"/>
    </contour>
    <contour>
      <point x="700" y="137" type="curve" smooth="yes"/>
      <point x="521" y="137"/>
      <point x="414" y="284"/>
      <point x="414" y="529" type="curve" smooth="yes"/>
      <point x="414" y="804"/>
      <point x="521" y="945"/>
      <point x="702" y="945" type="curve" smooth="yes"/>
      <point x="737" y="945"/>
      <point x="790" y="940"/>
      <point x="820" y="931" type="curve"/>
      <point x="820" y="163" type="line"/>
      <point x="787" y="147"/>
      <point x="733" y="137"/>
    </contour>
    <contour>
      <point x="1180" y="137" type="curve" smooth="yes"/>
      <point x="1147" y="137"/>
      <point x="1093" y="147"/>
      <point x="1060" y="163" type="curve"/>
      <point x="1060" y="931" type="line"/>
      <point x="1090" y="940"/>
      <point x="1143" y="945"/>
      <point x="1178" y="945" type="curve" smooth="yes"/>
      <point x="1359" y="945"/>
      <point x="1466" y="804"/>
      <point x="1466" y="529" type="curve" smooth="yes"/>
      <point x="1466" y="284"/>
      <point x="1359" y="137"/>
    </contour>
    <contour>
      <point x="922" y="-477" type="curve" smooth="yes"/>
      <point x="1094" y="-477"/>
      <point x="1224" y="-358"/>
      <point x="1224" y="-205" type="curve" smooth="yes"/>
      <point x="1224" y="-46"/>
      <point x="1089" y="73"/>
      <point x="922" y="73" type="curve" smooth="yes"/>
      <point x="754" y="73"/>
      <point x="620" y="-49"/>
      <point x="620" y="-205" type="curve" smooth="yes"/>
      <point x="620" y="-355"/>
      <point x="747" y="-477"/>
    </contour>
    <contour>
      <point x="972" y="-435" type="curve" smooth="yes"/>
      <point x="853" y="-435"/>
      <point x="780" y="-350"/>
      <point x="780" y="-244" type="curve" smooth="yes"/>
      <point x="780" y="-136"/>
      <point x="856" y="-51"/>
      <point x="972" y="-51" type="curve" smooth="yes"/>
      <point x="1088" y="-51"/>
      <point x="1164" y="-136"/>
      <point x="1164" y="-244" type="curve" smooth="yes"/>
      <point x="1164" y="-350"/>
      <point x="1091" y="-435"/>
    </contour>
    <contour>
      <point x="834" y="1093" type="line"/>
      <point x="1071" y="1093" type="line"/>
      <point x="1071" y="1403" type="line"/>
      <point x="834" y="1403" type="line"/>
    </contour>
    <component base="_smart.hat" xOffset="1028" yOffset="1351"/>
  </outline>
</glyph>
<glyph name="vwa-ethiopic" format="2">
  <advance width="1264"/>
  <unicode hex="126F"/>
  <outline>
    <contour>
      <point x="165" y="0" type="line"/>
      <point x="454" y="0" type="line"/>
      <point x="454" y="716" type="line" smooth="yes"/>
      <point x="454" y="848"/>
      <point x="584" y="868"/>
      <point x="649" y="868" type="curve" smooth="yes"/>
      <point x="751" y="868"/>
      <point x="810" y="793"/>
      <point x="810" y="716" type="curve" smooth="yes"/>
      <point x="810" y="0" type="line"/>
      <point x="1099" y="0" type="line"/>
      <point x="1099" y="715" type="line" smooth="yes"/>
      <point x="1099" y="973"/>
      <point x="898" y="1111"/>
      <point x="643" y="1111" type="curve"/>
      <point x="379" y="1093"/>
      <point x="165" y="957"/>
      <point x="165" y="748" type="curve" smooth="yes"/>
    </contour>
    <contour>
      <point x="579" y="-280" type="line"/>
      <point x="1097" y="-280" type="line"/>
      <point x="1097" y="-376" type="line"/>
      <point x="1271" y="-376" type="line"/>
      <point x="1271" y="-89" type="line"/>
      <point x="1101" y="-89" type="line"/>
      <point x="1101" y="76" type="line"/>
      <point x="873" y="76" type="line"/>
      <point x="873" y="-89" type="line"/>
      <point x="579" y="-89" type="line"/>
    </contour>
    <contour>
      <point x="305" y="1371" type="line" name="❌"/>
      <point x="969" y="1371" type="line" name="❌"/>
      <point x="969" y="1526" type="line"/>
      <point x="305" y="1526" type="line"/>
    </contour>
  </outline>
</glyph>
<glyph name="ta-ethiopic" format="2">
  <advance width="801"/>
  <unicode hex="1270"/>
  <outline>
    <contour>
      <point x="517" y="0" type="line"/>
      <point x="517" y="870" type="line"/>
      <point x="702" y="870" type="line"/>
      <point x="702" y="1082" type="line"/>
      <point x="70" y="1082" type="line"/>
      <point x="70" y="870" type="line"/>
      <point x="230" y="870" type="line"/>
      <point x="230" y="0" type="line"/>
    </contour>
    <contour>
      <point x="249" y="1083" type="line"/>
      <point x="486" y="1083" type="line"/>
      <point x="486" y="1393" type="line"/>
      <point x="249" y="1393" type="line"/>
    </contour>
  </outline>
</glyph>
<glyph name="taa-ethiopic" format="2">
  <advance width="801"/>
  <unicode hex="1273"/>
  <outline>
    <contour>
      <point x="517" y="0" type="line"/>
      <point x="517" y="870" type="line"/>
      <point x="702" y="870" type="line"/>
      <point x="702" y="1082" type="line"/>
      <point x="70" y="1082" type="line"/>
      <point x="70" y="870" type="line"/>
      <point x="230" y="870" type="line"/>
      <point x="230" y="0" type="line"/>
    </contour>
    <contour>
      <point x="249" y="1083" type="line"/>
      <point x="486" y="1083" type="line"/>
      <point x="486" y="1393" type="line"/>
      <point x="249" y="1393" type="line"/>
    </contour>
    <contour>
      <point x="10" y="-321" type="line"/>
      <point x="245" y="-321" type="line"/>
      <point x="522" y="-11" type="line" name="❌"/>
      <point x="207" y="-11" type="line" name="❌"/>
    </contour>
  </outline>
</glyph>
<glyph name="te-ethiopic" format="2">
  <advance width="801"/>
  <unicode hex="1275"/>
  <outline>
    <contour>
      <point x="517" y="0" type="line"/>
      <point x="517" y="870" type="line"/>
      <point x="702" y="870" type="line"/>
      <point x="702" y="1082" type="line"/>
      <point x="70" y="1082" type="line"/>
      <point x="70" y="870" type="line"/>
      <point x="230" y="870" type="line"/>
      <point x="230" y="0" type="line"/>
    </contour>
    <contour>
      <point x="506" y="1157" type="line"/>
      <point x="309" y="1467" type="line"/>
      <point x="-6" y="1467" type="line"/>
      <point x="271" y="1157" type="line"/>
    </contour>
  </outline>
</glyph>
<glyph name="to-ethiopic" format="2">
  <advance width="801"/>
  <unicode hex="1276"/>
  <outline>
    <contour>
      <point x="517" y="0" type="line"/>
      <point x="517" y="870" type="line"/>
      <point x="702" y="870" type="line"/>
      <point x="702" y="1082" type="line"/>
      <point x="70" y="1082" type="line"/>
      <point x="70" y="870" type="line"/>
      <point x="230" y="870" type="line"/>
      <point x="230" y="0" type="line"/>
    </contour>
    <contour>
      <point x="340" y="1122" type="curve" smooth="yes"/>
      <point x="508" y="1122"/>
      <point x="642" y="1244"/>
      <point x="642" y="1400" type="curve" smooth="yes"/>
      <point x="642" y="1550"/>
      <point x="515" y="1672"/>
      <point x="340" y="1672" type="curve" smooth="yes"/>
      <point x="168" y="1672"/>
      <point x="38" y="1553"/>
      <point x="38" y="1400" type="curve" smooth="yes"/>
      <point x="38" y="1241"/>
      <point x="173" y="1122"/>
    </contour>
    <contour>
      <point x="290" y="1246" type="curve" smooth="yes"/>
      <point x="174" y="1246"/>
      <point x="98" y="1331"/>
      <point x="98" y="1439" type="curve" smooth="yes"/>
      <point x="98" y="1545"/>
      <point x="171" y="1630"/>
      <point x="290" y="1630" type="curve" smooth="yes"/>
      <point x="409" y="1630"/>
      <point x="482" y="1545"/>
      <point x="482" y="1439" type="curve" smooth="yes"/>
      <point x="482" y="1331"/>
      <point x="406" y="1246"/>
    </contour>
  </outline>
</glyph>
<glyph name="twa-ethiopic" format="2">
  <advance width="801"/>
  <unicode hex="1277"/>
  <outline>
    <contour>
      <point x="517" y="0" type="line"/>
      <point x="517" y="870" type="line"/>
      <point x="702" y="870" type="line"/>
      <point x="702" y="1082" type="line"/>
      <point x="70" y="1082" type="line"/>
      <point x="70" y="870" type="line"/>
      <point x="230" y="870" type="line"/>
      <point x="230" y="0" type="line"/>
    </contour>
    <contour>
      <point x="249" y="1083" type="line"/>
      <point x="486" y="1083" type="line"/>
      <point x="486" y="1393" type="line"/>
      <point x="249" y="1393" type="line"/>
    </contour>
    <contour>
      <point x="-6" y="-326" type="line"/>
      <point x="512" y="-326" type="line"/>
      <point x="512" y="-422" type="line"/>
      <point x="686" y="-422" type="line"/>
      <point x="686" y="-135" type="line"/>
      <point x="516" y="-135" type="line"/>
      <point x="516" y="30" type="line"/>
      <point x="288" y="30" type="line"/>
      <point x="288" y="-135" type="line"/>
      <point x="-6" y="-135" type="line"/>
    </contour>
  </outline>
</glyph>
<glyph name="ci-ethiopic" format="2">
  <advance width="801"/>
  <unicode hex="127A"/>
  <outline>
    <contour>
      <point x="517" y="0" type="line"/>
      <point x="517" y="870" type="line"/>
      <point x="702" y="870" type="line"/>
      <point x="702" y="1082" type="line"/>
      <point x="70" y="1082" type="line"/>
      <point x="70" y="870" type="line"/>
      <point x="230" y="870" type="line"/>
      <point x="230" y="0" type="line"/>
    </contour>
    <contour>
      <point x="634" y="-7" type="curve" smooth="yes"/>
      <point x="726" y="-7"/>
      <point x="782" y="49"/>
      <point x="782" y="129" type="curve" smooth="yes"/>
      <point x="782" y="209"/>
      <point x="726" y="266"/>
      <point x="634" y="266" type="curve" smooth="yes"/>
      <point x="545" y="266"/>
      <point x="486" y="209"/>
      <point x="486" y="129" type="curve" smooth="yes"/>
      <point x="486" y="49"/>
      <point x="543" y="-7"/>
    </contour>
    <contour>
      <point x="249" y="1083" type="line"/>
      <point x="486" y="1083" type="line"/>
      <point x="486" y="1393" type="line"/>
      <point x="249" y="1393" type="line"/>
    </contour>
    <component base="_smart.hat" xOffset="339" yOffset="1327"/>
  </outline>
</glyph>
<glyph name="caa-ethiopic" format="2">
  <advance width="801"/>
  <unicode hex="127B"/>
  <outline>
    <contour>
      <point x="517" y="0" type="line"/>
      <point x="517" y="870" type="line"/>
      <point x="702" y="870" type="line"/>
      <point x="702" y="1082" type="line"/>
      <point x="70" y="1082" type="line"/>
      <point x="70" y="870" type="line"/>
      <point x="230" y="870" type="line"/>
      <point x="230" y="0" type="line"/>
    </contour>
    <contour>
      <point x="10" y="-321" type="line"/>
      <point x="245" y="-321" type="line"/>
      <point x="522" y="-11" type="line" name="❌"/>
      <point x="207" y="-11" type="line" name="❌"/>
    </contour>
    <contour>
      <point x="249" y="1083" type="line"/>
      <point x="486" y="1083" type="line"/>
      <point x="486" y="1393" type="line"/>
      <point x="249" y="1393" type="line"/>
    </contour>
    <component base="_smart.hat" xOffset="339" yOffset="1327"/>
  </outline>
</glyph>
<glyph name="ce-ethiopic" format="2">
  <advance width="801"/>
  <unicode hex="127D"/>
  <outline>
    <contour>
      <point x="517" y="0" type="line"/>
      <point x="517" y="870" type="line"/>
      <point x="702" y="870" type="line"/>
      <point x="702" y="1082" type="line"/>
      <point x="70" y="1082" type="line"/>
      <point x="70" y="870" type="line"/>
      <point x="230" y="870" type="line"/>
      <point x="230" y="0" type="line"/>
    </contour>
    <contour>
      <point x="506" y="1157" type="line"/>
      <point x="309" y="1467" type="line"/>
      <point x="-6" y="1467" type="line"/>
      <point x="271" y="1157" type="line"/>
    </contour>
    <contour>
      <point x="12" y="1328" type="line" name="❌"/>
      <point x="676" y="1328" type="line" name="❌"/>
      <point x="676" y="1483" type="line"/>
      <point x="12" y="1483" type="line"/>
    </contour>
  </outline>
</glyph>
<glyph name="xa-ethiopic" format="2">
  <advance width="934"/>
  <unicode hex="1280"/>
  <outline>
    <contour>
      <point x="537" y="0" type="line"/>
      <point x="826" y="0" type="line"/>
      <point x="826" y="558" type="line" smooth="yes"/>
      <point x="826" y="895"/>
      <point x="737" y="1102"/>
      <point x="444" y="1102" type="curve" smooth="yes"/>
      <point x="298" y="1102"/>
      <point x="154" y="1018"/>
      <point x="70" y="921" type="curve"/>
      <point x="263" y="851" type="line"/>
      <point x="289" y="867"/>
      <point x="318" y="877"/>
      <point x="345" y="878" type="curve" smooth="yes"/>
      <point x="540" y="886"/>
      <point x="537" y="670"/>
      <point x="537" y="577" type="curve" smooth="yes"/>
    </contour>
    <contour>
      <point x="-6" y="878" type="line"/>
      <point x="235" y="878" type="line"/>
      <point x="235" y="1268" type="line"/>
      <point x="-6" y="1268" type="line"/>
    </contour>
    <contour>
      <point x="-75" y="902" type="curve" smooth="yes"/>
      <point x="17" y="902"/>
      <point x="73" y="958"/>
      <point x="73" y="1038" type="curve" smooth="yes"/>
      <point x="73" y="1118"/>
      <point x="17" y="1175"/>
      <point x="-75" y="1175" type="curve" smooth="yes"/>
      <point x="-164" y="1175"/>
      <point x="-223" y="1118"/>
      <point x="-223" y="1038" type="curve" smooth="yes"/>
      <point x="-223" y="958"/>
      <point x="-166" y="902"/>
    </contour>
  </outline>
</glyph>
<glyph name="xi-ethiopic" format="2">
  <advance width="934"/>
  <unicode hex="1282"/>
  <outline>
    <contour>
      <point x="537" y="0" type="line"/>
      <point x="826" y="0" type="line"/>
      <point x="826" y="558" type="line" smooth="yes"/>
      <point x="826" y="895"/>
      <point x="737" y="1102"/>
      <point x="444" y="1102" type="curve" smooth="yes"/>
      <point x="298" y="1102"/>
      <point x="154" y="1018"/>
      <point x="70" y="921" type="curve"/>
      <point x="263" y="851" type="line"/>
      <point x="289" y="867"/>
      <point x="318" y="877"/>
      <point x="345" y="878" type="curve" smooth="yes"/>
      <point x="540" y="886"/>
      <point x="537" y="670"/>
      <point x="537" y="577" type="curve" smooth="yes"/>
    </contour>
    <contour>
      <point x="954" y="-17" type="curve" smooth="yes"/>
      <point x="1046" y="-17"/>
      <point x="1102" y="39"/>
      <point x="1102" y="119" type="curve" smooth="yes"/>
      <point x="1102" y="199"/>
      <point x="1046" y="256"/>
      <point x="954" y="256" type="curve" smooth="yes"/>
      <point x="865" y="256"/>
      <point x="806" y="199"/>
      <point x="806" y="119" type="curve" smooth="yes"/>
      <point x="806" y="39"/>
      <point x="863" y="-17"/>
    </contour>
    <contour>
      <point x="-6" y="878" type="line"/>
      <point x="235" y="878" type="line"/>
      <point x="235" y="1268" type="line"/>
      <point x="-6" y="1268" type="line"/>
    </contour>
    <component base="_smart.nose" xOffset="-271" yOffset="1134"/>
  </outline>
</glyph>
<glyph name="xee-ethiopic" format="2">
  <advance width="934"/>
  <unicode hex="1284"/>
  <outline>
    <contour>
      <point x="537" y="0" type="line"/>
      <point x="826" y="0" type="line"/>
      <point x="826" y="558" type="line" smooth="yes"/>
      <point x="826" y="895"/>
      <point x="737" y="1102"/>
      <point x="444" y="1102" type="curve" smooth="yes"/>
      <point x="298" y="1102"/>
      <point x="154" y="1018"/>
      <point x="70" y="921" type="curve"/>
      <point x="263" y="851" type="line"/>
      <point x="289" y="867"/>
      <point x="318" y="877"/>
      <point x="345" y="878" type="curve" smooth="yes"/>
      <point x="540" y="886"/>
      <point x="537" y="670"/>
      <point x="537" y="577" type="curve" smooth="yes"/>
    </contour>
    <contour>
      <point x="616" y="-424" type="curve" smooth="yes"/>
      <point x="788" y="-424"/>
      <point x="918" y="-305"/>
      <point x="918" y="-152" type="curve" smooth="yes"/>
      <point x="918" y="7"/>
      <point x="783" y="126"/>
      <point x="616" y="126" type="curve" smooth="yes"/>
      <point x="448" y="126"/>
      <point x="314" y="4"/>
      <point x="314" y="-152" type="curve" smooth="yes"/>
      <point x="314" y="-302"/>
      <point x="441" y="-424"/>
    </contour>
    <contour>
      <point x="666" y="-382" type="curve" smooth="yes"/>
      <point x="547" y="-382"/>
      <point x="474" y="-297"/>
      <point x="474" y="-191" type="curve" smooth="yes"/>
      <point x="474" y="-83"/>
      <point x="550" y="2"/>
      <point x="666" y="2" type="curve" smooth="yes"/>
      <point x="782" y="2"/>
      <point x="858" y="-83"/>
      <point x="858" y="-191" type="curve" smooth="yes"/>
      <point x="858" y="-297"/>
      <point x="785" y="-382"/>
    </contour>
    <contour>
      <point x="-6" y="878" type="line"/>
      <point x="235" y="878" type="line"/>
      <point x="235" y="1268" type="line"/>
      <point x="-6" y="1268" type="line"/>
    </contour>
    <component base="_smart.nose" xOffset="-271" yOffset="1134"/>
  </outline>
</glyph>
<glyph name="xe-ethiopic" format="2">
  <advance width="917"/>
  <unicode hex="1285"/>
  <outline>
    <contour>
      <point x="-143" y="915" type="line"/>
      <point x="-143" y="650" type="line"/>
      <point x="-15" y="650" type="line"/>
      <point x="-15" y="915" type="line"/>
    </contour>
    <contour>
      <point x="597" y="0" type="line"/>
      <point x="886" y="0" type="line"/>
      <point x="886" y="558" type="line" smooth="yes"/>
      <point x="886" y="895"/>
      <point x="797" y="1102"/>
      <point x="504" y="1102" type="curve" smooth="yes"/>
      <point x="358" y="1102"/>
      <point x="214" y="1018"/>
      <point x="130" y="921" type="curve"/>
      <point x="323" y="851" type="line"/>
      <point x="349" y="867"/>
      <point x="378" y="877"/>
      <point x="405" y="878" type="curve" smooth="yes"/>
      <point x="600" y="886"/>
      <point x="597" y="670"/>
      <point x="597" y="577" type="curve" smooth="yes"/>
    </contour>
    <contour>
      <point x="71" y="887" type="line"/>
      <point x="312" y="887" type="line"/>
      <point x="312" y="1277" type="line"/>
      <point x="71" y="1277" type="line"/>
    </contour>
    <contour>
      <point x="2" y="922" type="curve" smooth="yes"/>
      <point x="94" y="922"/>
      <point x="150" y="978"/>
      <point x="150" y="1058" type="curve" smooth="yes"/>
      <point x="150" y="1138"/>
      <point x="94" y="1195"/>
      <point x="2" y="1195" type="curve" smooth="yes"/>
      <point x="-87" y="1195"/>
      <point x="-146" y="1138"/>
      <point x="-146" y="1058" type="curve" smooth="yes"/>
      <point x="-146" y="978"/>
      <point x="-89" y="922"/>
    </contour>
  </outline>
</glyph>
<glyph name="ne-ethiopic" format="2">
  <advance width="934"/>
  <unicode hex="1295"/>
  <outline>
    <contour>
      <point x="537" y="0" type="line"/>
      <point x="826" y="0" type="line"/>
      <point x="826" y="558" type="line" smooth="yes"/>
      <point x="826" y="895"/>
      <point x="737" y="1102"/>
      <point x="444" y="1102" type="curve" smooth="yes"/>
      <point x="298" y="1102"/>
      <point x="154" y="1018"/>
      <point x="70" y="921" type="curve"/>
      <point x="263" y="851" type="line"/>
      <point x="289" y="867"/>
      <point x="318" y="877"/>
      <point x="345" y="878" type="curve" smooth="yes"/>
      <point x="540" y="886"/>
      <point x="537" y="670"/>
      <point x="537" y="577" type="curve" smooth="yes"/>
    </contour>
    <contour>
      <point x="472" y="398" type="curve" smooth="yes"/>
      <point x="564" y="398"/>
      <point x="620" y="454"/>
      <point x="620" y="534" type="curve" smooth="yes"/>
      <point x="620" y="614"/>
      <point x="564" y="671"/>
      <point x="472" y="671" type="curve" smooth="yes"/>
      <point x="383" y="671"/>
      <point x="324" y="614"/>
      <point x="324" y="534" type="curve" smooth="yes"/>
      <point x="324" y="454"/>
      <point x="381" y="398"/>
    </contour>
  </outline>
</glyph>
<glyph name="no-ethiopic" format="2">
  <advance width="1013"/>
  <unicode hex="1296"/>
  <outline>
    <contour>
      <point x="550" y="-20" type="curve" smooth="yes"/>
      <point x="752" y="-20"/>
      <point x="788" y="-20"/>
      <point x="932" y="-20" type="curve"/>
      <point x="932" y="174" type="line"/>
      <point x="827" y="174"/>
      <point x="742" y="174"/>
      <point x="649" y="174" type="curve" smooth="yes"/>
      <point x="454" y="174"/>
      <point x="456" y="270"/>
      <point x="456" y="517" type="curve" smooth="yes"/>
      <point x="456" y="1082" type="line"/>
      <point x="168" y="1082" type="line"/>
      <point x="168" y="524" type="line" smooth="yes"/>
      <point x="168" y="187"/>
      <point x="257" y="-20"/>
    </contour>
    <contour>
      <point x="775" y="652" type="curve" smooth="yes"/>
      <point x="943" y="652"/>
      <point x="1077" y="774"/>
      <point x="1077" y="930" type="curve" smooth="yes"/>
      <point x="1077" y="1080"/>
      <point x="950" y="1202"/>
      <point x="775" y="1202" type="curve" smooth="yes"/>
      <point x="603" y="1202"/>
      <point x="473" y="1083"/>
      <point x="473" y="930" type="curve" smooth="yes"/>
      <point x="473" y="771"/>
      <point x="608" y="652"/>
    </contour>
    <contour>
      <point x="725" y="776" type="curve" smooth="yes"/>
      <point x="609" y="776"/>
      <point x="533" y="861"/>
      <point x="533" y="969" type="curve" smooth="yes"/>
      <point x="533" y="1075"/>
      <point x="606" y="1160"/>
      <point x="725" y="1160" type="curve" smooth="yes"/>
      <point x="844" y="1160"/>
      <point x="917" y="1075"/>
      <point x="917" y="969" type="curve" smooth="yes"/>
      <point x="917" y="861"/>
      <point x="841" y="776"/>
    </contour>
    <contour>
      <point x="643" y="-423" type="line"/>
      <point x="933" y="-423" type="line"/>
      <point x="933" y="-19" type="line"/>
      <point x="643" y="-19" type="line"/>
    </contour>
  </outline>
</glyph>
<glyph name="nyi-ethiopic" format="2">
  <advance width="934"/>
  <unicode hex="129A"/>
  <outline>
    <contour>
      <point x="537" y="0" type="line"/>
      <point x="826" y="0" type="line"/>
      <point x="826" y="558" type="line" smooth="yes"/>
      <point x="826" y="895"/>
      <point x="737" y="1102"/>
      <point x="444" y="1102" type="curve" smooth="yes"/>
      <point x="298" y="1102"/>
      <point x="154" y="1018"/>
      <point x="70" y="921" type="curve"/>
      <point x="263" y="851" type="line"/>
      <point x="289" y="867"/>
      <point x="318" y="877"/>
      <point x="345" y="878" type="curve" smooth="yes"/>
      <point x="540" y="886"/>
      <point x="537" y="670"/>
      <point x="537" y="577" type="curve" smooth="yes"/>
    </contour>
    <contour>
      <point x="954" y="-17" type="curve" smooth="yes"/>
      <point x="1046" y="-17"/>
      <point x="1102" y="39"/>
      <point x="1102" y="119" type="curve" smooth="yes"/>
      <point x="1102" y="199"/>
      <point x="1046" y="256"/>
      <point x="954" y="256" type="curve" smooth="yes"/>
      <point x="865" y="256"/>
      <point x="806" y="199"/>
      <point x="806" y="119" type="curve" smooth="yes"/>
      <point x="806" y="39"/>
      <point x="863" y="-17"/>
    </contour>
    <contour>
      <point x="-6" y="878" type="line"/>
      <point x="235" y="878" type="line"/>
      <point x="235" y="1268" type="line"/>
      <point x="-6" y="1268" type="line"/>
    </contour>
    <component base="_smart.hat.left" xOffset="157" yOffset="1234"/>
  </outline>
</glyph>
<glyph name="oGlottal-ethiopic" format="2">
  <advance width="1266"/>
  <unicode hex="12A6"/>
  <outline>
    <contour>
      <point x="164" y="0" type="line"/>
      <point x="453" y="0" type="line"/>
      <point x="453" y="769" type="line"/>
      <point x="491" y="834"/>
      <point x="552" y="867"/>
      <point x="637" y="867" type="curve" smooth="yes"/>
      <point x="761" y="867"/>
      <point x="810" y="809"/>
      <point x="810" y="685" type="curve" smooth="yes"/>
      <point x="810" y="0" type="line"/>
      <point x="1099" y="0" type="line"/>
      <point x="1099" y="708" type="line" smooth="yes"/>
      <point x="1099" y="981"/>
      <point x="979" y="1102"/>
      <point x="742" y="1102" type="curve" smooth="yes"/>
      <point x="626" y="1102"/>
      <point x="530" y="1056"/>
      <point x="453" y="964" type="curve"/>
      <point x="453" y="1138" type="line"/>
      <point x="693" y="1536" type="line"/>
      <point x="404" y="1536" type="line"/>
      <point x="164" y="1159" type="line"/>
    </contour>
    <contour>
      <point x="323" y="1426" type="line"/>
      <point x="126" y="1736" type="line"/>
      <point x="-189" y="1736" type="line"/>
      <point x="88" y="1426" type="line"/>
    </contour>
    <contour>
      <point x="158" y="-376" type="line"/>
      <point x="458" y="-376" type="line"/>
      <point x="458" y="-22" type="line"/>
      <point x="158" y="-22" type="line"/>
    </contour>
  </outline>
</glyph>
<glyph name="ki-ethiopic" format="2">
  <advance width="1264"/>
  <unicode hex="12AA"/>
  <outline>
    <contour>
      <point x="165" y="0" type="line"/>
      <point x="454" y="0" type="line"/>
      <point x="454" y="716" type="line" smooth="yes"/>
      <point x="454" y="848"/>
      <point x="584" y="868"/>
      <point x="649" y="868" type="curve" smooth="yes"/>
      <point x="751" y="868"/>
      <point x="810" y="793"/>
      <point x="810" y="716" type="curve" smooth="yes"/>
      <point x="810" y="0" type="line"/>
      <point x="1099" y="0" type="line"/>
      <point x="1099" y="715" type="line" smooth="yes"/>
      <point x="1099" y="973"/>
      <point x="898" y="1111"/>
      <point x="643" y="1111" type="curve"/>
      <point x="379" y="1093"/>
      <point x="165" y="957"/>
      <point x="165" y="748" type="curve" smooth="yes"/>
    </contour>
    <contour>
      <point x="1218" y="-7" type="curve" smooth="yes"/>
      <point x="1310" y="-7"/>
      <point x="1366" y="49"/>
      <point x="1366" y="129" type="curve" smooth="yes"/>
      <point x="1366" y="209"/>
      <point x="1310" y="266"/>
      <point x="1218" y="266" type="curve" smooth="yes"/>
      <point x="1129" y="266"/>
      <point x="1070" y="209"/>
      <point x="1070" y="129" type="curve" smooth="yes"/>
      <point x="1070" y="49"/>
      <point x="1127" y="-7"/>
    </contour>
    <contour>
      <point x="538" y="1017" type="line"/>
      <point x="629" y="1107" type="line"/>
      <point x="383" y="1107" type="line"/>
      <point x="383" y="1395" type="line"/>
      <point x="148" y="1395" type="line"/>
      <point x="148" y="1017" type="line"/>
    </contour>
  </outline>
</glyph>
<glyph name="kee-ethiopic" format="2">
  <advance width="1264"/>
  <unicode hex="12AC"/>
  <outline>
    <contour>
      <point x="165" y="0" type="line"/>
      <point x="454" y="0" type="line"/>
      <point x="454" y="716" type="line" smooth="yes"/>
      <point x="454" y="848"/>
      <point x="584" y="868"/>
      <point x="649" y="868" type="curve" smooth="yes"/>
      <point x="751" y="868"/>
      <point x="810" y="793"/>
      <point x="810" y="716" type="curve" smooth="yes"/>
      <point x="810" y="0" type="line"/>
      <point x="1099" y="0" type="line"/>
      <point x="1099" y="715" type="line" smooth="yes"/>
      <point x="1099" y="973"/>
      <point x="898" y="1111"/>
      <point x="643" y="1111" type="curve"/>
      <point x="379" y="1093"/>
      <point x="165" y="957"/>
      <point x="165" y="748" type="curve" smooth="yes"/>
    </contour>
    <contour>
      <point x="870" y="-427" type="curve" smooth="yes"/>
      <point x="1042" y="-427"/>
      <point x="1172" y="-308"/>
      <point x="1172" y="-155" type="curve" smooth="yes"/>
      <point x="1172" y="4"/>
      <point x="1037" y="123"/>
      <point x="870" y="123" type="curve" smooth="yes"/>
      <point x="702" y="123"/>
      <point x="568" y="1"/>
      <point x="568" y="-155" type="curve" smooth="yes"/>
      <point x="568" y="-305"/>
      <point x="695" y="-427"/>
    </contour>
    <contour>
      <point x="920" y="-385" type="curve" smooth="yes"/>
      <point x="801" y="-385"/>
      <point x="728" y="-300"/>
      <point x="728" y="-194" type="curve" smooth="yes"/>
      <point x="728" y="-86"/>
      <point x="804" y="-1"/>
      <point x="920" y="-1" type="curve" smooth="yes"/>
      <point x="1036" y="-1"/>
      <point x="1112" y="-86"/>
      <point x="1112" y="-194" type="curve" smooth="yes"/>
      <point x="1112" y="-300"/>
      <point x="1039" y="-385"/>
    </contour>
    <contour>
      <point x="538" y="1017" type="line"/>
      <point x="629" y="1107" type="line"/>
      <point x="383" y="1107" type="line"/>
      <point x="383" y="1395" type="line"/>
      <point x="148" y="1395" type="line"/>
      <point x="148" y="1017" type="line"/>
    </contour>
  </outline>
</glyph>
<glyph name="ke-ethiopic" format="2">
  <advance width="1264"/>
  <unicode hex="12AD"/>
  <outline>
    <contour>
      <point x="165" y="0" type="line"/>
      <point x="454" y="0" type="line"/>
      <point x="454" y="716" type="line" smooth="yes"/>
      <point x="454" y="848"/>
      <point x="584" y="868"/>
      <point x="649" y="868" type="curve" smooth="yes"/>
      <point x="751" y="868"/>
      <point x="810" y="793"/>
      <point x="810" y="716" type="curve" smooth="yes"/>
      <point x="810" y="0" type="line"/>
      <point x="1099" y="0" type="line"/>
      <point x="1099" y="715" type="line" smooth="yes"/>
      <point x="1099" y="973"/>
      <point x="898" y="1111"/>
      <point x="643" y="1111" type="curve"/>
      <point x="379" y="1093"/>
      <point x="165" y="957"/>
      <point x="165" y="748" type="curve" smooth="yes"/>
    </contour>
    <contour>
      <point x="538" y="1017" type="line"/>
      <point x="629" y="1107" type="line"/>
      <point x="383" y="1107" type="line"/>
      <point x="383" y="1395" type="line"/>
      <point x="148" y="1395" type="line"/>
      <point x="148" y="1017" type="line"/>
    </contour>
    <contour>
      <point x="594" y="419" type="curve" smooth="yes"/>
      <point x="686" y="419"/>
      <point x="742" y="475"/>
      <point x="742" y="555" type="curve" smooth="yes"/>
      <point x="742" y="635"/>
      <point x="686" y="692"/>
      <point x="594" y="692" type="curve" smooth="yes"/>
      <point x="505" y="692"/>
      <point x="446" y="635"/>
      <point x="446" y="555" type="curve" smooth="yes"/>
      <point x="446" y="475"/>
      <point x="503" y="419"/>
    </contour>
  </outline>
</glyph>
<glyph name="waa-ethiopic" format="2">
  <advance width="1882"/>
  <unicode hex="12CB"/>
  <outline>
    <contour>
      <point x="551" y="-20" type="curve" smooth="yes"/>
      <point x="605" y="-20"/>
      <point x="753" y="-16"/>
      <point x="846" y="0" type="curve"/>
      <point x="1034" y="0" type="line"/>
      <point x="1127" y="-16"/>
      <point x="1275" y="-20"/>
      <point x="1329" y="-20" type="curve" smooth="yes"/>
      <point x="1580" y="-20"/>
      <point x="1754" y="205"/>
      <point x="1754" y="536" type="curve" smooth="yes"/>
      <point x="1754" y="882"/>
      <point x="1582" y="1102"/>
      <point x="1327" y="1102" type="curve" smooth="yes"/>
      <point x="1274" y="1102"/>
      <point x="1106" y="1097"/>
      <point x="1063" y="1082" type="curve"/>
      <point x="817" y="1082" type="line"/>
      <point x="774" y="1097"/>
      <point x="606" y="1102"/>
      <point x="553" y="1102" type="curve" smooth="yes"/>
      <point x="298" y="1102"/>
      <point x="126" y="882"/>
      <point x="126" y="536" type="curve" smooth="yes"/>
      <point x="126" y="205"/>
      <point x="300" y="-20"/>
    </contour>
    <contour>
      <point x="700" y="137" type="curve" smooth="yes"/>
      <point x="521" y="137"/>
      <point x="414" y="284"/>
      <point x="414" y="529" type="curve" smooth="yes"/>
      <point x="414" y="804"/>
      <point x="521" y="945"/>
      <point x="702" y="945" type="curve" smooth="yes"/>
      <point x="737" y="945"/>
      <point x="790" y="940"/>
      <point x="820" y="931" type="curve"/>
      <point x="820" y="163" type="line"/>
      <point x="787" y="147"/>
      <point x="733" y="137"/>
    </contour>
    <contour>
      <point x="1180" y="137" type="curve" smooth="yes"/>
      <point x="1147" y="137"/>
      <point x="1093" y="147"/>
      <point x="1060" y="163" type="curve"/>
      <point x="1060" y="931" type="line"/>
      <point x="1090" y="940"/>
      <point x="1143" y="945"/>
      <point x="1178" y="945" type="curve" smooth="yes"/>
      <point x="1359" y="945"/>
      <point x="1466" y="804"/>
      <point x="1466" y="529" type="curve" smooth="yes"/>
      <point x="1466" y="284"/>
      <point x="1359" y="137"/>
    </contour>
    <contour>
      <point x="799" y="-446" type="line"/>
      <point x="1089" y="-446" type="line"/>
      <point x="1089" y="-42" type="line"/>
      <point x="799" y="-42" type="line"/>
    </contour>
  </outline>
</glyph>
<glyph name="za-ethiopic" format="2">
  <advance width="1268"/>
  <unicode hex="12D8"/>
  <outline>
    <contour>
      <point x="165" y="0" type="line"/>
      <point x="454" y="0" type="line"/>
      <point x="454" y="471" type="line"/>
      <point x="812" y="471" type="line"/>
      <point x="812" y="0" type="line"/>
      <point x="1100" y="0" type="line"/>
      <point x="1100" y="1082" type="line"/>
      <point x="812" y="1082" type="line"/>
      <point x="812" y="688" type="line"/>
      <point x="454" y="688" type="line"/>
      <point x="454" y="1082" type="line"/>
      <point x="165" y="1082" type="line"/>
    </contour>
  </outline>
</glyph>
<glyph name="zi-ethiopic" format="2">
  <advance width="1268"/>
  <unicode hex="12DA"/>
  <outline>
    <contour>
      <point x="165" y="0" type="line"/>
      <point x="454" y="0" type="line"/>
      <point x="454" y="471" type="line"/>
      <point x="812" y="471" type="line"/>
      <point x="812" y="0" type="line"/>
      <point x="1100" y="0" type="line"/>
      <point x="1100" y="1082" type="line"/>
      <point x="812" y="1082" type="line"/>
      <point x="812" y="688" type="line"/>
      <point x="454" y="688" type="line"/>
      <point x="454" y="1082" type="line"/>
      <point x="165" y="1082" type="line"/>
    </contour>
    <contour>
      <point x="1253" y="-10" type="curve" smooth="yes"/>
      <point x="1345" y="-10"/>
      <point x="1401" y="46"/>
      <point x="1401" y="126" type="curve" smooth="yes"/>
      <point x="1401" y="206"/>
      <point x="1345" y="263"/>
      <point x="1253" y="263" type="curve" smooth="yes"/>
      <point x="1164" y="263"/>
      <point x="1105" y="206"/>
      <point x="1105" y="126" type="curve" smooth="yes"/>
      <point x="1105" y="46"/>
      <point x="1162" y="-10"/>
    </contour>
  </outline>
</glyph>
<glyph name="zaa-ethiopic" format="2">
  <advance width="1268"/>
  <unicode hex="12DB"/>
  <outline>
    <contour>
      <point x="165" y="0" type="line"/>
      <point x="454" y="0" type="line"/>
      <point x="454" y="471" type="line"/>
      <point x="812" y="471" type="line"/>
      <point x="812" y="0" type="line"/>
      <point x="1100" y="0" type="line"/>
      <point x="1100" y="1082" type="line"/>
      <point x="812" y="1082" type="line"/>
      <point x="812" y="688" type="line"/>
      <point x="454" y="688" type="line"/>
      <point x="454" y="1082" type="line"/>
      <point x="165" y="1082" type="line"/>
    </contour>
    <contour>
      <point x="811" y="-412" type="line"/>
      <point x="1101" y="-412" type="line"/>
      <point x="1101" y="-8" type="line"/>
      <point x="811" y="-8" type="line"/>
    </contour>
  </outline>
</glyph>
<glyph name="zee-ethiopic" format="2">
  <advance width="1268"/>
  <unicode hex="12DC"/>
  <outline>
    <contour>
      <point x="165" y="0" type="line"/>
      <point x="454" y="0" type="line"/>
      <point x="454" y="471" type="line"/>
      <point x="812" y="471" type="line"/>
      <point x="812" y="0" type="line"/>
      <point x="1100" y="0" type="line"/>
      <point x="1100" y="1082" type="line"/>
      <point x="812" y="1082" type="line"/>
      <point x="812" y="688" type="line"/>
      <point x="454" y="688" type="line"/>
      <point x="454" y="1082" type="line"/>
      <point x="165" y="1082" type="line"/>
    </contour>
    <contour>
      <point x="860" y="-413" type="curve" smooth="yes"/>
      <point x="1032" y="-413"/>
      <point x="1162" y="-294"/>
      <point x="1162" y="-141" type="curve" smooth="yes"/>
      <point x="1162" y="18"/>
      <point x="1027" y="137"/>
      <point x="860" y="137" type="curve" smooth="yes"/>
      <point x="692" y="137"/>
      <point x="558" y="15"/>
      <point x="558" y="-141" type="curve" smooth="yes"/>
      <point x="558" y="-291"/>
      <point x="685" y="-413"/>
    </contour>
    <contour>
      <point x="910" y="-371" type="curve" smooth="yes"/>
      <point x="791" y="-371"/>
      <point x="718" y="-286"/>
      <point x="718" y="-180" type="curve" smooth="yes"/>
      <point x="718" y="-72"/>
      <point x="794" y="13"/>
      <point x="910" y="13" type="curve" smooth="yes"/>
      <point x="1026" y="13"/>
      <point x="1102" y="-72"/>
      <point x="1102" y="-180" type="curve" smooth="yes"/>
      <point x="1102" y="-286"/>
      <point x="1029" y="-371"/>
    </contour>
  </outline>
</glyph>
<glyph name="ze-ethiopic" format="2">
  <advance width="1268"/>
  <unicode hex="12DD"/>
  <outline>
    <contour>
      <point x="165" y="0" type="line"/>
      <point x="454" y="0" type="line"/>
      <point x="454" y="471" type="line"/>
      <point x="812" y="471" type="line"/>
      <point x="812" y="0" type="line"/>
      <point x="1100" y="0" type="line"/>
      <point x="1100" y="1082" type="line"/>
      <point x="812" y="1082" type="line"/>
      <point x="812" y="688" type="line"/>
      <point x="454" y="688" type="line"/>
      <point x="454" y="1082" type="line"/>
      <point x="165" y="1082" type="line"/>
    </contour>
    <contour>
      <point x="468" y="1152" type="line"/>
      <point x="271" y="1462" type="line"/>
      <point x="-44" y="1462" type="line"/>
      <point x="233" y="1152" type="line"/>
    </contour>
  </outline>
</glyph>
<glyph name="zo-ethiopic" format="2">
  <advance width="1268"/>
  <unicode hex="12DE"/>
  <outline>
    <contour>
      <point x="165" y="0" type="line"/>
      <point x="454" y="0" type="line"/>
      <point x="454" y="471" type="line"/>
      <point x="812" y="471" type="line"/>
      <point x="812" y="0" type="line"/>
      <point x="1100" y="0" type="line"/>
      <point x="1100" y="1082" type="line"/>
      <point x="812" y="1082" type="line"/>
      <point x="812" y="688" type="line"/>
      <point x="454" y="688" type="line"/>
      <point x="454" y="1082" type="line"/>
      <point x="165" y="1082" type="line"/>
    </contour>
    <contour>
      <point x="163" y="-356" type="line"/>
      <point x="463" y="-356" type="line"/>
      <point x="463" y="-2" type="line"/>
      <point x="163" y="-2" type="line"/>
    </contour>
  </outline>
</glyph>
<glyph name="zwa-ethiopic" format="2">
  <advance width="1268"/>
  <unicode hex="12DF"/>
  <outline>
    <contour>
      <point x="165" y="0" type="line"/>
      <point x="454" y="0" type="line"/>
      <point x="454" y="471" type="line"/>
      <point x="812" y="471" type="line"/>
      <point x="812" y="0" type="line"/>
      <point x="1100" y="0" type="line"/>
      <point x="1100" y="1082" type="line"/>
      <point x="812" y="1082" type="line"/>
      <point x="812" y="688" type="line"/>
      <point x="454" y="688" type="line"/>
      <point x="454" y="1082" type="line"/>
      <point x="165" y="1082" type="line"/>
    </contour>
    <contour>
      <point x="569" y="-338" type="line"/>
      <point x="1087" y="-338" type="line"/>
      <point x="1087" y="-434" type="line"/>
      <point x="1261" y="-434" type="line"/>
      <point x="1261" y="-147" type="line"/>
      <point x="1091" y="-147" type="line"/>
      <point x="1091" y="18" type="line"/>
      <point x="863" y="18" type="line"/>
      <point x="863" y="-147" type="line"/>
      <point x="569" y="-147" type="line"/>
    </contour>
  </outline>
</glyph>
<glyph name="zhaa-ethiopic" format="2">
  <advance width="1268"/>
  <unicode hex="12E3"/>
  <outline>
    <contour>
      <point x="165" y="0" type="line"/>
      <point x="454" y="0" type="line"/>
      <point x="454" y="471" type="line"/>
      <point x="812" y="471" type="line"/>
      <point x="812" y="0" type="line"/>
      <point x="1100" y="0" type="line"/>
      <point x="1100" y="1082" type="line"/>
      <point x="812" y="1082" type="line"/>
      <point x="812" y="688" type="line"/>
      <point x="454" y="688" type="line"/>
      <point x="454" y="1082" type="line"/>
      <point x="165" y="1082" type="line"/>
    </contour>
    <contour>
      <point x="811" y="-412" type="line"/>
      <point x="1101" y="-412" type="line"/>
      <point x="1101" y="-8" type="line"/>
      <point x="811" y="-8" type="line"/>
    </contour>
    <contour>
      <point x="27" y="866" type="curve" smooth="yes"/>
      <point x="110" y="866"/>
      <point x="161" y="917"/>
      <point x="161" y="989" type="curve" smooth="yes"/>
      <point x="161" y="1061"/>
      <point x="110" y="1113"/>
      <point x="27" y="1113" type="curve" smooth="yes"/>
      <point x="-53" y="1113"/>
      <point x="-107" y="1061"/>
      <point x="-107" y="989" type="curve" smooth="yes"/>
      <point x="-107" y="917"/>
      <point x="-55" y="866"/>
    </contour>
    <contour>
      <point x="1237" y="836" type="curve" smooth="yes"/>
      <point x="1320" y="836"/>
      <point x="1371" y="887"/>
      <point x="1371" y="959" type="curve" smooth="yes"/>
      <point x="1371" y="1031"/>
      <point x="1320" y="1083"/>
      <point x="1237" y="1083" type="curve" smooth="yes"/>
      <point x="1157" y="1083"/>
      <point x="1103" y="1031"/>
      <point x="1103" y="959" type="curve" smooth="yes"/>
      <point x="1103" y="887"/>
      <point x="1155" y="836"/>
    </contour>
  </outline>
</glyph>
<glyph name="zhee-ethiopic" format="2">
  <advance width="1268"/>
  <unicode hex="12E4"/>
  <outline>
    <contour>
      <point x="165" y="0" type="line"/>
      <point x="454" y="0" type="line"/>
      <point x="454" y="471" type="line"/>
      <point x="812" y="471" type="line"/>
      <point x="812" y="0" type="line"/>
      <point x="1100" y="0" type="line"/>
      <point x="1100" y="1082" type="line"/>
      <point x="812" y="1082" type="line"/>
      <point x="812" y="688" type="line"/>
      <point x="454" y="688" type="line"/>
      <point x="454" y="1082" type="line"/>
      <point x="165" y="1082" type="line"/>
    </contour>
    <contour>
      <point x="860" y="-413" type="curve" smooth="yes"/>
      <point x="1032" y="-413"/>
      <point x="1162" y="-294"/>
      <point x="1162" y="-141" type="curve" smooth="yes"/>
      <point x="1162" y="18"/>
      <point x="1027" y="137"/>
      <point x="860" y="137" type="curve" smooth="yes"/>
      <point x="692" y="137"/>
      <point x="558" y="15"/>
      <point x="558" y="-141" type="curve" smooth="yes"/>
      <point x="558" y="-291"/>
      <point x="685" y="-413"/>
    </contour>
    <contour>
      <point x="910" y="-371" type="curve" smooth="yes"/>
      <point x="791" y="-371"/>
      <point x="718" y="-286"/>
      <point x="718" y="-180" type="curve" smooth="yes"/>
      <point x="718" y="-72"/>
      <point x="794" y="13"/>
      <point x="910" y="13" type="curve" smooth="yes"/>
      <point x="1026" y="13"/>
      <point x="1102" y="-72"/>
      <point x="1102" y="-180" type="curve" smooth="yes"/>
      <point x="1102" y="-286"/>
      <point x="1029" y="-371"/>
    </contour>
    <contour>
      <point x="27" y="866" type="curve" smooth="yes"/>
      <point x="110" y="866"/>
      <point x="161" y="917"/>
      <point x="161" y="989" type="curve" smooth="yes"/>
      <point x="161" y="1061"/>
      <point x="110" y="1113"/>
      <point x="27" y="1113" type="curve" smooth="yes"/>
      <point x="-53" y="1113"/>
      <point x="-107" y="1061"/>
      <point x="-107" y="989" type="curve" smooth="yes"/>
      <point x="-107" y="917"/>
      <point x="-55" y="866"/>
    </contour>
    <contour>
      <point x="1237" y="836" type="curve" smooth="yes"/>
      <point x="1320" y="836"/>
      <point x="1371" y="887"/>
      <point x="1371" y="959" type="curve" smooth="yes"/>
      <point x="1371" y="1031"/>
      <point x="1320" y="1083"/>
      <point x="1237" y="1083" type="curve" smooth="yes"/>
      <point x="1157" y="1083"/>
      <point x="1103" y="1031"/>
      <point x="1103" y="959" type="curve" smooth="yes"/>
      <point x="1103" y="887"/>
      <point x="1155" y="836"/>
    </contour>
  </outline>
</glyph>
<glyph name="yi-ethiopic" format="2">
  <advance width="1135"/>
  <unicode hex="12EA"/>
  <outline>
    <contour>
      <point x="300" y="0" type="line"/>
      <point x="579" y="0" type="line"/>
      <point x="439" y="456" type="line"/>
      <point x="922" y="456" type="line" smooth="yes"/>
      <point x="973" y="456"/>
      <point x="1042" y="519"/>
      <point x="1048" y="565" type="curve" smooth="yes"/>
      <point x="1092" y="907"/>
      <point x="914" y="1102"/>
      <point x="633" y="1102" type="curve" smooth="yes"/>
      <point x="461" y="1102"/>
      <point x="304" y="1001"/>
      <point x="222" y="833" type="curve" smooth="yes"/>
      <point x="181" y="748"/>
      <point x="142" y="600"/>
      <point x="170" y="494" type="curve" smooth="yes"/>
    </contour>
    <contour>
      <point x="439" y="630" type="line"/>
      <point x="450" y="836"/>
      <point x="503" y="888"/>
      <point x="673" y="886" type="curve" smooth="yes"/>
      <point x="751" y="885"/>
      <point x="841" y="832"/>
      <point x="822" y="630" type="curve"/>
    </contour>
    <contour>
      <point x="278" y="161" type="line"/>
      <point x="741" y="161" type="line"/>
      <point x="741" y="397" type="line"/>
      <point x="278" y="397" type="line"/>
    </contour>
    <contour>
      <point x="857" y="93" type="curve" smooth="yes"/>
      <point x="949" y="93"/>
      <point x="1005" y="149"/>
      <point x="1005" y="229" type="curve" smooth="yes"/>
      <point x="1005" y="309"/>
      <point x="949" y="366"/>
      <point x="857" y="366" type="curve" smooth="yes"/>
      <point x="768" y="366"/>
      <point x="709" y="309"/>
      <point x="709" y="229" type="curve" smooth="yes"/>
      <point x="709" y="149"/>
      <point x="766" y="93"/>
    </contour>
  </outline>
</glyph>
<glyph name="yaa-ethiopic" format="2">
  <advance width="1135"/>
  <unicode hex="12EB"/>
  <outline>
    <contour>
      <point x="300" y="0" type="line"/>
      <point x="579" y="0" type="line"/>
      <point x="439" y="456" type="line"/>
      <point x="922" y="456" type="line" smooth="yes"/>
      <point x="973" y="456"/>
      <point x="1042" y="519"/>
      <point x="1048" y="565" type="curve" smooth="yes"/>
      <point x="1092" y="907"/>
      <point x="914" y="1102"/>
      <point x="633" y="1102" type="curve" smooth="yes"/>
      <point x="461" y="1102"/>
      <point x="304" y="1001"/>
      <point x="222" y="833" type="curve" smooth="yes"/>
      <point x="181" y="748"/>
      <point x="142" y="600"/>
      <point x="170" y="494" type="curve" smooth="yes"/>
    </contour>
    <contour>
      <point x="439" y="630" type="line"/>
      <point x="450" y="836"/>
      <point x="503" y="888"/>
      <point x="673" y="886" type="curve" smooth="yes"/>
      <point x="751" y="885"/>
      <point x="841" y="832"/>
      <point x="822" y="630" type="curve"/>
    </contour>
    <contour>
      <point x="164" y="-365" type="line"/>
      <point x="399" y="-365" type="line"/>
      <point x="676" y="-55" type="line" name="❌"/>
      <point x="361" y="-55" type="line" name="❌"/>
    </contour>
  </outline>
</glyph>
<glyph name="yee-ethiopic" format="2">
  <advance width="1135"/>
  <unicode hex="12EC"/>
  <outline>
    <contour>
      <point x="300" y="0" type="line"/>
      <point x="579" y="0" type="line"/>
      <point x="439" y="456" type="line"/>
      <point x="922" y="456" type="line" smooth="yes"/>
      <point x="973" y="456"/>
      <point x="1042" y="519"/>
      <point x="1048" y="565" type="curve" smooth="yes"/>
      <point x="1092" y="907"/>
      <point x="914" y="1102"/>
      <point x="633" y="1102" type="curve" smooth="yes"/>
      <point x="461" y="1102"/>
      <point x="304" y="1001"/>
      <point x="222" y="833" type="curve" smooth="yes"/>
      <point x="181" y="748"/>
      <point x="142" y="600"/>
      <point x="170" y="494" type="curve" smooth="yes"/>
    </contour>
    <contour>
      <point x="439" y="630" type="line"/>
      <point x="450" y="836"/>
      <point x="503" y="888"/>
      <point x="673" y="886" type="curve" smooth="yes"/>
      <point x="751" y="885"/>
      <point x="841" y="832"/>
      <point x="822" y="630" type="curve"/>
    </contour>
    <contour>
      <point x="752" y="29" type="curve" smooth="yes"/>
      <point x="879" y="29"/>
      <point x="975" y="117"/>
      <point x="975" y="230" type="curve" smooth="yes"/>
      <point x="975" y="347"/>
      <point x="875" y="435"/>
      <point x="752" y="435" type="curve" smooth="yes"/>
      <point x="628" y="435"/>
      <point x="529" y="345"/>
      <point x="529" y="230" type="curve" smooth="yes"/>
      <point x="529" y="119"/>
      <point x="623" y="29"/>
    </contour>
    <contour>
      <point x="752" y="123" type="curve" smooth="yes"/>
      <point x="685" y="123"/>
      <point x="644" y="171"/>
      <point x="644" y="230" type="curve" smooth="yes"/>
      <point x="644" y="291"/>
      <point x="687" y="339"/>
      <point x="752" y="339" type="curve" smooth="yes"/>
      <point x="817" y="339"/>
      <point x="860" y="291"/>
      <point x="860" y="230" type="curve" smooth="yes"/>
      <point x="860" y="171"/>
      <point x="819" y="123"/>
    </contour>
  </outline>
</glyph>
<glyph name="yoa-ethiopic" format="2">
  <advance width="1135"/>
  <unicode hex="12EF"/>
  <outline>
    <contour>
      <point x="300" y="0" type="line"/>
      <point x="579" y="0" type="line"/>
      <point x="439" y="456" type="line"/>
      <point x="922" y="456" type="line" smooth="yes"/>
      <point x="973" y="456"/>
      <point x="1042" y="519"/>
      <point x="1048" y="565" type="curve" smooth="yes"/>
      <point x="1092" y="907"/>
      <point x="914" y="1102"/>
      <point x="633" y="1102" type="curve" smooth="yes"/>
      <point x="461" y="1102"/>
      <point x="304" y="1001"/>
      <point x="222" y="833" type="curve" smooth="yes"/>
      <point x="181" y="748"/>
      <point x="142" y="600"/>
      <point x="170" y="494" type="curve" smooth="yes"/>
    </contour>
    <contour>
      <point x="439" y="630" type="line"/>
      <point x="450" y="836"/>
      <point x="503" y="888"/>
      <point x="673" y="886" type="curve" smooth="yes"/>
      <point x="751" y="885"/>
      <point x="841" y="832"/>
      <point x="822" y="630" type="curve"/>
    </contour>
    <contour>
      <point x="1131" y="620" type="curve" smooth="yes"/>
      <point x="1223" y="620"/>
      <point x="1279" y="676"/>
      <point x="1279" y="756" type="curve" smooth="yes"/>
      <point x="1279" y="836"/>
      <point x="1223" y="893"/>
      <point x="1131" y="893" type="curve" smooth="yes"/>
      <point x="1042" y="893"/>
      <point x="983" y="836"/>
      <point x="983" y="756" type="curve" smooth="yes"/>
      <point x="983" y="676"/>
      <point x="1040" y="620"/>
    </contour>
    <contour>
      <point x="207" y="945" type="curve" smooth="yes"/>
      <point x="299" y="945"/>
      <point x="355" y="1001"/>
      <point x="355" y="1081" type="curve" smooth="yes"/>
      <point x="355" y="1161"/>
      <point x="299" y="1218"/>
      <point x="207" y="1218" type="curve" smooth="yes"/>
      <point x="118" y="1218"/>
      <point x="59" y="1161"/>
      <point x="59" y="1081" type="curve" smooth="yes"/>
      <point x="59" y="1001"/>
      <point x="116" y="945"/>
    </contour>
  </outline>
</glyph>
<glyph name="ddu-ethiopic" format="2">
  <advance width="1135"/>
  <unicode hex="12F9"/>
  <outline>
    <contour>
      <point x="300" y="0" type="line"/>
      <point x="579" y="0" type="line"/>
      <point x="439" y="456" type="line"/>
      <point x="922" y="456" type="line" smooth="yes"/>
      <point x="973" y="456"/>
      <point x="1042" y="519"/>
      <point x="1048" y="565" type="curve" smooth="yes"/>
      <point x="1092" y="907"/>
      <point x="914" y="1102"/>
      <point x="633" y="1102" type="curve" smooth="yes"/>
      <point x="461" y="1102"/>
      <point x="304" y="1001"/>
      <point x="222" y="833" type="curve" smooth="yes"/>
      <point x="181" y="748"/>
      <point x="142" y="600"/>
      <point x="170" y="494" type="curve" smooth="yes"/>
    </contour>
    <contour>
      <point x="439" y="630" type="line"/>
      <point x="450" y="836"/>
      <point x="503" y="888"/>
      <point x="673" y="886" type="curve" smooth="yes"/>
      <point x="751" y="885"/>
      <point x="841" y="832"/>
      <point x="822" y="630" type="curve"/>
    </contour>
    <contour>
      <point x="119" y="0" type="line"/>
      <point x="932" y="0" type="line"/>
      <point x="932" y="233" type="line"/>
      <point x="119" y="233" type="line"/>
    </contour>
    <contour>
      <point x="936" y="-58" type="line"/>
      <point x="936" y="309" type="line"/>
      <point x="727" y="309" type="line"/>
      <point x="727" y="-58" type="line"/>
    </contour>
    <contour>
      <point x="1105" y="58" type="curve" smooth="yes"/>
      <point x="1197" y="58"/>
      <point x="1253" y="114"/>
      <point x="1253" y="194" type="curve" smooth="yes"/>
      <point x="1253" y="274"/>
      <point x="1197" y="331"/>
      <point x="1105" y="331" type="curve" smooth="yes"/>
      <point x="1016" y="331"/>
      <point x="957" y="274"/>
      <point x="957" y="194" type="curve" smooth="yes"/>
      <point x="957" y="114"/>
      <point x="1014" y="58"/>
    </contour>
    <component base="_smart.neck" xOffset="569" yOffset="1136"/>
  </outline>
</glyph>
<glyph name="ddi-ethiopic" format="2">
  <advance width="1135"/>
  <unicode hex="12FA"/>
  <outline>
    <contour>
      <point x="300" y="0" type="line"/>
      <point x="579" y="0" type="line"/>
      <point x="439" y="456" type="line"/>
      <point x="922" y="456" type="line" smooth="yes"/>
      <point x="973" y="456"/>
      <point x="1042" y="519"/>
      <point x="1048" y="565" type="curve" smooth="yes"/>
      <point x="1092" y="907"/>
      <point x="914" y="1102"/>
      <point x="633" y="1102" type="curve" smooth="yes"/>
      <point x="461" y="1102"/>
      <point x="304" y="1001"/>
      <point x="222" y="833" type="curve" smooth="yes"/>
      <point x="181" y="748"/>
      <point x="142" y="600"/>
      <point x="170" y="494" type="curve" smooth="yes"/>
    </contour>
    <contour>
      <point x="439" y="630" type="line"/>
      <point x="450" y="836"/>
      <point x="503" y="888"/>
      <point x="673" y="886" type="curve" smooth="yes"/>
      <point x="751" y="885"/>
      <point x="841" y="832"/>
      <point x="822" y="630" type="curve"/>
    </contour>
    <contour>
      <point x="119" y="0" type="line"/>
      <point x="932" y="0" type="line"/>
      <point x="932" y="233" type="line"/>
      <point x="119" y="233" type="line"/>
    </contour>
    <contour>
      <point x="741" y="-9" type="line"/>
      <point x="741" y="-399" type="line"/>
      <point x="930" y="-399" type="line"/>
      <point x="930" y="-9" type="line"/>
    </contour>
    <contour>
      <point x="1083" y="-409" type="curve" smooth="yes"/>
      <point x="1175" y="-409"/>
      <point x="1231" y="-353"/>
      <point x="1231" y="-273" type="curve" smooth="yes"/>
      <point x="1231" y="-193"/>
      <point x="1175" y="-136"/>
      <point x="1083" y="-136" type="curve" smooth="yes"/>
      <point x="994" y="-136"/>
      <point x="935" y="-193"/>
      <point x="935" y="-273" type="curve" smooth="yes"/>
      <point x="935" y="-353"/>
      <point x="992" y="-409"/>
    </contour>
    <component base="_smart.neck" xOffset="569" yOffset="1136"/>
  </outline>
</glyph>
<glyph name="gaa-ethiopic" format="2">
  <advance width="934"/>
  <unicode hex="130B"/>
  <outline>
    <contour>
      <point x="537" y="0" type="line"/>
      <point x="826" y="0" type="line"/>
      <point x="826" y="558" type="line" smooth="yes"/>
      <point x="826" y="895"/>
      <point x="737" y="1102"/>
      <point x="444" y="1102" type="curve" smooth="yes"/>
      <point x="298" y="1102"/>
      <point x="154" y="1018"/>
      <point x="70" y="921" type="curve"/>
      <point x="263" y="851" type="line"/>
      <point x="289" y="867"/>
      <point x="318" y="877"/>
      <point x="345" y="878" type="curve" smooth="yes"/>
      <point x="540" y="886"/>
      <point x="537" y="670"/>
      <point x="537" y="577" type="curve" smooth="yes"/>
    </contour>
    <contour>
      <point x="316" y="-351" type="line"/>
      <point x="551" y="-351" type="line"/>
      <point x="828" y="-41" type="line" name="❌"/>
      <point x="513" y="-41" type="line" name="❌"/>
    </contour>
  </outline>
</glyph>
<glyph name="ggee-ethiopic" format="2">
  <advance width="934"/>
  <unicode hex="131C"/>
  <outline>
    <contour>
      <point x="537" y="0" type="line"/>
      <point x="826" y="0" type="line"/>
      <point x="826" y="558" type="line" smooth="yes"/>
      <point x="826" y="895"/>
      <point x="737" y="1102"/>
      <point x="444" y="1102" type="curve" smooth="yes"/>
      <point x="298" y="1102"/>
      <point x="154" y="1018"/>
      <point x="70" y="921" type="curve"/>
      <point x="263" y="851" type="line"/>
      <point x="289" y="867"/>
      <point x="318" y="877"/>
      <point x="345" y="878" type="curve" smooth="yes"/>
      <point x="540" y="886"/>
      <point x="537" y="670"/>
      <point x="537" y="577" type="curve" smooth="yes"/>
    </contour>
    <contour>
      <point x="616" y="-424" type="curve" smooth="yes"/>
      <point x="788" y="-424"/>
      <point x="918" y="-305"/>
      <point x="918" y="-152" type="curve" smooth="yes"/>
      <point x="918" y="7"/>
      <point x="783" y="126"/>
      <point x="616" y="126" type="curve" smooth="yes"/>
      <point x="448" y="126"/>
      <point x="314" y="4"/>
      <point x="314" y="-152" type="curve" smooth="yes"/>
      <point x="314" y="-302"/>
      <point x="441" y="-424"/>
    </contour>
    <contour>
      <point x="666" y="-382" type="curve" smooth="yes"/>
      <point x="547" y="-382"/>
      <point x="474" y="-297"/>
      <point x="474" y="-191" type="curve" smooth="yes"/>
      <point x="474" y="-83"/>
      <point x="550" y="2"/>
      <point x="666" y="2" type="curve" smooth="yes"/>
      <point x="782" y="2"/>
      <point x="858" y="-83"/>
      <point x="858" y="-191" type="curve" smooth="yes"/>
      <point x="858" y="-297"/>
      <point x="785" y="-382"/>
    </contour>
    <contour>
      <point x="232" y="1103" type="line"/>
      <point x="469" y="1103" type="line"/>
      <point x="469" y="1413" type="line"/>
      <point x="232" y="1413" type="line"/>
    </contour>
    <component base="_smart.hat" xOffset="293" yOffset="1355"/>
  </outline>
</glyph>
<glyph name="gge-ethiopic" format="2">
  <advance width="934"/>
  <unicode hex="131D"/>
  <outline>
    <contour>
      <point x="537" y="0" type="line"/>
      <point x="826" y="0" type="line"/>
      <point x="826" y="558" type="line" smooth="yes"/>
      <point x="826" y="895"/>
      <point x="737" y="1102"/>
      <point x="444" y="1102" type="curve" smooth="yes"/>
      <point x="298" y="1102"/>
      <point x="154" y="1018"/>
      <point x="70" y="921" type="curve"/>
      <point x="263" y="851" type="line"/>
      <point x="289" y="867"/>
      <point x="318" y="877"/>
      <point x="345" y="878" type="curve" smooth="yes"/>
      <point x="540" y="886"/>
      <point x="537" y="670"/>
      <point x="537" y="577" type="curve" smooth="yes"/>
    </contour>
    <contour>
      <point x="-34" y="1356" type="line" name="❌"/>
      <point x="630" y="1356" type="line" name="❌"/>
      <point x="630" y="1511" type="line"/>
      <point x="-34" y="1511" type="line"/>
    </contour>
    <contour>
      <point x="70" y="393" type="curve" smooth="yes"/>
      <point x="238" y="393"/>
      <point x="372" y="515"/>
      <point x="372" y="671" type="curve" smooth="yes"/>
      <point x="372" y="821"/>
      <point x="245" y="943"/>
      <point x="70" y="943" type="curve" smooth="yes"/>
      <point x="-102" y="943"/>
      <point x="-232" y="824"/>
      <point x="-232" y="671" type="curve" smooth="yes"/>
      <point x="-232" y="512"/>
      <point x="-97" y="393"/>
    </contour>
    <contour>
      <point x="20" y="517" type="curve" smooth="yes"/>
      <point x="-96" y="517"/>
      <point x="-172" y="602"/>
      <point x="-172" y="710" type="curve" smooth="yes"/>
      <point x="-172" y="816"/>
      <point x="-99" y="901"/>
      <point x="20" y="901" type="curve" smooth="yes"/>
      <point x="139" y="901"/>
      <point x="212" y="816"/>
      <point x="212" y="710" type="curve" smooth="yes"/>
      <point x="212" y="602"/>
      <point x="136" y="517"/>
    </contour>
    <component base="_smart.neck" xOffset="343" yOffset="1126"/>
  </outline>
</glyph>
<glyph name="ggwaa-ethiopic" format="2">
  <advance width="934"/>
  <unicode hex="131F"/>
  <outline>
    <contour>
      <point x="537" y="0" type="line"/>
      <point x="826" y="0" type="line"/>
      <point x="826" y="558" type="line" smooth="yes"/>
      <point x="826" y="895"/>
      <point x="737" y="1102"/>
      <point x="444" y="1102" type="curve" smooth="yes"/>
      <point x="298" y="1102"/>
      <point x="154" y="1018"/>
      <point x="70" y="921" type="curve"/>
      <point x="263" y="851" type="line"/>
      <point x="289" y="867"/>
      <point x="318" y="877"/>
      <point x="345" y="878" type="curve" smooth="yes"/>
      <point x="540" y="886"/>
      <point x="537" y="670"/>
      <point x="537" y="577" type="curve" smooth="yes"/>
    </contour>
    <contour>
      <point x="232" y="1103" type="line"/>
      <point x="469" y="1103" type="line"/>
      <point x="469" y="1413" type="line"/>
      <point x="232" y="1413" type="line"/>
    </contour>
    <contour>
      <point x="-34" y="1356" type="line" name="❌"/>
      <point x="630" y="1356" type="line" name="❌"/>
      <point x="630" y="1511" type="line"/>
      <point x="-34" y="1511" type="line"/>
    </contour>
    <component base="_smart.xwaa" xOffset="9" yOffset="-18"/>
  </outline>
</glyph>
<glyph name="tha-ethiopic" format="2">
  <advance width="1891"/>
  <unicode hex="1320"/>
  <outline>
    <contour>
      <point x="171" y="0" type="line"/>
      <point x="460" y="0" type="line"/>
      <point x="460" y="639" type="line" smooth="yes"/>
      <point x="460" y="756"/>
      <point x="479" y="865"/>
      <point x="616" y="869" type="curve" smooth="yes"/>
      <point x="687" y="871"/>
      <point x="801" y="872"/>
      <point x="801" y="727" type="curve" smooth="yes"/>
      <point x="801" y="0" type="line"/>
      <point x="1089" y="0" type="line"/>
      <point x="1089" y="697" type="line" smooth="yes"/>
      <point x="1089" y="784"/>
      <point x="1119" y="867"/>
      <point x="1283" y="868" type="curve" smooth="yes"/>
      <point x="1412" y="869"/>
      <point x="1432" y="747"/>
      <point x="1432" y="702" type="curve" smooth="yes"/>
      <point x="1432" y="0" type="line"/>
      <point x="1720" y="0" type="line"/>
      <point x="1720" y="706" type="line" smooth="yes"/>
      <point x="1720" y="970"/>
      <point x="1605" y="1102"/>
      <point x="1393" y="1102" type="curve" smooth="yes"/>
      <point x="1178" y="1102"/>
      <point x="1099" y="1072"/>
      <point x="955" y="916" type="curve"/>
      <point x="859" y="1097"/>
      <point x="681" y="1102"/>
      <point x="589" y="1102" type="curve" smooth="yes"/>
      <point x="371" y="1102"/>
      <point x="171" y="920"/>
      <point x="171" y="683" type="curve" smooth="yes"/>
    </contour>
  </outline>
</glyph>
<glyph name="chee-ethiopic" format="2">
  <advance width="1891"/>
  <unicode hex="132C"/>
  <outline>
    <contour>
      <point x="171" y="0" type="line"/>
      <point x="460" y="0" type="line"/>
      <point x="460" y="639" type="line" smooth="yes"/>
      <point x="460" y="756"/>
      <point x="479" y="865"/>
      <point x="616" y="869" type="curve" smooth="yes"/>
      <point x="687" y="871"/>
      <point x="801" y="872"/>
      <point x="801" y="727" type="curve" smooth="yes"/>
      <point x="801" y="0" type="line"/>
      <point x="1089" y="0" type="line"/>
      <point x="1089" y="697" type="line" smooth="yes"/>
      <point x="1089" y="784"/>
      <point x="1119" y="867"/>
      <point x="1283" y="868" type="curve" smooth="yes"/>
      <point x="1412" y="869"/>
      <point x="1432" y="747"/>
      <point x="1432" y="702" type="curve" smooth="yes"/>
      <point x="1432" y="0" type="line"/>
      <point x="1720" y="0" type="line"/>
      <point x="1720" y="706" type="line" smooth="yes"/>
      <point x="1720" y="970"/>
      <point x="1605" y="1102"/>
      <point x="1393" y="1102" type="curve" smooth="yes"/>
      <point x="1178" y="1102"/>
      <point x="1099" y="1072"/>
      <point x="955" y="916" type="curve"/>
      <point x="859" y="1097"/>
      <point x="681" y="1102"/>
      <point x="589" y="1102" type="curve" smooth="yes"/>
      <point x="371" y="1102"/>
      <point x="171" y="920"/>
      <point x="171" y="683" type="curve" smooth="yes"/>
    </contour>
    <contour>
      <point x="1480" y="-417" type="curve" smooth="yes"/>
      <point x="1652" y="-417"/>
      <point x="1782" y="-298"/>
      <point x="1782" y="-145" type="curve" smooth="yes"/>
      <point x="1782" y="14"/>
      <point x="1647" y="133"/>
      <point x="1480" y="133" type="curve" smooth="yes"/>
      <point x="1312" y="133"/>
      <point x="1178" y="11"/>
      <point x="1178" y="-145" type="curve" smooth="yes"/>
      <point x="1178" y="-295"/>
      <point x="1305" y="-417"/>
    </contour>
    <contour>
      <point x="1530" y="-375" type="curve" smooth="yes"/>
      <point x="1411" y="-375"/>
      <point x="1338" y="-290"/>
      <point x="1338" y="-184" type="curve" smooth="yes"/>
      <point x="1338" y="-76"/>
      <point x="1414" y="9"/>
      <point x="1530" y="9" type="curve" smooth="yes"/>
      <point x="1646" y="9"/>
      <point x="1722" y="-76"/>
      <point x="1722" y="-184" type="curve" smooth="yes"/>
      <point x="1722" y="-290"/>
      <point x="1649" y="-375"/>
    </contour>
    <contour>
      <point x="351" y="-53"/>
      <point x="647" y="-53"/>
      <point x="647" y="129" type="curve" smooth="yes"/>
      <point x="647" y="313"/>
      <point x="351" y="313"/>
      <point x="351" y="129" type="curve" smooth="yes"/>
    </contour>
    <contour>
      <point x="1234" y="-53"/>
      <point x="1530" y="-53"/>
      <point x="1530" y="129" type="curve" smooth="yes"/>
      <point x="1530" y="313"/>
      <point x="1234" y="313"/>
      <point x="1234" y="129" type="curve" smooth="yes"/>
    </contour>
  </outline>
</glyph>
<glyph name="phee-ethiopic" format="2">
  <advance width="1082"/>
  <unicode hex="1334"/>
  <outline>
    <contour>
      <point x="116" y="0" type="line"/>
      <point x="397" y="0" type="line"/>
      <point x="397" y="289" type="line" smooth="yes"/>
      <point x="397" y="385"/>
      <point x="448" y="448"/>
      <point x="526" y="448" type="curve" smooth="yes"/>
      <point x="623" y="448"/>
      <point x="661" y="384"/>
      <point x="661" y="287" type="curve" smooth="yes"/>
      <point x="661" y="0" type="line"/>
      <point x="947" y="0" type="line"/>
      <point x="947" y="300" type="line" smooth="yes"/>
      <point x="947" y="416"/>
      <point x="895" y="494"/>
      <point x="780" y="551" type="curve"/>
      <point x="889" y="608"/>
      <point x="939" y="683"/>
      <point x="939" y="788" type="curve" smooth="yes"/>
      <point x="939" y="965"/>
      <point x="772" y="1105"/>
      <point x="539" y="1105" type="curve" smooth="yes"/>
      <point x="334" y="1105"/>
      <point x="126" y="990"/>
      <point x="126" y="785" type="curve" smooth="yes"/>
      <point x="126" y="676"/>
      <point x="181" y="605"/>
      <point x="280" y="551" type="curve"/>
      <point x="169" y="494"/>
      <point x="116" y="417"/>
      <point x="116" y="303" type="curve" smooth="yes"/>
    </contour>
    <contour>
      <point x="528" y="670" type="curve" smooth="yes"/>
      <point x="426" y="670"/>
      <point x="365" y="716"/>
      <point x="365" y="777" type="curve" smooth="yes"/>
      <point x="365" y="853"/>
      <point x="441" y="912"/>
      <point x="528" y="912" type="curve" smooth="yes"/>
      <point x="624" y="912"/>
      <point x="700" y="851"/>
      <point x="700" y="778" type="curve" smooth="yes"/>
      <point x="700" y="720"/>
      <point x="651" y="670"/>
    </contour>
    <contour>
      <point x="726" y="-427" type="curve" smooth="yes"/>
      <point x="898" y="-427"/>
      <point x="1028" y="-308"/>
      <point x="1028" y="-155" type="curve" smooth="yes"/>
      <point x="1028" y="4"/>
      <point x="893" y="123"/>
      <point x="726" y="123" type="curve" smooth="yes"/>
      <point x="558" y="123"/>
      <point x="424" y="1"/>
      <point x="424" y="-155" type="curve" smooth="yes"/>
      <point x="424" y="-305"/>
      <point x="551" y="-427"/>
    </contour>
    <contour>
      <point x="776" y="-385" type="curve" smooth="yes"/>
      <point x="657" y="-385"/>
      <point x="584" y="-300"/>
      <point x="584" y="-194" type="curve" smooth="yes"/>
      <point x="584" y="-86"/>
      <point x="660" y="-1"/>
      <point x="776" y="-1" type="curve" smooth="yes"/>
      <point x="892" y="-1"/>
      <point x="968" y="-86"/>
      <point x="968" y="-194" type="curve" smooth="yes"/>
      <point x="968" y="-300"/>
      <point x="895" y="-385"/>
    </contour>
    <contour>
      <point x="388" y="1086" type="line"/>
      <point x="625" y="1086" type="line"/>
      <point x="625" y="1396" type="line"/>
      <point x="388" y="1396" type="line"/>
    </contour>
  </outline>
</glyph>
<glyph name="tse-ethiopic" format="2">
  <advance width="1082"/>
  <unicode hex="133D"/>
  <outline>
    <contour>
      <point x="116" y="0" type="line"/>
      <point x="397" y="0" type="line"/>
      <point x="397" y="289" type="line" smooth="yes"/>
      <point x="397" y="385"/>
      <point x="448" y="448"/>
      <point x="526" y="448" type="curve" smooth="yes"/>
      <point x="623" y="448"/>
      <point x="661" y="384"/>
      <point x="661" y="287" type="curve" smooth="yes"/>
      <point x="661" y="0" type="line"/>
      <point x="947" y="0" type="line"/>
      <point x="947" y="300" type="line" smooth="yes"/>
      <point x="947" y="416"/>
      <point x="895" y="494"/>
      <point x="780" y="551" type="curve"/>
      <point x="889" y="608"/>
      <point x="939" y="683"/>
      <point x="939" y="788" type="curve" smooth="yes"/>
      <point x="939" y="965"/>
      <point x="772" y="1105"/>
      <point x="539" y="1105" type="curve" smooth="yes"/>
      <point x="334" y="1105"/>
      <point x="126" y="990"/>
      <point x="126" y="785" type="curve" smooth="yes"/>
      <point x="126" y="676"/>
      <point x="181" y="605"/>
      <point x="280" y="551" type="curve"/>
      <point x="169" y="494"/>
      <point x="116" y="417"/>
      <point x="116" y="303" type="curve" smooth="yes"/>
    </contour>
    <contour>
      <point x="528" y="670" type="curve" smooth="yes"/>
      <point x="426" y="670"/>
      <point x="365" y="716"/>
      <point x="365" y="777" type="curve" smooth="yes"/>
      <point x="365" y="853"/>
      <point x="441" y="912"/>
      <point x="528" y="912" type="curve" smooth="yes"/>
      <point x="624" y="912"/>
      <point x="700" y="851"/>
      <point x="700" y="778" type="curve" smooth="yes"/>
      <point x="700" y="720"/>
      <point x="651" y="670"/>
    </contour>
    <contour>
      <point x="1071" y="652" type="curve" smooth="yes"/>
      <point x="1163" y="652"/>
      <point x="1219" y="708"/>
      <point x="1219" y="788" type="curve" smooth="yes"/>
      <point x="1219" y="868"/>
      <point x="1163" y="925"/>
      <point x="1071" y="925" type="curve" smooth="yes"/>
      <point x="982" y="925"/>
      <point x="923" y="868"/>
      <point x="923" y="788" type="curve" smooth="yes"/>
      <point x="923" y="708"/>
      <point x="980" y="652"/>
    </contour>
  </outline>
</glyph>
<glyph name="tswa-ethiopic" format="2">
  <advance width="1082"/>
  <unicode hex="133F"/>
  <outline>
    <contour>
      <point x="116" y="0" type="line"/>
      <point x="397" y="0" type="line"/>
      <point x="397" y="289" type="line" smooth="yes"/>
      <point x="397" y="385"/>
      <point x="448" y="448"/>
      <point x="526" y="448" type="curve" smooth="yes"/>
      <point x="623" y="448"/>
      <point x="661" y="384"/>
      <point x="661" y="287" type="curve" smooth="yes"/>
      <point x="661" y="0" type="line"/>
      <point x="947" y="0" type="line"/>
      <point x="947" y="300" type="line" smooth="yes"/>
      <point x="947" y="416"/>
      <point x="895" y="494"/>
      <point x="780" y="551" type="curve"/>
      <point x="889" y="608"/>
      <point x="939" y="683"/>
      <point x="939" y="788" type="curve" smooth="yes"/>
      <point x="939" y="965"/>
      <point x="772" y="1105"/>
      <point x="539" y="1105" type="curve" smooth="yes"/>
      <point x="334" y="1105"/>
      <point x="126" y="990"/>
      <point x="126" y="785" type="curve" smooth="yes"/>
      <point x="126" y="676"/>
      <point x="181" y="605"/>
      <point x="280" y="551" type="curve"/>
      <point x="169" y="494"/>
      <point x="116" y="417"/>
      <point x="116" y="303" type="curve" smooth="yes"/>
    </contour>
    <contour>
      <point x="528" y="670" type="curve" smooth="yes"/>
      <point x="426" y="670"/>
      <point x="365" y="716"/>
      <point x="365" y="777" type="curve" smooth="yes"/>
      <point x="365" y="853"/>
      <point x="441" y="912"/>
      <point x="528" y="912" type="curve" smooth="yes"/>
      <point x="624" y="912"/>
      <point x="700" y="851"/>
      <point x="700" y="778" type="curve" smooth="yes"/>
      <point x="700" y="720"/>
      <point x="651" y="670"/>
    </contour>
    <contour>
      <point x="426" y="-338" type="line"/>
      <point x="944" y="-338" type="line"/>
      <point x="944" y="-434" type="line"/>
      <point x="1118" y="-434" type="line"/>
      <point x="1118" y="-147" type="line"/>
      <point x="948" y="-147" type="line"/>
      <point x="948" y="18" type="line"/>
      <point x="720" y="18" type="line"/>
      <point x="720" y="-147" type="line"/>
      <point x="426" y="-147" type="line"/>
    </contour>
  </outline>
</glyph>
<glyph name="tzi-ethiopic" format="2">
  <advance width="1279"/>
  <unicode hex="1342"/>
  <outline>
    <contour>
      <point x="639" y="-20" type="curve" smooth="yes"/>
      <point x="834" y="-20"/>
      <point x="994" y="76"/>
      <point x="1081" y="229" type="curve" smooth="yes"/>
      <point x="1132" y="320"/>
      <point x="1159" y="432"/>
      <point x="1151" y="556" type="curve" smooth="yes"/>
      <point x="1149" y="589" type="line" smooth="yes"/>
      <point x="1130" y="896"/>
      <point x="929" y="1102"/>
      <point x="637" y="1102" type="curve" smooth="yes"/>
      <point x="456" y="1101"/>
      <point x="330" y="1009"/>
      <point x="249" y="895" type="curve" smooth="yes"/>
      <point x="162" y="775"/>
      <point x="126" y="632"/>
      <point x="126" y="551" type="curve" smooth="yes"/>
      <point x="126" y="538" type="line" smooth="yes"/>
      <point x="126" y="194"/>
      <point x="327" y="-20"/>
    </contour>
    <contour>
      <point x="639" y="213" type="curve" smooth="yes"/>
      <point x="495" y="213"/>
      <point x="415" y="325"/>
      <point x="415" y="530" type="curve" smooth="yes"/>
      <point x="415" y="761"/>
      <point x="496" y="868"/>
      <point x="637" y="868" type="curve" smooth="yes"/>
      <point x="780" y="868"/>
      <point x="862" y="752"/>
      <point x="862" y="551" type="curve" smooth="yes"/>
      <point x="862" y="315"/>
      <point x="779" y="213"/>
    </contour>
    <contour>
      <point x="1103" y="-429" type="curve" smooth="yes"/>
      <point x="1195" y="-429"/>
      <point x="1251" y="-373"/>
      <point x="1251" y="-293" type="curve" smooth="yes"/>
      <point x="1251" y="-213"/>
      <point x="1195" y="-156"/>
      <point x="1103" y="-156" type="curve" smooth="yes"/>
      <point x="1014" y="-156"/>
      <point x="955" y="-213"/>
      <point x="955" y="-293" type="curve" smooth="yes"/>
      <point x="955" y="-373"/>
      <point x="1012" y="-429"/>
    </contour>
    <contour>
      <point x="428" y="429" type="line"/>
      <point x="842" y="429" type="line"/>
      <point x="842" y="604" type="line"/>
      <point x="428" y="604" type="line"/>
    </contour>
    <component base="_smart.haa" xOffset="828" yOffset="-345"/>
  </outline>
</glyph>
<glyph name="tzee-ethiopic" format="2">
  <advance width="1279"/>
  <unicode hex="1344"/>
  <outline>
    <contour>
      <point x="639" y="-20" type="curve" smooth="yes"/>
      <point x="834" y="-20"/>
      <point x="994" y="76"/>
      <point x="1081" y="229" type="curve" smooth="yes"/>
      <point x="1132" y="320"/>
      <point x="1159" y="432"/>
      <point x="1151" y="556" type="curve" smooth="yes"/>
      <point x="1149" y="589" type="line" smooth="yes"/>
      <point x="1130" y="896"/>
      <point x="929" y="1102"/>
      <point x="637" y="1102" type="curve" smooth="yes"/>
      <point x="456" y="1101"/>
      <point x="330" y="1009"/>
      <point x="249" y="895" type="curve" smooth="yes"/>
      <point x="162" y="775"/>
      <point x="126" y="632"/>
      <point x="126" y="551" type="curve" smooth="yes"/>
      <point x="126" y="538" type="line" smooth="yes"/>
      <point x="126" y="194"/>
      <point x="327" y="-20"/>
    </contour>
    <contour>
      <point x="639" y="213" type="curve" smooth="yes"/>
      <point x="495" y="213"/>
      <point x="415" y="325"/>
      <point x="415" y="530" type="curve" smooth="yes"/>
      <point x="415" y="761"/>
      <point x="496" y="868"/>
      <point x="637" y="868" type="curve" smooth="yes"/>
      <point x="780" y="868"/>
      <point x="862" y="752"/>
      <point x="862" y="551" type="curve" smooth="yes"/>
      <point x="862" y="315"/>
      <point x="779" y="213"/>
    </contour>
    <contour>
      <point x="838" y="-516" type="curve" smooth="yes"/>
      <point x="1010" y="-516"/>
      <point x="1140" y="-397"/>
      <point x="1140" y="-244" type="curve" smooth="yes"/>
      <point x="1140" y="-85"/>
      <point x="1005" y="34"/>
      <point x="838" y="34" type="curve" smooth="yes"/>
      <point x="670" y="34"/>
      <point x="536" y="-88"/>
      <point x="536" y="-244" type="curve" smooth="yes"/>
      <point x="536" y="-394"/>
      <point x="663" y="-516"/>
    </contour>
    <contour>
      <point x="888" y="-474" type="curve" smooth="yes"/>
      <point x="769" y="-474"/>
      <point x="696" y="-389"/>
      <point x="696" y="-283" type="curve" smooth="yes"/>
      <point x="696" y="-175"/>
      <point x="772" y="-90"/>
      <point x="888" y="-90" type="curve" smooth="yes"/>
      <point x="1004" y="-90"/>
      <point x="1080" y="-175"/>
      <point x="1080" y="-283" type="curve" smooth="yes"/>
      <point x="1080" y="-389"/>
      <point x="1007" y="-474"/>
    </contour>
    <contour>
      <point x="428" y="429" type="line"/>
      <point x="842" y="429" type="line"/>
      <point x="842" y="604" type="line"/>
      <point x="428" y="604" type="line"/>
    </contour>
  </outline>
</glyph>
<glyph name="tzoa-ethiopic" format="2">
  <advance width="1279"/>
  <unicode hex="1347"/>
  <outline>
    <contour>
      <point x="639" y="-20" type="curve" smooth="yes"/>
      <point x="834" y="-20"/>
      <point x="994" y="76"/>
      <point x="1081" y="229" type="curve" smooth="yes"/>
      <point x="1132" y="320"/>
      <point x="1159" y="432"/>
      <point x="1151" y="556" type="curve" smooth="yes"/>
      <point x="1149" y="589" type="line" smooth="yes"/>
      <point x="1130" y="896"/>
      <point x="929" y="1102"/>
      <point x="637" y="1102" type="curve" smooth="yes"/>
      <point x="456" y="1101"/>
      <point x="330" y="1009"/>
      <point x="249" y="895" type="curve" smooth="yes"/>
      <point x="162" y="775"/>
      <point x="126" y="632"/>
      <point x="126" y="551" type="curve" smooth="yes"/>
      <point x="126" y="538" type="line" smooth="yes"/>
      <point x="126" y="194"/>
      <point x="327" y="-20"/>
    </contour>
    <contour>
      <point x="639" y="213" type="curve" smooth="yes"/>
      <point x="495" y="213"/>
      <point x="415" y="325"/>
      <point x="415" y="530" type="curve" smooth="yes"/>
      <point x="415" y="761"/>
      <point x="496" y="868"/>
      <point x="637" y="868" type="curve" smooth="yes"/>
      <point x="780" y="868"/>
      <point x="862" y="752"/>
      <point x="862" y="551" type="curve" smooth="yes"/>
      <point x="862" y="315"/>
      <point x="779" y="213"/>
    </contour>
    <contour>
      <point x="513" y="-338" type="line"/>
      <point x="1031" y="-338" type="line"/>
      <point x="1031" y="-434" type="line"/>
      <point x="1205" y="-434" type="line"/>
      <point x="1205" y="-147" type="line"/>
      <point x="1035" y="-147" type="line"/>
      <point x="1035" y="18" type="line"/>
      <point x="807" y="18" type="line"/>
      <point x="807" y="-147" type="line"/>
      <point x="513" y="-147" type="line"/>
    </contour>
    <contour>
      <point x="428" y="429" type="line"/>
      <point x="842" y="429" type="line"/>
      <point x="842" y="604" type="line"/>
      <point x="428" y="604" type="line"/>
    </contour>
  </outline>
</glyph>
<glyph name="fi-ethiopic" format="2">
  <advance width="1101"/>
  <unicode hex="134A"/>
  <outline>
    <contour>
      <point x="568" y="-20" type="curve" smooth="yes"/>
      <point x="770" y="-20"/>
      <point x="995" y="141"/>
      <point x="1017" y="316" type="curve"/>
      <point x="900" y="316" type="line"/>
      <point x="878" y="225"/>
      <point x="768" y="177"/>
      <point x="667" y="174" type="curve" smooth="yes"/>
      <point x="472" y="168"/>
      <point x="474" y="270"/>
      <point x="474" y="517" type="curve" smooth="yes"/>
      <point x="474" y="1082" type="line"/>
      <point x="186" y="1082" type="line"/>
      <point x="186" y="524" type="line" smooth="yes"/>
      <point x="186" y="187"/>
      <point x="275" y="-20"/>
    </contour>
    <contour>
      <point x="774" y="660" type="line"/>
      <point x="483" y="660" type="line"/>
      <point x="483" y="577" type="line"/>
      <point x="559" y="577" type="line"/>
      <point x="559" y="102" type="line"/>
      <point x="774" y="102" type="line"/>
    </contour>
    <contour>
      <point x="1017" y="330" type="line"/>
      <point x="1017" y="639" type="line"/>
      <point x="852" y="639" type="line"/>
      <point x="852" y="455" type="line"/>
      <point x="935" y="455" type="line"/>
      <point x="935" y="330" type="line"/>
    </contour>
  </outline>
</glyph>
<glyph name="fo-ethiopic" format="2">
  <advance width="1101"/>
  <unicode hex="134E"/>
  <outline>
    <contour>
      <point x="568" y="-20" type="curve" smooth="yes"/>
      <point x="770" y="-20"/>
      <point x="995" y="141"/>
      <point x="1017" y="316" type="curve"/>
      <point x="900" y="316" type="line"/>
      <point x="878" y="225"/>
      <point x="768" y="177"/>
      <point x="667" y="174" type="curve" smooth="yes"/>
      <point x="472" y="168"/>
      <point x="474" y="270"/>
      <point x="474" y="517" type="curve" smooth="yes"/>
      <point x="474" y="1082" type="line"/>
      <point x="186" y="1082" type="line"/>
      <point x="186" y="524" type="line" smooth="yes"/>
      <point x="186" y="187"/>
      <point x="275" y="-20"/>
    </contour>
    <contour>
      <point x="774" y="660" type="line"/>
      <point x="483" y="660" type="line"/>
      <point x="483" y="577" type="line"/>
      <point x="559" y="577" type="line"/>
      <point x="559" y="102" type="line"/>
      <point x="774" y="102" type="line"/>
    </contour>
    <contour>
      <point x="827" y="790" type="curve" smooth="yes"/>
      <point x="995" y="790"/>
      <point x="1129" y="912"/>
      <point x="1129" y="1068" type="curve" smooth="yes"/>
      <point x="1129" y="1218"/>
      <point x="1002" y="1340"/>
      <point x="827" y="1340" type="curve" smooth="yes"/>
      <point x="655" y="1340"/>
      <point x="525" y="1221"/>
      <point x="525" y="1068" type="curve" smooth="yes"/>
      <point x="525" y="909"/>
      <point x="660" y="790"/>
    </contour>
    <contour>
      <point x="777" y="914" type="curve" smooth="yes"/>
      <point x="661" y="914"/>
      <point x="585" y="999"/>
      <point x="585" y="1107" type="curve" smooth="yes"/>
      <point x="585" y="1213"/>
      <point x="658" y="1298"/>
      <point x="777" y="1298" type="curve" smooth="yes"/>
      <point x="896" y="1298"/>
      <point x="969" y="1213"/>
      <point x="969" y="1107" type="curve" smooth="yes"/>
      <point x="969" y="999"/>
      <point x="893" y="914"/>
    </contour>
  </outline>
</glyph>
<glyph name="pa-ethiopic" format="2">
  <advance width="801"/>
  <unicode hex="1350"/>
  <outline>
    <contour>
      <point x="517" y="0" type="line"/>
      <point x="517" y="870" type="line"/>
      <point x="702" y="870" type="line"/>
      <point x="702" y="1082" type="line"/>
      <point x="70" y="1082" type="line"/>
      <point x="70" y="870" type="line"/>
      <point x="230" y="870" type="line"/>
      <point x="230" y="0" type="line"/>
    </contour>
  </outline>
</glyph>
<glyph name="pi-ethiopic" format="2">
  <advance width="801"/>
  <unicode hex="1352"/>
  <outline>
    <contour>
      <point x="517" y="0" type="line"/>
      <point x="517" y="870" type="line"/>
      <point x="702" y="870" type="line"/>
      <point x="702" y="1082" type="line"/>
      <point x="70" y="1082" type="line"/>
      <point x="70" y="870" type="line"/>
      <point x="230" y="870" type="line"/>
      <point x="230" y="0" type="line"/>
    </contour>
    <contour>
      <point x="634" y="-7" type="curve" smooth="yes"/>
      <point x="726" y="-7"/>
      <point x="782" y="49"/>
      <point x="782" y="129" type="curve" smooth="yes"/>
      <point x="782" y="209"/>
      <point x="726" y="266"/>
      <point x="634" y="266" type="curve" smooth="yes"/>
      <point x="545" y="266"/>
      <point x="486" y="209"/>
      <point x="486" y="129" type="curve" smooth="yes"/>
      <point x="486" y="49"/>
      <point x="543" y="-7"/>
    </contour>
  </outline>
</glyph>
<glyph name="paa-ethiopic" format="2">
  <advance width="880"/>
  <unicode hex="1353"/>
  <outline>
    <contour>
      <point x="70" y="0" type="line"/>
      <point x="333" y="0" type="line"/>
      <point x="333" y="160" type="line"/>
      <point x="70" y="160" type="line"/>
    </contour>
    <contour>
      <point x="596" y="0" type="line"/>
      <point x="596" y="870" type="line"/>
      <point x="781" y="870" type="line"/>
      <point x="781" y="1082" type="line"/>
      <point x="149" y="1082" type="line"/>
      <point x="149" y="870" type="line"/>
      <point x="309" y="870" type="line"/>
      <point x="309" y="0" type="line"/>
    </contour>
  </outline>
</glyph>
<glyph name="pee-ethiopic" format="2">
  <advance width="801"/>
  <unicode hex="1354"/>
  <outline>
    <contour>
      <point x="517" y="0" type="line"/>
      <point x="517" y="870" type="line"/>
      <point x="702" y="870" type="line"/>
      <point x="702" y="1082" type="line"/>
      <point x="70" y="1082" type="line"/>
      <point x="70" y="870" type="line"/>
      <point x="230" y="870" type="line"/>
      <point x="230" y="0" type="line"/>
    </contour>
    <contour>
      <point x="311" y="-427" type="curve" smooth="yes"/>
      <point x="483" y="-427"/>
      <point x="613" y="-308"/>
      <point x="613" y="-155" type="curve" smooth="yes"/>
      <point x="613" y="4"/>
      <point x="478" y="123"/>
      <point x="311" y="123" type="curve" smooth="yes"/>
      <point x="143" y="123"/>
      <point x="9" y="1"/>
      <point x="9" y="-155" type="curve" smooth="yes"/>
      <point x="9" y="-305"/>
      <point x="136" y="-427"/>
    </contour>
    <contour>
      <point x="361" y="-385" type="curve" smooth="yes"/>
      <point x="242" y="-385"/>
      <point x="169" y="-300"/>
      <point x="169" y="-194" type="curve" smooth="yes"/>
      <point x="169" y="-86"/>
      <point x="245" y="-1"/>
      <point x="361" y="-1" type="curve" smooth="yes"/>
      <point x="477" y="-1"/>
      <point x="553" y="-86"/>
      <point x="553" y="-194" type="curve" smooth="yes"/>
      <point x="553" y="-300"/>
      <point x="480" y="-385"/>
    </contour>
  </outline>
</glyph>
<glyph name="pe-ethiopic" format="2">
  <advance width="801"/>
  <unicode hex="1355"/>
  <outline>
    <contour>
      <point x="517" y="0" type="line"/>
      <point x="517" y="870" type="line"/>
      <point x="702" y="870" type="line"/>
      <point x="702" y="1082" type="line"/>
      <point x="70" y="1082" type="line"/>
      <point x="70" y="870" type="line"/>
      <point x="230" y="870" type="line"/>
      <point x="230" y="0" type="line"/>
    </contour>
    <contour>
      <point x="435" y="-364" type="line"/>
      <point x="725" y="-364" type="line"/>
      <point x="725" y="40" type="line"/>
      <point x="435" y="40" type="line"/>
    </contour>
  </outline>
</glyph>
<glyph name="po-ethiopic" format="2">
  <advance width="801"/>
  <unicode hex="1356"/>
  <outline>
    <contour>
      <point x="517" y="0" type="line"/>
      <point x="517" y="870" type="line"/>
      <point x="702" y="870" type="line"/>
      <point x="702" y="1082" type="line"/>
      <point x="70" y="1082" type="line"/>
      <point x="70" y="870" type="line"/>
      <point x="230" y="870" type="line"/>
      <point x="230" y="0" type="line"/>
    </contour>
    <contour>
      <point x="10" y="-321" type="line"/>
      <point x="245" y="-321" type="line"/>
      <point x="522" y="-11" type="line" name="❌"/>
      <point x="207" y="-11" type="line" name="❌"/>
    </contour>
  </outline>
</glyph>
<glyph name="pwa-ethiopic" format="2">
  <advance width="801"/>
  <unicode hex="1357"/>
  <outline>
    <contour>
      <point x="517" y="0" type="line"/>
      <point x="517" y="870" type="line"/>
      <point x="702" y="870" type="line"/>
      <point x="702" y="1082" type="line"/>
      <point x="70" y="1082" type="line"/>
      <point x="70" y="870" type="line"/>
      <point x="230" y="870" type="line"/>
      <point x="230" y="0" type="line"/>
    </contour>
    <contour>
      <point x="-6" y="-326" type="line"/>
      <point x="512" y="-326" type="line"/>
      <point x="512" y="-422" type="line"/>
      <point x="686" y="-422" type="line"/>
      <point x="686" y="-135" type="line"/>
      <point x="516" y="-135" type="line"/>
      <point x="516" y="30" type="line"/>
      <point x="288" y="30" type="line"/>
      <point x="288" y="-135" type="line"/>
      <point x="-6" y="-135" type="line"/>
    </contour>
  </outline>
</glyph>
<glyph name="paragraphseparator-ethiopic" format="2">
  <advance width="1337"/>
  <unicode hex="1368"/>
  <outline>
    <contour>
      <point x="1173" y="663" type="curve" smooth="yes"/>
      <point x="1249" y="716"/>
      <point x="1260" y="809"/>
      <point x="1206" y="887" type="curve" smooth="yes"/>
      <point x="1153" y="963"/>
      <point x="1061" y="984"/>
      <point x="986" y="931" type="curve" smooth="yes"/>
      <point x="911" y="879"/>
      <point x="899" y="788"/>
      <point x="954" y="710" type="curve" smooth="yes"/>
      <point x="1009" y="631"/>
      <point x="1099" y="611"/>
    </contour>
    <contour>
      <point x="449" y="157" type="curve" smooth="yes"/>
      <point x="525" y="210"/>
      <point x="536" y="303"/>
      <point x="482" y="381" type="curve" smooth="yes"/>
      <point x="429" y="457"/>
      <point x="337" y="478"/>
      <point x="262" y="425" type="curve" smooth="yes"/>
      <point x="187" y="373"/>
      <point x="175" y="282"/>
      <point x="230" y="204" type="curve" smooth="yes"/>
      <point x="285" y="125"/>
      <point x="375" y="105"/>
    </contour>
    <contour>
      <point x="695" y="-11" type="curve" smooth="yes"/>
      <point x="791" y="-11"/>
      <point x="859" y="51"/>
      <point x="859" y="142" type="curve" smooth="yes"/>
      <point x="859" y="234"/>
      <point x="790" y="297"/>
      <point x="695" y="297" type="curve" smooth="yes"/>
      <point x="602" y="297"/>
      <point x="532" y="234"/>
      <point x="532" y="142" type="curve" smooth="yes"/>
      <point x="532" y="51"/>
      <point x="600" y="-11"/>
    </contour>
    <contour>
      <point x="224" y="564" type="curve" smooth="yes"/>
      <point x="304" y="519"/>
      <point x="393" y="549"/>
      <point x="439" y="632" type="curve" smooth="yes"/>
      <point x="484" y="714"/>
      <point x="463" y="805"/>
      <point x="382" y="850" type="curve" smooth="yes"/>
      <point x="303" y="894"/>
      <point x="215" y="864"/>
      <point x="169" y="782" type="curve" smooth="yes"/>
      <point x="123" y="698"/>
      <point x="144" y="608"/>
    </contour>
    <contour>
      <point x="726" y="416" type="curve" smooth="yes"/>
      <point x="818" y="416"/>
      <point x="874" y="472"/>
      <point x="874" y="552" type="curve" smooth="yes"/>
      <point x="874" y="632"/>
      <point x="818" y="689"/>
      <point x="726" y="689" type="curve" smooth="yes"/>
      <point x="637" y="689"/>
      <point x="578" y="632"/>
      <point x="578" y="552" type="curve" smooth="yes"/>
      <point x="578" y="472"/>
      <point x="635" y="416"/>
    </contour>
    <contour>
      <point x="996" y="135" type="curve" smooth="yes"/>
      <point x="1076" y="90"/>
      <point x="1165" y="120"/>
      <point x="1211" y="203" type="curve" smooth="yes"/>
      <point x="1256" y="285"/>
      <point x="1235" y="376"/>
      <point x="1154" y="421" type="curve" smooth="yes"/>
      <point x="1075" y="465"/>
      <point x="987" y="435"/>
      <point x="941" y="353" type="curve" smooth="yes"/>
      <point x="895" y="269"/>
      <point x="916" y="179"/>
    </contour>
    <contour>
      <point x="696" y="872" type="curve" smooth="yes"/>
      <point x="792" y="872"/>
      <point x="860" y="934"/>
      <point x="860" y="1025" type="curve" smooth="yes"/>
      <point x="860" y="1117"/>
      <point x="791" y="1180"/>
      <point x="696" y="1180" type="curve" smooth="yes"/>
      <point x="603" y="1180"/>
      <point x="533" y="1117"/>
      <point x="533" y="1025" type="curve" smooth="yes"/>
      <point x="533" y="934"/>
      <point x="601" y="872"/>
    </contour>
  </outline>
</glyph>
<glyph name="thirty-ethiopic" format="2">
  <advance width="1343"/>
  <unicode hex="1374"/>
  <outline>
    <contour>
      <point x="64" y="63" type="line"/>
      <point x="353" y="63" type="line"/>
      <point x="353" y="775" type="line" smooth="yes"/>
      <point x="353" y="1168"/>
      <point x="382" y="1248"/>
      <point x="445" y="1248" type="curve" smooth="yes"/>
      <point x="484" y="1248"/>
      <point x="509" y="1144"/>
      <point x="509" y="695" type="curve" smooth="yes"/>
      <point x="509" y="122"/>
      <point x="576" y="63"/>
      <point x="863" y="63" type="curve" smooth="yes"/>
      <point x="1150" y="63"/>
      <point x="1243" y="187"/>
      <point x="1243" y="684" type="curve" smooth="yes"/>
      <point x="1243" y="1476" type="line"/>
      <point x="954" y="1476" type="line"/>
      <point x="954" y="621" type="line" smooth="yes"/>
      <point x="954" y="368"/>
      <point x="940" y="297"/>
      <point x="873" y="297" type="curve" smooth="yes"/>
      <point x="823" y="297"/>
      <point x="798" y="397"/>
      <point x="798" y="763" type="curve" smooth="yes"/>
      <point x="798" y="1403"/>
      <point x="721" y="1476"/>
      <point x="435" y="1476" type="curve" smooth="yes"/>
      <point x="138" y="1476"/>
      <point x="64" y="1382"/>
      <point x="64" y="855" type="curve" smooth="yes"/>
    </contour>
    <component base="_num.bar" xOffset="64"/>
  </outline>
</glyph>
<glyph name="quoteright" format="2">
  <advance width="470"/>
  <unicode hex="2019"/>
  <note>
uni2019
</note>
  <outline>
    <contour>
      <point x="194" y="1009" type="line"/>
      <point x="304.667" y="1105"/>
      <point x="377" y="1261"/>
      <point x="377" y="1381" type="curve" smooth="yes"/>
      <point x="377" y="1536" type="line"/>
      <point x="147" y="1536" type="line"/>
      <point x="147" y="1367" type="line" smooth="yes"/>
      <point x="145" y="1271"/>
      <point x="115.333" y="1178"/>
      <point x="58" y="1088" type="curve"/>
    </contour>
  </outline>
</glyph>
<glyph name="hyphenationpoint" format="2">
  <advance width="527"/>
  <unicode hex="2027"/>
  <note>
uni2027
</note>
  <outline>
    <contour>
      <point x="263" y="476" type="curve" smooth="yes"/>
      <point x="363" y="476"/>
      <point x="425" y="537"/>
      <point x="425" y="625" type="curve" smooth="yes"/>
      <point x="425" y="713"/>
      <point x="363" y="774"/>
      <point x="263" y="774" type="curve" smooth="yes"/>
      <point x="163" y="774"/>
      <point x="101" y="713"/>
      <point x="101" y="625" type="curve" smooth="yes"/>
      <point x="101" y="537"/>
      <point x="163" y="476"/>
    </contour>
  </outline>
</glyph>
<glyph name="euro" format="2">
  <advance width="1175"/>
  <unicode hex="20AC"/>
  <note>
uni20AC
</note>
  <outline>
    <contour>
      <point x="836" y="-19" type="curve" smooth="yes"/>
      <point x="924" y="-19"/>
      <point x="1009.333" y="-9.333"/>
      <point x="1092" y="10" type="curve"/>
      <point x="1056" y="252" type="line"/>
      <point x="999.333" y="231.333"/>
      <point x="936" y="221"/>
      <point x="866" y="221" type="curve" smooth="yes"/>
      <point x="659.333" y="221"/>
      <point x="565.667" y="320"/>
      <point x="559" y="516" type="curve"/>
      <point x="894" y="516" type="line"/>
      <point x="894" y="668" type="line"/>
      <point x="559" y="668" type="line"/>
      <point x="559" y="792" type="line"/>
      <point x="894" y="792" type="line"/>
      <point x="894" y="944" type="line"/>
      <point x="561" y="944" type="line"/>
      <point x="579" y="1136.667"/>
      <point x="682.333" y="1233"/>
      <point x="871" y="1233" type="curve" smooth="yes"/>
      <point x="931.667" y="1233"/>
      <point x="993.333" y="1222.333"/>
      <point x="1056" y="1201" type="curve"/>
      <point x="1092" y="1444" type="line"/>
      <point x="1004.667" y="1464.667"/>
      <point x="926" y="1475"/>
      <point x="856" y="1475" type="curve" smooth="yes"/>
      <point x="506.667" y="1475"/>
      <point x="282.667" y="1280"/>
      <point x="260" y="944" type="curve"/>
      <point x="89" y="944" type="line"/>
      <point x="89" y="792" type="line"/>
      <point x="258" y="792" type="line"/>
      <point x="258" y="668" type="line"/>
      <point x="89" y="668" type="line"/>
      <point x="89" y="516" type="line"/>
      <point x="258" y="516" type="line"/>
      <point x="268.667" y="180"/>
      <point x="485.333" y="-19"/>
    </contour>
  </outline>
</glyph>
<glyph name="divisionslash" format="2">
  <advance width="844"/>
  <unicode hex="2215"/>
  <note>
uni002F
</note>
  <outline>
    <contour>
      <point x="-13" y="-125" type="line"/>
      <point x="202" y="-125" type="line"/>
      <point x="738" y="1456" type="line"/>
      <point x="523" y="1456" type="line"/>
    </contour>
  </outline>
</glyph>
<glyph name="integral" format="2">
  <advance width="591"/>
  <unicode hex="222B"/>
  <note>
uni222B
</note>
  <outline>
    <contour>
      <point x="53" y="-437" type="curve" smooth="yes"/>
      <point x="293" y="-437"/>
      <point x="433" y="-303"/>
      <point x="433" y="-47" type="curve" smooth="yes"/>
      <point x="433" y="1171" type="line" smooth="yes"/>
      <point x="433" y="1273"/>
      <point x="482" y="1324"/>
      <point x="580" y="1324" type="curve" smooth="yes"/>
      <point x="616.667" y="1324"/>
      <point x="649" y="1320.667"/>
      <point x="677" y="1314" type="curve"/>
      <point x="701" y="1536" type="line"/>
      <point x="637" y="1550"/>
      <point x="584" y="1557"/>
      <point x="542" y="1557" type="curve" smooth="yes"/>
      <point x="287.333" y="1557"/>
      <point x="143" y="1421.333"/>
      <point x="143" y="1176" type="curve" smooth="yes"/>
      <point x="143" y="-59" type="line"/>
      <point x="140.333" y="-155"/>
      <point x="96" y="-203"/>
      <point x="10" y="-203" type="curve" smooth="yes"/>
      <point x="-14.667" y="-203"/>
      <point x="-43" y="-199"/>
      <point x="-75" y="-191" type="curve"/>
      <point x="-91" y="-419" type="line"/>
      <point x="-45.667" y="-431"/>
      <point x="2.333" y="-437"/>
    </contour>
  </outline>
</glyph>
<glyph name="_smart.cha.caps" format="2">
  <anchor x="-5" y="34" name="_cha.caps"/>
  <outline>
    <contour>
      <point x="-354" y="8" type="curve" smooth="yes"/>
      <point x="-262" y="8"/>
      <point x="-206" y="64"/>
      <point x="-206" y="144" type="curve" smooth="yes"/>
      <point x="-206" y="224"/>
      <point x="-262" y="281"/>
      <point x="-354" y="281" type="curve" smooth="yes"/>
      <point x="-443" y="281"/>
      <point x="-502" y="224"/>
      <point x="-502" y="144" type="curve" smooth="yes"/>
      <point x="-502" y="64"/>
      <point x="-445" y="8"/>
    </contour>
    <contour>
      <point x="356" y="8" type="curve" smooth="yes"/>
      <point x="448" y="8"/>
      <point x="504" y="64"/>
      <point x="504" y="144" type="curve" smooth="yes"/>
      <point x="504" y="224"/>
      <point x="448" y="281"/>
      <point x="356" y="281" type="curve" smooth="yes"/>
      <point x="267" y="281"/>
      <point x="208" y="224"/>
      <point x="208" y="144" type="curve" smooth="yes"/>
      <point x="208" y="64"/>
      <point x="265" y="8"/>
    </contour>
  </outline>
</glyph>
<glyph name="_smart.di" format="2">
  <anchor x="-173" y="224" name="_di"/>
  <outline>
    <contour>
      <point x="-54" y="414" type="line"/>
      <point x="-54" y="24" type="line"/>
      <point x="135" y="24" type="line"/>
      <point x="135" y="414" type="line"/>
    </contour>
    <contour>
      <point x="288" y="14" type="curve" smooth="yes"/>
      <point x="380" y="14"/>
      <point x="436" y="70"/>
      <point x="436" y="150" type="curve" smooth="yes"/>
      <point x="436" y="230"/>
      <point x="380" y="287"/>
      <point x="288" y="287" type="curve" smooth="yes"/>
      <point x="199" y="287"/>
      <point x="140" y="230"/>
      <point x="140" y="150" type="curve" smooth="yes"/>
      <point x="140" y="70"/>
      <point x="197" y="14"/>
    </contour>
  </outline>
</glyph>
<glyph name="_smart.fa" format="2">
  <anchor x="433" y="54" name="_fa"/>
  <outline>
    <contour>
      <point x="448" y="603" type="line"/>
      <point x="157" y="603" type="line"/>
      <point x="157" y="520" type="line"/>
      <point x="233" y="520" type="line"/>
      <point x="233" y="45" type="line"/>
      <point x="448" y="45" type="line"/>
    </contour>
  </outline>
</glyph>
<glyph name="_smart.haa" format="2">
  <anchor x="-1" y="315" name="_haa"/>
  <outline>
    <contour>
      <point x="-166" y="-91" type="line"/>
      <point x="124" y="-91" type="line"/>
      <point x="124" y="313" type="line"/>
      <point x="-166" y="313" type="line"/>
    </contour>
  </outline>
</glyph>
<glyph name="_smart.he.acute.top" format="2">
  <anchor x="0" y="1086" name="_he.acute.top"/>
  <outline>
    <contour>
      <point x="163" y="1076" type="line"/>
      <point x="-34" y="1386" type="line"/>
      <point x="-349" y="1386" type="line"/>
      <point x="-72" y="1076" type="line"/>
    </contour>
  </outline>
</glyph>
<glyph name="_smart.he.left.inner" format="2">
  <anchor x="0" y="-41" name="_he.left.inner"/>
  <outline>
    <contour>
      <point x="148" y="-182" type="curve" smooth="yes"/>
      <point x="240" y="-182"/>
      <point x="296" y="-126"/>
      <point x="296" y="-46" type="curve" smooth="yes"/>
      <point x="296" y="34"/>
      <point x="240" y="91"/>
      <point x="148" y="91" type="curve" smooth="yes"/>
      <point x="59" y="91"/>
      <point x="0" y="34"/>
      <point x="0" y="-46" type="curve" smooth="yes"/>
      <point x="0" y="-126"/>
      <point x="57" y="-182"/>
    </contour>
  </outline>
</glyph>
<glyph name="_smart.ka.caps" format="2">
  <anchor x="-820" y="1395" name="_ka.caps"/>
  <outline>
    <contour>
      <point x="-645" y="1372" type="line"/>
      <point x="-645" y="1482" type="line"/>
      <point x="-980" y="1479" type="line"/>
      <point x="-980" y="1810" type="line"/>
      <point x="-1325" y="1810" type="line"/>
      <point x="-1325" y="1372" type="line"/>
    </contour>
  </outline>
</glyph>
<glyph name="_smart.neck" format="2">
  <anchor x="1" y="-24" name="_neck"/>
  <outline>
    <contour>
      <point x="-111" y="-23" type="line"/>
      <point x="126" y="-23" type="line"/>
      <point x="126" y="287" type="line"/>
      <point x="-111" y="287" type="line"/>
    </contour>
  </outline>
</glyph>
<glyph name="_smart.neck.left.caps" format="2">
  <anchor x="1" y="-24" name="_neck.left.caps"/>
  <outline>
    <contour>
      <point x="-111" y="-23" type="line"/>
      <point x="126" y="-23" type="line"/>
      <point x="126" y="367" type="line"/>
      <point x="-111" y="367" type="line"/>
    </contour>
  </outline>
</glyph>
<glyph name="_smart.ri" format="2">
  <anchor x="-101" y="260" name="_ri"/>
  <outline>
    <contour>
      <point x="-97" y="326" type="line"/>
      <point x="-97" y="635" type="line"/>
      <point x="-262" y="635" type="line"/>
      <point x="-262" y="451" type="line"/>
      <point x="-179" y="451" type="line"/>
      <point x="-179" y="326" type="line"/>
    </contour>
  </outline>
</glyph>
<glyph name="_smart.yee" format="2">
  <anchor x="-40" y="326" name="_yee"/>
  <outline>
    <contour>
      <point x="182" y="114" type="curve" smooth="yes"/>
      <point x="309" y="114"/>
      <point x="405" y="202"/>
      <point x="405" y="315" type="curve" smooth="yes"/>
      <point x="405" y="432"/>
      <point x="305" y="520"/>
      <point x="182" y="520" type="curve" smooth="yes"/>
      <point x="58" y="520"/>
      <point x="-41" y="430"/>
      <point x="-41" y="315" type="curve" smooth="yes"/>
      <point x="-41" y="204"/>
      <point x="53" y="114"/>
    </contour>
    <contour>
      <point x="182" y="208" type="curve" smooth="yes"/>
      <point x="115" y="208"/>
      <point x="74" y="256"/>
      <point x="74" y="315" type="curve" smooth="yes"/>
      <point x="74" y="376"/>
      <point x="117" y="424"/>
      <point x="182" y="424" type="curve" smooth="yes"/>
      <point x="247" y="424"/>
      <point x="290" y="376"/>
      <point x="290" y="315" type="curve" smooth="yes"/>
      <point x="290" y="256"/>
      <point x="249" y="208"/>
    </contour>
  </outline>
</glyph>
<glyph name="_smart.yi" format="2">
  <anchor x="149" y="726" name="_yi"/>
  <outline>
    <contour>
      <point x="187" y="506" type="line"/>
      <point x="650" y="506" type="line"/>
      <point x="650" y="742" type="line"/>
      <point x="187" y="742" type="line"/>
    </contour>
    <contour>
      <point x="766" y="438" type="curve" smooth="yes"/>
      <point x="858" y="438"/>
      <point x="914" y="494"/>
      <point x="914" y="574" type="curve" smooth="yes"/>
      <point x="914" y="654"/>
      <point x="858" y="711"/>
      <point x="766" y="711" type="curve" smooth="yes"/>
      <point x="677" y="711"/>
      <point x="618" y="654"/>
      <point x="618" y="574" type="curve" smooth="yes"/>
      <point x="618" y="494"/>
      <point x="675" y="438"/>
    </contour>
  </outline>
</glyph>
<glyph name="_smart.zha" format="2">
  <anchor x="-7" y="776" name="_zha"/>
  <outline>
    <contour>
      <point x="-616" y="932" type="curve" smooth="yes"/>
      <point x="-533" y="932"/>
      <point x="-482" y="983"/>
      <point x="-482" y="1055" type="curve" smooth="yes"/>
      <point x="-482" y="1127"/>
      <point x="-533" y="1179"/>
      <point x="-616" y="1179" type="curve" smooth="yes"/>
      <point x="-696" y="1179"/>
      <point x="-750" y="1127"/>
      <point x="-750" y="1055" type="curve" smooth="yes"/>
      <point x="-750" y="983"/>
      <point x="-698" y="932"/>
    </contour>
    <contour>
      <point x="594" y="902" type="curve" smooth="yes"/>
      <point x="677" y="902"/>
      <point x="728" y="953"/>
      <point x="728" y="1025" type="curve" smooth="yes"/>
      <point x="728" y="1097"/>
      <point x="677" y="1149"/>
      <point x="594" y="1149" type="curve" smooth="yes"/>
      <point x="514" y="1149"/>
      <point x="460" y="1097"/>
      <point x="460" y="1025" type="curve" smooth="yes"/>
      <point x="460" y="953"/>
      <point x="512" y="902"/>
    </contour>
  </outline>
</glyph>
<glyph name="aGl.base.cap" format="2">
  <advance width="1254"/>
  <anchor x="1118" y="-41" name="haa"/>
  <anchor x="183" y="1677" name="hat"/>
  <anchor x="183" y="1677" name="hat.left"/>
  <anchor x="1099" y="29" name="hee"/>
  <anchor x="124" y="-32" name="ho"/>
  <anchor x="852" y="965" name="hu"/>
  <anchor x="1045" y="-41" name="hwa"/>
  <anchor x="1155" y="4" name="ni"/>
  <outline>
    <contour>
      <point x="7" y="0" type="line"/>
      <point x="334" y="0" type="line"/>
      <point x="626" y="977" type="line"/>
      <point x="920" y="0" type="line"/>
      <point x="1248" y="0" type="line"/>
      <point x="785" y="1294" type="line"/>
      <point x="783" y="1456" type="line"/>
      <point x="238" y="1456" type="line"/>
      <point x="238" y="1673" type="line"/>
      <point x="14" y="1673" type="line"/>
      <point x="14" y="1294" type="line"/>
      <point x="461" y="1294" type="line"/>
    </contour>
  </outline>
</glyph>
<glyph name="aPharyngeal-ethiopic.liga" format="2">
  <advance width="1414"/>
  <outline>
    <contour>
      <point x="708" y="-20" type="curve" smooth="yes"/>
      <point x="950" y="-20"/>
      <point x="1148" y="101"/>
      <point x="1250" y="318" type="curve" smooth="yes"/>
      <point x="1300.667" y="426"/>
      <point x="1326" y="551.667"/>
      <point x="1326" y="760" type="curve" smooth="yes"/>
      <point x="1326" y="1168"/>
      <point x="1100" y="1476"/>
      <point x="706" y="1476" type="curve" smooth="yes"/>
      <point x="305" y="1476"/>
      <point x="86" y="1161"/>
      <point x="86" y="759" type="curve" smooth="yes"/>
      <point x="86" y="407"/>
      <point x="195.667" y="183"/>
      <point x="385" y="67" type="curve" smooth="yes"/>
      <point x="479.667" y="9"/>
      <point x="587.333" y="-20"/>
    </contour>
    <contour>
      <point x="708" y="226" type="curve" smooth="yes"/>
      <point x="502.667" y="226"/>
      <point x="390" y="397.667"/>
      <point x="390" y="766" type="curve" smooth="yes"/>
      <point x="390" y="1069"/>
      <point x="504.667" y="1228"/>
      <point x="706" y="1228" type="curve" smooth="yes"/>
      <point x="908.667" y="1228"/>
      <point x="1022" y="1066.333"/>
      <point x="1022" y="761" type="curve" smooth="yes"/>
      <point x="1022" y="387"/>
      <point x="909.333" y="226"/>
    </contour>
  </outline>
</glyph>
<glyph name="aaGlottal-ethiopic.liga" format="2">
  <advance width="1254"/>
  <outline>
    <contour>
      <point x="7" y="0" type="line"/>
      <point x="334" y="0" type="line"/>
      <point x="626" y="977" type="line"/>
      <point x="920" y="0" type="line"/>
      <point x="1248" y="0" type="line"/>
      <point x="785" y="1294" type="line"/>
      <point x="783" y="1456" type="line"/>
      <point x="238" y="1456" type="line"/>
      <point x="238" y="1673" type="line"/>
      <point x="14" y="1673" type="line"/>
      <point x="14" y="1294" type="line"/>
      <point x="461" y="1294" type="line"/>
    </contour>
    <contour>
      <point x="953" y="-447" type="line"/>
      <point x="1243" y="-447" type="line"/>
      <point x="1243" y="-43" type="line"/>
      <point x="953" y="-43" type="line"/>
    </contour>
  </outline>
</glyph>
<glyph name="baa-ethiopic.liga" format="2">
  <advance width="1348"/>
  <outline>
    <contour>
      <point x="116" y="0" type="line"/>
      <point x="416" y="0" type="line"/>
      <point x="416" y="961" type="line" smooth="yes"/>
      <point x="416" y="1152"/>
      <point x="513" y="1235"/>
      <point x="674" y="1235" type="curve" smooth="yes"/>
      <point x="843" y="1235"/>
      <point x="931" y="1146"/>
      <point x="931" y="969" type="curve" smooth="yes"/>
      <point x="931" y="0" type="line"/>
      <point x="1232" y="0" type="line"/>
      <point x="1232" y="959" type="line" smooth="yes"/>
      <point x="1232" y="1278"/>
      <point x="1019" y="1476"/>
      <point x="674" y="1476" type="curve" smooth="yes"/>
      <point x="334" y="1476"/>
      <point x="116" y="1285"/>
      <point x="116" y="970" type="curve" smooth="yes"/>
    </contour>
    <contour>
      <point x="948" y="-431" type="line"/>
      <point x="1238" y="-431" type="line"/>
      <point x="1238" y="-27" type="line"/>
      <point x="948" y="-27" type="line"/>
    </contour>
  </outline>
</glyph>
<glyph name="be-ethiopic.liga" format="2">
  <advance width="1348"/>
  <outline>
    <contour>
      <point x="116" y="0" type="line"/>
      <point x="416" y="0" type="line"/>
      <point x="416" y="961" type="line" smooth="yes"/>
      <point x="416" y="1152"/>
      <point x="513" y="1235"/>
      <point x="674" y="1235" type="curve" smooth="yes"/>
      <point x="843" y="1235"/>
      <point x="931" y="1146"/>
      <point x="931" y="969" type="curve" smooth="yes"/>
      <point x="931" y="0" type="line"/>
      <point x="1232" y="0" type="line"/>
      <point x="1232" y="959" type="line" smooth="yes"/>
      <point x="1232" y="1278"/>
      <point x="1019" y="1476"/>
      <point x="674" y="1476" type="curve" smooth="yes"/>
      <point x="334" y="1476"/>
      <point x="116" y="1285"/>
      <point x="116" y="970" type="curve" smooth="yes"/>
    </contour>
    <contour>
      <point x="478" y="631" type="curve" smooth="yes"/>
      <point x="570" y="631"/>
      <point x="626" y="687"/>
      <point x="626" y="767" type="curve" smooth="yes"/>
      <point x="626" y="847"/>
      <point x="570" y="904"/>
      <point x="478" y="904" type="curve" smooth="yes"/>
      <point x="389" y="904"/>
      <point x="330" y="847"/>
      <point x="330" y="767" type="curve" smooth="yes"/>
      <point x="330" y="687"/>
      <point x="387" y="631"/>
    </contour>
  </outline>
</glyph>
<glyph name="ca-ethiopic.liga" format="2">
  <advance width="1267"/>
  <outline>
    <contour>
      <point x="480" y="0" type="line"/>
      <point x="780" y="0" type="line"/>
      <point x="780" y="1213" type="line"/>
      <point x="1226" y="1213" type="line"/>
      <point x="1226" y="1456" type="line"/>
      <point x="40" y="1456" type="line"/>
      <point x="40" y="1213" type="line"/>
      <point x="480" y="1213" type="line"/>
    </contour>
    <contour>
      <point x="511" y="1526" type="line"/>
      <point x="688" y="1526" type="line"/>
      <point x="688" y="1783" type="line"/>
      <point x="511" y="1783" type="line"/>
    </contour>
    <contour>
      <point x="239" y="1611" type="line"/>
      <point x="913" y="1611" type="line"/>
      <point x="913" y="1814" type="line"/>
      <point x="239" y="1814" type="line"/>
    </contour>
  </outline>
</glyph>
<glyph name="caa-ethiopic.liga" format="2">
  <advance width="1267"/>
  <outline>
    <contour>
      <point x="480" y="0" type="line"/>
      <point x="780" y="0" type="line"/>
      <point x="780" y="1213" type="line"/>
      <point x="1226" y="1213" type="line"/>
      <point x="1226" y="1456" type="line"/>
      <point x="40" y="1456" type="line"/>
      <point x="40" y="1213" type="line"/>
      <point x="480" y="1213" type="line"/>
    </contour>
    <contour>
      <point x="263" y="-295" type="line"/>
      <point x="498" y="-295" type="line"/>
      <point x="775" y="15" type="line" name="❌"/>
      <point x="460" y="15" type="line" name="❌"/>
    </contour>
    <contour>
      <point x="511" y="1526" type="line"/>
      <point x="688" y="1526" type="line"/>
      <point x="688" y="1783" type="line"/>
      <point x="511" y="1783" type="line"/>
    </contour>
    <component base="_smart.hat.caps" xOffset="523" yOffset="-31"/>
  </outline>
</glyph>
<glyph name="ce-ethiopic.liga" format="2">
  <advance width="1267"/>
  <outline>
    <contour>
      <point x="480" y="0" type="line"/>
      <point x="780" y="0" type="line"/>
      <point x="780" y="1213" type="line"/>
      <point x="1226" y="1213" type="line"/>
      <point x="1226" y="1456" type="line"/>
      <point x="40" y="1456" type="line"/>
      <point x="40" y="1213" type="line"/>
      <point x="480" y="1213" type="line"/>
    </contour>
    <contour>
      <point x="239" y="1611" type="line"/>
      <point x="913" y="1611" type="line"/>
      <point x="913" y="1814" type="line"/>
      <point x="239" y="1814" type="line"/>
    </contour>
    <contour>
      <point x="733" y="1511" type="line"/>
      <point x="536" y="1821" type="line"/>
      <point x="221" y="1821" type="line"/>
      <point x="498" y="1511" type="line"/>
    </contour>
  </outline>
</glyph>
<glyph name="chaa-ethiopic.liga" format="2">
  <advance width="1794"/>
  <outline>
    <contour>
      <point x="130" y="0" type="line"/>
      <point x="430" y="0" type="line"/>
      <point x="400" y="1084" type="line" name="❌"/>
      <point x="792" y="0" type="line"/>
      <point x="998" y="0" type="line"/>
      <point x="1391" y="1085" type="line" name="❌"/>
      <point x="1361" y="0" type="line"/>
      <point x="1662" y="0" type="line"/>
      <point x="1662" y="1456" type="line"/>
      <point x="1268" y="1456" type="line"/>
      <point x="896" y="400" type="line"/>
      <point x="522" y="1456" type="line"/>
      <point x="130" y="1456" type="line"/>
    </contour>
    <contour>
      <point x="1373" y="-438" type="line"/>
      <point x="1663" y="-438" type="line"/>
      <point x="1663" y="-34" type="line"/>
      <point x="1373" y="-34" type="line"/>
    </contour>
    <contour>
      <point x="539" y="-21" type="curve" smooth="yes"/>
      <point x="631" y="-21"/>
      <point x="687" y="35"/>
      <point x="687" y="115" type="curve" smooth="yes"/>
      <point x="687" y="195"/>
      <point x="631" y="252"/>
      <point x="539" y="252" type="curve" smooth="yes"/>
      <point x="450" y="252"/>
      <point x="391" y="195"/>
      <point x="391" y="115" type="curve" smooth="yes"/>
      <point x="391" y="35"/>
      <point x="448" y="-21"/>
    </contour>
    <contour>
      <point x="1249" y="-21" type="curve" smooth="yes"/>
      <point x="1341" y="-21"/>
      <point x="1397" y="35"/>
      <point x="1397" y="115" type="curve" smooth="yes"/>
      <point x="1397" y="195"/>
      <point x="1341" y="252"/>
      <point x="1249" y="252" type="curve" smooth="yes"/>
      <point x="1160" y="252"/>
      <point x="1101" y="195"/>
      <point x="1101" y="115" type="curve" smooth="yes"/>
      <point x="1101" y="35"/>
      <point x="1158" y="-21"/>
    </contour>
  </outline>
</glyph>
<glyph name="chee-ethiopic.liga" format="2">
  <advance width="1794"/>
  <outline>
    <contour>
      <point x="130" y="0" type="line"/>
      <point x="430" y="0" type="line"/>
      <point x="400" y="1084" type="line" name="❌"/>
      <point x="792" y="0" type="line"/>
      <point x="998" y="0" type="line"/>
      <point x="1391" y="1085" type="line" name="❌"/>
      <point x="1361" y="0" type="line"/>
      <point x="1662" y="0" type="line"/>
      <point x="1662" y="1456" type="line"/>
      <point x="1268" y="1456" type="line"/>
      <point x="896" y="400" type="line"/>
      <point x="522" y="1456" type="line"/>
      <point x="130" y="1456" type="line"/>
    </contour>
    <contour>
      <point x="1416" y="-413" type="curve" smooth="yes"/>
      <point x="1588" y="-413"/>
      <point x="1718" y="-294"/>
      <point x="1718" y="-141" type="curve" smooth="yes"/>
      <point x="1718" y="18"/>
      <point x="1583" y="137"/>
      <point x="1416" y="137" type="curve" smooth="yes"/>
      <point x="1248" y="137"/>
      <point x="1114" y="15"/>
      <point x="1114" y="-141" type="curve" smooth="yes"/>
      <point x="1114" y="-291"/>
      <point x="1241" y="-413"/>
    </contour>
    <contour>
      <point x="1466" y="-371" type="curve" smooth="yes"/>
      <point x="1347" y="-371"/>
      <point x="1274" y="-286"/>
      <point x="1274" y="-180" type="curve" smooth="yes"/>
      <point x="1274" y="-72"/>
      <point x="1350" y="13"/>
      <point x="1466" y="13" type="curve" smooth="yes"/>
      <point x="1582" y="13"/>
      <point x="1658" y="-72"/>
      <point x="1658" y="-180" type="curve" smooth="yes"/>
      <point x="1658" y="-286"/>
      <point x="1585" y="-371"/>
    </contour>
    <contour>
      <point x="539" y="-21" type="curve" smooth="yes"/>
      <point x="631" y="-21"/>
      <point x="687" y="35"/>
      <point x="687" y="115" type="curve" smooth="yes"/>
      <point x="687" y="195"/>
      <point x="631" y="252"/>
      <point x="539" y="252" type="curve" smooth="yes"/>
      <point x="450" y="252"/>
      <point x="391" y="195"/>
      <point x="391" y="115" type="curve" smooth="yes"/>
      <point x="391" y="35"/>
      <point x="448" y="-21"/>
    </contour>
    <contour>
      <point x="1249" y="-21" type="curve" smooth="yes"/>
      <point x="1341" y="-21"/>
      <point x="1397" y="35"/>
      <point x="1397" y="115" type="curve" smooth="yes"/>
      <point x="1397" y="195"/>
      <point x="1341" y="252"/>
      <point x="1249" y="252" type="curve" smooth="yes"/>
      <point x="1160" y="252"/>
      <point x="1101" y="195"/>
      <point x="1101" y="115" type="curve" smooth="yes"/>
      <point x="1101" y="35"/>
      <point x="1158" y="-21"/>
    </contour>
  </outline>
</glyph>
